<?xml version="1.0" encoding="utf-8"?>
<!-- Generator: Adobe Illustrator 25.2.1, SVG Export Plug-In . SVG Version: 6.00 Build 0)  -->
<svg version="1.1" id="Layer_1" xmlns="http://www.w3.org/2000/svg" xmlns:xlink="http://www.w3.org/1999/xlink" x="0px" y="0px"
	 viewBox="0 0 722.8 544.8" style="enable-background:new 0 0 722.8 544.8;" xml:space="preserve">
<style type="text/css">
	.st0{fill:none;stroke:#000000;}
	.st1{fill:#FFFFFF;stroke:#000000;}
	.st2{fill:#FFFFFF;}
	.st3{fill:none;stroke:#000000;stroke-miterlimit:10;}
	.st4{fill-rule:evenodd;clip-rule:evenodd;}
</style>
<g>
	<path class="st0" d="M0.5,544.8c-1-36,53.5-87,111-125.5c57.5-38.5,100-48.5,135-70c39-24,154.5-70.5,235.5-43
		c84.9,28.8,226,16,239.5-72c6.4-42-23-104-136.5-107c-137.8-3.6-406.5,43-508-84"/>
	<g>
		<path class="st1" d="M223.3,278.3L223.3,278.3c45.1,0,81.7,36.6,81.7,81.7v0.9c0,45.1-36.6,81.7-81.7,81.7h0
			c-45.1,0-81.7-36.6-81.7-81.7v-0.9C141.5,314.9,178.1,278.3,223.3,278.3z"/>
		<g>
			<path d="M222.5,361.3h-23.1v23.1h23.1V361.3z"/>
			<path class="st2" d="M205.3,365v9.1c0,4.8,2.4,6.6,5.5,6.6c3.3,0,5.8-1.9,5.8-6.7v-9h-2v9.2c0,3.4-1.5,4.9-3.8,4.9
				c-2.1,0-3.6-1.5-3.6-4.9V365H205.3z"/>
			<path d="M247.1,361.3H224v23.1h23.1V361.3z"/>
			<path class="st2" d="M231.6,380.5c0,0,0-11-0.1-13l0.1,0c0.8,1.7,7.8,13,7.8,13h2v-15.4h-1.9c0,0,0,10.7,0.2,12.8l-0.1,0
				c-0.7-1.6-7.7-12.8-7.7-12.8h-2.2v15.4L231.6,380.5L231.6,380.5z"/>
			<path d="M247.1,385.8H224v23.1h23.1V385.8z"/>
			<path class="st2" d="M239.4,390.7c-0.9-0.8-2.4-1.3-4.3-1.3c-1.6,0-2.9,0.1-3.8,0.3V405h2v-6.2c0.5,0.1,1,0.1,1.6,0.1
				c1.9,0,3.7-0.6,4.7-1.7c0.8-0.8,1.2-1.9,1.2-3.3C240.8,392.6,240.3,391.5,239.4,390.7z"/>
			<path d="M234.9,397.5c-0.6,0-1.2,0-1.7-0.2v-6c0.3-0.1,1-0.2,1.9-0.2c2.2,0,3.6,1,3.6,3C238.8,396.3,237.3,397.5,234.9,397.5z"/>
			<path d="M222.5,385.8h-23.1v23.1h23.1V385.8z"/>
			<path class="st2" d="M215.7,391.3c-1.4-1.3-3.4-1.9-6.2-1.9c-1.6,0-3,0.1-4.3,0.3v15.2c1,0.1,2.2,0.2,3.6,0.2
				c3,0,5.4-0.8,6.8-2.2c1.4-1.4,2.2-3.5,2.2-6C217.9,394.4,217.1,392.6,215.7,391.3z"/>
			<path d="M209.2,403.5c-0.8,0-1.5,0-2-0.1v-12.2c0.5-0.1,1.3-0.2,2.3-0.2c4.2,0,6.3,2.3,6.2,5.9
				C215.8,401.1,213.4,403.5,209.2,403.5z"/>
			<path d="M247.1,312.1h-47.7v47.7h47.7V312.1z"/>
			<path class="st2" d="M240.3,337c-0.7,0.9-1.5,1.8-2.1,2.8c0.1-0.8,0.2-1.7-0.1-2.4c-0.5-1.6-1-3.1-1.1-4.8l0-0.7
				c0.4,1.7,2.1,2.9,2,4.9c0,0.5-0.1,0.9-0.2,1.3l0,0l0.1-0.1c0.3-1,0.4-2,0.8-2.9c0.6-1.3,1.3-2.6,1-4.1
				C241.5,332.8,241.3,335.2,240.3,337z"/>
			<path class="st2" d="M239.3,327.1c1.1,1.5,1.4,4,0.6,5.7c-0.3,0.7-0.5,1.5-0.6,2.4c-0.1-0.1-0.1-0.3-0.1-0.5
				c-0.4-1.7-2.1-2.9-2.7-4.5c-0.2-0.5-0.4-1.1-0.5-1.6c0.7,1.3,2.5,2,2.9,3.4c0.2,0.4,0.2,0.8,0.3,1.2c0,0,0.1,0,0.1,0
				c-0.2-1.5-0.1-3.1,0.1-4.5c0-0.8-0.1-1.6-0.5-2.2C238.9,326.5,239.1,326.8,239.3,327.1z"/>
			<path class="st2" d="M238.5,326.8c0.3,1.3-0.1,2.6,0.1,4l0,0c-0.7-1.4-2.3-2.1-3.3-3.2c-0.6-0.7-0.9-1.5-1-2.4
				c0.6,1.5,2.2,1.8,3.2,3c0.3,0.3,0.4,0.7,0.6,1l0,0c-0.5-1.2-0.7-2.5-1.1-3.7c-0.2-0.5-0.6-1.1-1.1-1.4
				C237.1,324.3,238.2,325.6,238.5,326.8z"/>
			<path class="st2" d="M235.2,323.7c0.9,0.8,1.4,1.9,1.6,3l0.2,0.4c-1.4-1-2.6-2.3-3.4-3.7l-1.1-1.1
				C233.4,322.8,234.4,323,235.2,323.7z"/>
			<path class="st2" d="M217.5,322.7c1.8-0.9,3.7-1.3,5.8-1.4c4.8,0,9.4,2.8,11.4,7.3c1.3,2.5,1.7,6.1,0.8,8.9
				c-0.9,3.4-3.7,6.8-7.1,8.2c-3.7,1.8-9.1,1.4-12.4-1c-4.6-3.2-6.5-8.7-5.1-14.1C211.8,327.4,214.4,324.2,217.5,322.7z"/>
			<path class="st2" d="M213.8,322.6c-0.9,0.8-1.6,1.9-2.3,2.8c-0.6,0.8-1.4,1.3-2.1,1.9c0.4-0.8,0.4-1.7,0.9-2.5
				C211.1,323.5,212.6,323.1,213.8,322.6z"/>
			<path class="st2" d="M208.7,325.4c0.4-0.6,1-1,1.7-1.1c-1.3,0.9-1.2,2.4-1.6,3.7c-0.1,0.5-0.3,0.9-0.5,1.4l0,0
				c0.2-0.6,0.6-1.1,1-1.5c0.9-0.8,2.2-1.3,2.7-2.6c0,1.7-1.4,3-2.8,4c-0.6,0.5-1.1,1-1.4,1.7c0-0.4,0.1-0.9,0-1.3
				C207.8,328.2,207.7,326.5,208.7,325.4z"/>
			<path class="st2" d="M206.2,330.5c0-1.5,0.6-2.7,1.5-3.8c0,0,0,0,0.1,0c-1,1.5-0.2,3.3-0.2,5l-0.1,1.7c0,0,0,0.1,0.1,0
				c0.1-0.2,0.1-0.4,0.1-0.6c0.2-1.4,1.4-2.4,2.5-3.3c0.2-0.2,0.4-0.5,0.5-0.8c-0.1,0.7-0.3,1.4-0.6,2c-0.8,1.6-2.3,2.9-2.6,4.7
				C207.2,333.6,206.1,332.3,206.2,330.5z"/>
			<path class="st2" d="M205.4,332.6c0.1-0.5,0.2-1,0.4-1.4c-0.4,2,0.9,3.4,1.4,5.1c0.2,0.6,0.2,1.3,0.5,1.9c0,0,0,0,0.1,0
				c-0.7-1.8,0.3-3.5,1.2-5c0.2-0.4,0.4-0.8,0.5-1.3c0.1,0.8-0.1,1.8-0.2,2.6c-0.2,1.1-0.6,2.1-0.9,3.2c-0.2,0.7-0.1,1.4,0,2.1
				l-0.1-0.1c-0.7-1.3-2.1-2.3-2.5-3.7C205.4,335.1,205.2,333.8,205.4,332.6z"/>
			<path class="st2" d="M205.4,336.5c0.2,2.1,2.4,3.2,3.5,5c0.2,0.4,0.5,0.7,0.8,1c-0.1-0.2-0.3-0.4-0.3-0.6
				c-0.4-0.7-0.5-1.6-0.4-2.5c0.1-1.1,0.6-2.1,0.4-3.2c0.9,2,0.6,4.5,1.2,6.6c0.1,0.5,0.4,0.9,0.6,1.3c-1.9-1.3-4.5-2.5-5.3-4.9
				C205.3,338.4,205.3,337.4,205.4,336.5z"/>
			<path class="st2" d="M206.5,341.3c1.1,2.4,3.7,2.6,5.5,4c0.3,0.3,0.7,0.5,1,0.7l0,0c-0.4-0.4-0.9-0.8-1.2-1.3
				c-1-1.4-0.7-3.5-1.4-5c0.7,0.8,1.3,1.7,1.8,2.7c0.6,1.6,0.9,3.3,2.3,4.5c-1.6-0.5-3.4-0.4-4.8-1.4
				C208.2,344.7,206.8,343.1,206.5,341.3z"/>
			<path class="st2" d="M209.2,345.8c1.7,1.9,4.5,1.3,6.7,1.8c0.3,0,0.6,0.2,0.9,0.1c-0.3-0.2-0.6-0.2-0.9-0.3c-1.8-0.6-2-2.5-3-3.8
				c1.2,0.8,2.3,1.9,3.4,3c0.8,0.7,1.8,1,2.8,1.3c-0.2,0.1-0.6,0.1-0.8,0.1c-1.8,0.5-3.9,1.2-5.9,0.5
				C211.2,348,209.9,347,209.2,345.8z"/>
			<path class="st2" d="M232.2,350.2c-1.9,0.7-3.9,0-5.4-1.2c-0.6-0.4-1.1-0.9-1.9-0.9c-0.3,0-0.6,0-0.8,0.1c1.4,0.7,2.8,1.6,4,2.8
				c-0.2,0.2-0.5,0.5-0.7,0.7c-1.2-1.3-2.5-2.5-4-3.2c-0.3,0-0.6,0.2-0.8,0.3c-1.2,0.8-2.4,1.7-3.3,2.9l-0.8-0.6
				c1.2-1.2,2.6-2.2,4-2.9c-1.4-0.5-2.4,0.8-3.5,1.4c-1.3,0.9-3.1,1.3-4.7,0.7c-0.8-0.3-1.6-0.8-2.2-1.5c1.2,0.8,3,0.9,4.4,0.4
				c1.9-0.8,3.8-1.8,6-1.3c0.4,0,0.7,0.4,1,0.1c1.7-0.4,3.5-0.1,5,0.6l1.5,0.6c1.4,0.5,3.2,0.4,4.3-0.5
				C233.9,349.4,233,349.9,232.2,350.2z"/>
			<path class="st2" d="M234.2,348.3c-2.1,0.8-4.3-0.2-6.3-0.5l-0.4-0.1v0c1-0.2,1.9-0.5,2.7-1.2c1.1-1.1,2.2-2.2,3.4-3.1
				c-0.9,1.2-1,2.9-2.6,3.7c-0.4,0.3-0.9,0.3-1.3,0.5c0.6,0,1.1-0.2,1.7-0.2c2.1-0.3,4.5,0,6-1.8
				C236.8,346.8,235.5,347.8,234.2,348.3z"/>
			<path class="st2" d="M235.4,346.1c-1.1,0.3-2.3,0.4-3.3,0.7c1.8-1.5,1.7-3.9,2.9-5.7c0.4-0.5,0.7-1.1,1.1-1.5
				c-0.7,1.5-0.4,3.4-1.3,4.8c-0.3,0.6-0.8,1.1-1.3,1.6c0.2,0,0.3-0.2,0.5-0.2c1.4-1.4,3.1-1.7,4.6-2.8c0.6-0.5,1.1-1.1,1.4-1.8
				C239.8,343.3,237.5,345.4,235.4,346.1z"/>
			<path class="st2" d="M238.1,342.3c-0.8,0.6-1.7,1.1-2.5,1.7v-0.1c1.2-2.1,0.6-4.9,1.4-7.2l0.3-0.8c-0.2,1.4,0.5,2.6,0.4,4
				c0,0.9-0.3,1.6-0.8,2.3h0.1c0.6-0.8,1.1-1.6,1.8-2.4c1.1-1.1,2.2-2.2,2.4-3.6C241.5,338.7,240.2,340.9,238.1,342.3z"/>
			<path d="M228.6,342.1l0.1-0.1c0.4-0.3,0.8-0.6,1.1-0.9h0c-0.1,0-0.2,0.1-0.3,0c-0.2-0.1-0.2-0.2-0.2-0.4l-0.8-0.8l0-0.1
				c-0.1,0.2-0.2,0.2-0.3,0.4c0,0.1,0,0.3,0.1,0.3c0.3,0.1,0.6,0.2,0.6,0.5c-0.1,0.3-0.6,0.5-0.3,0.8
				C228.8,341.9,228.5,342,228.6,342.1z"/>
			<path d="M224,331.8c0.1,0.1,0.2-0.1,0.4-0.1c0.2,0,0.3,0.2,0.4,0.3c0.1,0.1,0.2,0,0.3-0.1c0.1-0.5,0.7-0.5,0.9-0.9l-0.1,0
				c-0.1-0.1-0.2,0-0.2-0.2c0.1-0.1,0.2-0.3,0.4-0.3c-0.6-0.4-1.2-0.7-1.8-0.8c-0.3-0.1-0.5-0.1-0.8-0.2c0.1,0.4,0,0.9,0.1,1.3
				l0.5,0.2c0.1-0.2,0.4-0.3,0.6-0.5c0.1-0.1,0.2,0,0.2,0.1c0,0.2,0,0.3-0.1,0.5C224.6,331.5,224.2,331.5,224,331.8z"/>
			<path d="M230.8,336c-0.3,0.9-0.6,1.7-1.1,2.4c-0.2,0.3-0.4,0.6-0.7,0.8l0.6,0.5c0,0,0-0.1,0-0.1c0-0.1,0-0.2,0.1-0.2
				c0.3,0,0.3,0.3,0.4,0.4c0,0.2,0.2,0.4,0.1,0.7c1.6-1.7,2.4-3.8,2.5-6.1l0.1-0.1c-0.6,0.1-1.2,0-1.8,0l-0.1,0
				c0,0.4-0.1,0.8-0.1,1.1l0.2,0.2c0.1,0.1,0,0.2,0,0.3C231,336.1,230.9,336.1,230.8,336z"/>
			<path d="M229.3,330.4c-0.2-0.4-0.6-0.8-0.8-1.1l0,0.1c-0.6,0.6-1.2,1.2-1.8,1.9c0,0.1,0.1,0.1,0.2,0.2c0-0.2,0.1-0.3,0.1-0.4
				c0.1-0.2,0.4-0.1,0.6,0c0.3-0.1,0.6,0.1,0.9,0.1c0.2,0.1,0.2,0.4,0.5,0.5c0.1,0.1,0,0.2-0.1,0.2c0.1,0.5,0.3-0.1,0.5,0
				c0.1,0,0.2,0,0.3,0.1c0,0.2,0.3,0.2,0.3,0.3c0,0.1-0.1,0.1-0.2,0.2c0.1,0.2-0.2,0.3-0.1,0.5c0.4,0.1,0.4-0.4,0.6-0.5
				c-0.1-0.3-0.2-0.7-0.4-1c-0.2,0-0.3-0.3-0.5-0.3C228.8,330.9,229.3,330.7,229.3,330.4z"/>
			<path d="M223.6,343.7c0.5-0.2,1-0.1,1.5-0.2c-0.1,0-0.2-0.1-0.3-0.2c-0.3,0-0.4-0.3-0.5-0.6c0-0.2,0.1-0.3,0.1-0.5
				c-0.1-0.3-0.5-0.1-0.8-0.2c-0.1-0.1-0.1-0.1-0.2-0.1l0.1,0.1C223.6,342.6,223.6,343.2,223.6,343.7z"/>
			<path d="M224,338.7c0.2,0,0,0.2,0.2,0.3c0.3-0.1,0.5,0.2,0.7,0c0-0.3,0.3-0.3,0.5-0.3c0.3-0.2,0.6-0.4,0.6-0.8l0-0.1
				c-0.2,0-0.3,0.2-0.4,0.3c-0.2,0.1-0.3-0.2-0.4-0.1c0,0,0,0,0.1,0.1c0,0,0,0.1,0,0.2c-0.2,0.2-0.3-0.1-0.5-0.1v0.1
				c0,0,0,0.1-0.1,0.1c-0.1-0.2-0.4-0.1-0.5-0.3c-0.1,0-0.2,0-0.2,0.1c0,0.1-0.2,0-0.2,0.2c-0.2,0.1-0.2,0.2-0.3,0.3
				c-0.2,0-0.3,0.2-0.5,0.2c0,0,0,0.1,0.1,0.1c0.1,0.1,0.2,0.1,0.4,0C223.4,338.6,223.7,338.8,224,338.7z"/>
			<path d="M225.9,336.3c0,0.1,0,0.2,0.1,0.3c0.2,0,0.1,0.3,0.4,0.3c0.1,0,0-0.1,0-0.2c0-0.2-0.2-0.2-0.3-0.3c0,0,0-0.1,0-0.1
				C226,336.1,225.9,336.2,225.9,336.3z"/>
			<path d="M225.6,327.5c-0.6-0.2-1.3-0.3-2-0.4l0.1,0.1l0,1.7l0.2,0c1.1,0.1,2,0.5,2.9,1.2l0,0.1c0.3-0.4,0.7-0.7,1.1-1.1l0.3-0.2
				l-0.2-0.1C227.2,328.2,226.4,327.8,225.6,327.5z"/>
			<path d="M213.8,334.6l0.1,1.2c0.1,0.5,0.3,0.9,0.2,1.3c0.1-0.1,0-0.3,0.2-0.3c-0.1-0.1,0.1-0.3,0-0.4c0.1-0.3,0.1-0.6,0.4-0.8
				c0.3,0,0.3-0.4,0.7-0.5c0.2,0,0.3,0.2,0.3,0.3c-0.2-0.2-0.2-0.7-0.1-0.9l-0.1,0.1c-0.6,0-1.2,0-1.8,0L213.8,334.6z"/>
			<path d="M225.2,337.5c0.2-0.2,0.5-0.2,0.5-0.4c-0.2,0-0.3,0.1-0.5,0.2C225.1,337.4,225.1,337.5,225.2,337.5z"/>
			<path d="M229.2,334.4l0.2,0.2c0.2,0.1,0.1,0.4,0.3,0.5c0.2,0.1,0.3,0.4,0.4,0.6c0-0.1,0-0.1,0.1-0.2c0.1-0.3,0.1-0.7,0.2-1.1
				C230,334.5,229.5,334.5,229.2,334.4z"/>
			<path d="M226.6,338.8c0.2,0.1,0.4,0.3,0.6,0.2c0.2-0.1,0.6,0.1,0.8-0.2c0-0.2,0.2-0.4,0.3-0.6l0.1,0c0.1,0.1,0.1,0.3,0.2,0.5
				c0.2-0.2,0.3-0.4,0.5-0.6c0.4-0.6,0.8-1.3,0.9-2c-0.2,0-0.3,0-0.5,0.1c-0.2,0-0.4,0.1-0.6,0c-0.1,0-0.1,0-0.1,0.1
				c-0.1,0.1-0.1,0.2-0.3,0.2c-0.1-0.1-0.1-0.2-0.2-0.3c0,0.1,0,0.1,0,0.2c-0.1,0.1-0.2,0.3-0.3,0.4c-0.1,0.1-0.3,0.1-0.5,0.2
				c0,0.3-0.4,0.2-0.6,0.3c0,0,0,0,0.1,0.1c0.1,0,0.2,0,0.3-0.1c0.3,0.1,0.2-0.3,0.4-0.4c0.1,0,0.3-0.1,0.4,0
				c0.1,0.2,0.2,0.4,0.2,0.6c-0.2,0.2-0.1,0.4-0.2,0.6c0,0.2-0.2,0.3-0.2,0.5c-0.1,0.1-0.2,0.1-0.4,0.1c-0.5-0.2-1-0.3-1.6-0.4
				c-0.1,0-0.1,0.1-0.1,0.1C226.1,338.7,226.4,338.7,226.6,338.8z"/>
			<path d="M222.8,344.4L222.8,344.4l-0.1,0c-2.5-0.2-4.7-1-6.5-2.8l0,0.1l-1.3,1.3c2,1.7,4.2,2.8,6.8,3.2c0.4,0.1,0.9,0,1.3,0.2
				l-0.1-0.2V344.4z"/>
			<path d="M220.3,337.5c0.7,0.6,1.4,0.9,2.3,1.1c0-0.2,0-0.4,0.1-0.5c0.1-0.1,0.2-0.1,0.4-0.1c0.1,0,0.1-0.1,0.1-0.2
				c-0.2,0-0.1-0.2-0.2-0.4c0-0.1,0.1-0.1,0.1-0.1c-0.1-0.1,0.1-0.2,0-0.3c0,0,0.1-0.1,0.1-0.1c-0.4,0.2-0.8-0.1-1.1-0.2
				c-0.2-0.1-0.4-0.2-0.4-0.4C221.2,336.7,220.7,337.1,220.3,337.5z"/>
			<path d="M219.6,335.5c-0.1,0-0.1,0-0.1,0c0,0-0.1,0-0.1,0c0-0.4-0.4-0.1-0.6-0.3c0.2,0.3,0.3,0.7,0.5,1c0.1,0.3,0.4,0.5,0.5,0.8
				c0.1-0.2,0.4-0.4,0.5-0.6c0-0.1,0-0.2-0.1-0.2c-0.1-0.1,0-0.3-0.1-0.4c-0.2,0.1,0.1,0.2,0,0.3c-0.1,0-0.1,0-0.2-0.1
				c-0.1,0-0.3-0.2-0.3-0.3C219.8,335.6,219.7,335.6,219.6,335.5z"/>
			<path d="M220.9,335.7c0,0.2-0.1,0.3-0.3,0.4l0,0c0.2-0.1,0.3-0.3,0.5-0.3L220.9,335.7z"/>
			<path d="M222.7,341.9c-1.5-0.1-2.9-0.6-4.1-1.5c0,0.2,0.2,0.3,0.2,0.4c-0.1,0.2-0.3,0.2-0.5,0.2c-0.4-0.1-0.6,0.2-1,0.3
				c-0.3,0.1-0.4-0.3-0.7-0.3c1.8,1.5,3.8,2.5,6.1,2.6l0.2,0.1l-0.1-0.2v-1.7L222.7,341.9z"/>
			<path d="M215.8,341.1c-0.2-0.2-0.4-0.4-0.6-0.6c-0.2-0.1-0.4-0.2-0.5-0.4c-0.1-0.1,0-0.2-0.1-0.2l-0.1,0.1
				c-0.2,0.1-0.3-0.1-0.5-0.2c-0.2-0.1-0.1-0.5-0.4-0.4c-0.1,0-0.1-0.1-0.2-0.2c-0.2,0-0.3-0.2-0.4-0.4c0,0.1,0,0.1-0.1,0.2
				c-0.3,0.1-0.3-0.3-0.5-0.4c0,0-0.1,0.1-0.1,0.1c-0.1-0.1-0.3-0.3-0.3-0.5c-0.2-0.2-0.1-0.6-0.1-0.9c0-0.1,0.1-0.1,0.1-0.2
				c0.1-0.1,0.2-0.1,0.3-0.2c0.1,0,0.1,0.1,0.1,0.1c0.1-0.1,0.3,0,0.2-0.2c0.1-0.1,0.3-0.1,0.4-0.2c0.1,0.1,0.2,0.3,0.3,0.4
				l-0.1-0.1c-0.2-0.6-0.3-1.3-0.3-1.9c0,0-0.1-0.1,0-0.1l0,0c0-0.1,0-0.3,0-0.4l-0.2,0.1l-1.8,0c0.1,2,0.6,3.9,1.6,5.6
				c0.4,0.8,1.1,1.6,1.7,2.4l1.3-1.3L215.8,341.1z"/>
			<path d="M217.9,326.2c-0.4,0.3-0.8,0.6-1.2,0.9c0.5,0.3,0.9,0.8,1.3,1.2l0,0.1c1.1-1,2.4-1.6,3.8-1.9c0.3,0,0.7-0.1,1-0.1
				c0-0.6-0.1-1.2,0-1.8C221,324.7,219.3,325.3,217.9,326.2z"/>
			<path d="M216.4,332.9c-0.1,0.3,0,0.7-0.2,0.9c0.2-0.1,0.5-0.1,0.8,0c-0.1-0.1,0-0.3-0.1-0.4c0-0.2,0-0.4,0.1-0.5
				c0-0.3,0.3-0.4,0.3-0.6c0.1-0.3,0.4-0.1,0.5-0.2c0.1-0.1,0-0.1,0-0.2c0.1-0.2,0.3-0.2,0.5-0.3c0.1-0.2,0.2-0.3,0.4-0.4
				c0.4,0,0.4-0.5,0.7-0.5c-0.5-0.4-1-0.9-1.4-1.3C217.2,330.4,216.6,331.6,216.4,332.9z"/>
			<path d="M216.6,335.5c0-0.1-0.2-0.1-0.1-0.3c0.1-0.2,0-0.6,0.3-0.7c-0.2,0-0.4,0.1-0.6-0.1l0.1,0.2c0,0.4,0.2,0.8,0.1,1.2
				C216.4,335.7,216.4,335.5,216.6,335.5z"/>
			<path d="M218.4,340L218.4,340L218.4,340L218.4,340z"/>
			<path d="M216.2,327.7l-0.7,0.9c-1.1,1.5-1.7,3.3-1.8,5.3l1.7,0l0.2,0.1c-0.1,0-0.1-0.1-0.1-0.2c0.1-1.8,0.8-3.4,2-4.8
				c-0.5-0.4-0.9-0.9-1.3-1.3L216.2,327.7z"/>
			<path d="M221.6,339.5c0.1-0.1,0.3-0.2,0.5-0.3c-0.6,0.1-1.1-0.3-1.5-0.5c-0.3-0.2-0.6-0.4-0.8-0.7c-0.4,0.5-0.8,0.9-1.3,1.3
				c0.2,0,0.3,0.2,0.5,0.3c1,0.8,2.1,1.2,3.2,1.4l-0.3-0.1c-0.2-0.3-0.6-0.6-0.6-0.9C221.6,340,221.5,339.7,221.6,339.5z"/>
			<path d="M217.3,334.5l0,0.3c-0.1,0.2-0.3,0.1-0.4,0.2c-0.1,0.1,0,0.3,0.1,0.4c-0.2,0.4,0.4,0.5,0.4,0.9c0.2,0.2,0,0.6,0.2,0.8
				c0.1,0.4-0.1,1,0.3,1.3l0.1,0.4c0.1,0.3-0.3,0.2-0.3,0.4c0.1,0,0.1,0.1,0.1,0.1v0c0.5-0.6,1.1-1.2,1.6-1.7l-0.2-0.2
				c-0.5-0.7-0.8-1.4-1-2.2l-0.2-0.1c0,0.2-0.1,0.4-0.1,0.6l-0.1,0.1c-0.1,0-0.2-0.1-0.3-0.2c0-0.1-0.1-0.2,0-0.2c0.1,0,0.1,0,0.2,0
				c0.1-0.1,0-0.2,0.1-0.3c0-0.2-0.1-0.3,0-0.4c0.1,0,0.2,0.1,0.3,0.2c0.1,0,0.2-0.1,0.3-0.1c0-0.1,0.2-0.3,0-0.3
				c0.1-0.2,0-0.5,0-0.7c-0.1-0.2-0.3-0.2-0.5-0.2c-0.5,0.2,0.1,0.6,0,0.9C217.6,334.6,217.4,334.4,217.3,334.5z"/>
			<path d="M233.5,334.4l-0.1-0.1L233.5,334.4c-0.1,2.2-0.8,4.1-2.1,5.7c-0.2,0.3-0.5,0.6-0.7,0.8c0.5,0.4,1,1,1.4,1.4l0-0.1
				c1.9-2.2,3-4.8,3.2-7.8l0.1-0.2l-0.1,0L233.5,334.4z"/>
			<path d="M216.3,326.7L216.3,326.7c1.9-1.8,4-2.7,6.5-2.8l-0.1-0.2l0-1.5l0.1-0.2c-2.6,0.1-4.8,1-6.8,2.4
				c-0.4,0.3-0.7,0.7-1.1,0.9h0.1C215.4,325.7,215.9,326.2,216.3,326.7z"/>
			<path d="M222.8,327.1c-1.6,0.1-3,0.8-4.2,1.8c0.5,0.3,0.9,0.9,1.4,1.3c0,0,0.1-0.1,0.1-0.1c0.6-0.4,1.2-0.8,1.9-1
				c0.3,0,0.6-0.2,1-0.1c-0.1-0.6-0.1-1.3,0-1.9L222.8,327.1z"/>
			<path d="M222.8,329.6c-1,0.1-2,0.5-2.7,1.3h0.1c0.2,0.2,0.4,0.1,0.5,0.3c0.1,0.1-0.1,0.1-0.1,0.2c0,0,0.1,0,0.1,0.1
				c0.1,0,0.1-0.1,0.1-0.1c0.2-0.2,0.2,0.2,0.3,0.2c0.1-0.1,0.3-0.1,0.3,0c0.1-0.1,0.3,0,0.4-0.2c0.2-0.2,0.1-0.5,0.4-0.7
				c0.1,0.1,0,0.2,0,0.2c0.2,0.1,0.4-0.2,0.6,0C222.8,330.6,222.8,330.1,222.8,329.6z"/>
			<path d="M222.9,332.5c-0.2,0.3-0.5,0.4-0.8,0.5c-0.1,0.1-0.1,0.3-0.3,0.3c-0.1,0.1-0.3,0.2-0.2,0.4c-0.1,0.2-0.1,0.5-0.1,0.7
				c-0.4,0.2-0.3-0.3-0.5-0.4l-0.1,0.1c-0.1,0-0.1,0-0.2-0.1c-0.1,0-0.2,0-0.2,0c-0.1,0.1-0.2,0.3-0.2,0.4c0,0.1-0.2,0.1-0.2,0.2
				c0.2,0,0.4,0,0.6-0.1c0.1,0,0.3-0.1,0.4-0.1c0,0,0.1,0.1,0.1,0.2h0.1c0.1-0.1,0.1-0.2,0.1-0.3c0-0.1,0.2-0.1,0.2-0.2
				c0.1,0,0,0.1,0,0.2c0.3,0.1-0.1,0.3-0.1,0.5c-0.1,0.1,0,0.4-0.2,0.4c0,0-0.1-0.1-0.1-0.1h0c0,0.1,0.1,0.2,0.2,0.3
				c0.2-0.1,0.2-0.4,0.4-0.4c0.1-0.1-0.1-0.4,0.1-0.5c0.3,0,0.7-0.1,0.9,0.1c0,0.1-0.1,0.2,0,0.3c-0.1,0.1-0.1,0.3-0.2,0.4
				c0,0.1,0,0.2-0.1,0.2c-0.1,0.4-0.5,0.2-0.8,0.3c0.4,0.3,0.9,0.4,1.4,0.4c0.3,0,0.2-0.3,0.3-0.5c0.1-0.4,0.5-0.1,0.7-0.3
				c0.1-0.2,0.2-0.4,0.2-0.6c-0.2-0.1-0.2-0.3-0.2-0.5c-0.1-0.1-0.1-0.4-0.3-0.4c0-0.1,0-0.1,0-0.2c0-0.1,0.1-0.2,0.2-0.3
				c-0.1-0.1-0.1-0.3-0.1-0.4c-0.2,0.1-0.3-0.3-0.5-0.3c0-0.1-0.2-0.2-0.3-0.2c-0.3,0.1-0.4-0.2-0.6-0.3c0-0.1-0.1-0.2,0-0.2
				c0.1-0.1,0.3,0,0.4,0l-0.1-0.1c-0.1-0.1-0.3,0-0.5,0C222.9,332.1,222.8,332.3,222.9,332.5z"/>
			<path d="M213.1,333.8l0-0.2c0.1-2,0.8-3.8,1.9-5.4c0.3-0.3,0.5-0.7,0.9-1c-0.4-0.4-0.8-0.8-1.3-1.3l0-0.2c-1.8,2-2.9,4.3-3.3,6.9
				c-0.1,0.4,0,0.8-0.1,1.2C211.8,333.8,212.5,333.8,213.1,333.8z"/>
			<path d="M230.3,341.4c-0.2,0.3-0.6,0.6-0.9,0.8c-0.4,0.4-1.1,0.5-1.3,1.1c-0.2,0.2-0.3,0.5-0.6,0.6c-0.1,0.3-0.4,0.3-0.6,0.5
				c-0.5,0.5-0.9-0.3-1.4-0.4l-1,0.2c-0.3,0-0.7,0.1-1,0c0,0.6,0,1.3,0,2l0.1-0.1c3.1-0.1,5.7-1.3,8-3.4l-1.3-1.3L230.3,341.4z"/>
			<path d="M223.6,323.7c0-0.1,0-0.1,0.1-0.1c0.1-0.1,0.2,0,0.2,0.1c0,0.1,0,0.2,0,0.3c0.1,0,0.1,0,0.2,0c1.5,0.1,2.8,0.5,4,1.2v0
				c0.2-0.1,0.6-0.3,0.8-0.1c0.3-0.1,0.4,0.3,0.6,0.3c0.3,0.2,0.6,0.5,0.7,0.9c0.1,0.1,0.2,0.2,0.3,0.3c0.2-0.4,0.6-0.7,1-1.1
				l0.2-0.1c-1.9-1.8-4.2-2.8-6.7-3.2c-0.4-0.1-0.9,0-1.2-0.2C223.6,322.4,223.6,323.1,223.6,323.7z"/>
			<path d="M223.6,326.4c0.2-0.1,0.5,0,0.7,0c1.2,0.2,2.4,0.6,3.4,1.4c-0.1-0.1-0.3-0.3-0.3-0.5c0,0,0,0,0.1,0
				c0-0.2-0.2-0.3-0.2-0.5c0,0,0.1-0.1,0.1-0.1c0.2,0.2,0.4,0.4,0.6,0.7c0.1-0.1,0.3,0,0.4,0.1c0.2,0.1,0.1,0.3,0.2,0.5
				c0,0.4,0.5,0.6,0.5,1c0,0.1,0.1,0,0.2,0.1l0.4,0.5c-0.1,0.1,0,0.2,0.1,0.3c0.2,0.1,0.3-0.1,0.4-0.1c0.2,0.1,0,0.3,0,0.5
				c0.1,0,0.2-0.1,0.3,0c0,0.1-0.1,0.2-0.2,0.3c0,0.1,0.1,0.1,0.2,0.1c0.1,0,0.2,0.1,0.2,0.2c0.3,0.3-0.1,0.7,0.1,1
				c0.1,0.2,0,0.4-0.2,0.6c0,0.3-0.2,0.4-0.3,0.7l-0.3,0.1c-0.2,0.2,0.1,0.4,0,0.5l0.7,0l-0.1-0.1c-0.1-0.3-0.1-0.7,0.1-0.9
				c0.1-0.2,0.1-0.5,0.3-0.7c0,0,0.1-0.1,0.2,0c0,0.2,0,0.5-0.1,0.7c0.2,0.3,0.2,0.7,0.2,1c0.6,0,1.2,0,1.9,0l-0.1-0.1
				c-0.1-1.2-0.3-2.3-0.8-3.3c-0.1,0-0.2,0.1-0.4,0.1c-0.1,0-0.1-0.1-0.1-0.1c-0.3-0.2-0.4-0.6-0.7-0.8c-0.3,0-0.5-0.3-0.8-0.4
				c-0.3-0.1-0.1-0.5-0.5-0.4c-0.2-0.1-0.4-0.2-0.4-0.4c0-0.3-0.1-0.7-0.4-0.9c-0.2-0.1-0.3,0.2-0.6,0.2c-0.1-0.1-0.1-0.2-0.1-0.3
				c0-0.1-0.2-0.2-0.1-0.3c0.3-0.4-0.4-0.4-0.2-0.8c0-0.3-0.3-0.4-0.5-0.6c-1-0.4-2-0.7-3.1-0.9c-0.3,0-0.5,0-0.8-0.1l0.1,0.1
				C223.6,325.2,223.6,325.9,223.6,326.4z"/>
			<path d="M230.5,327.1c0.1,0,0.2,0.2,0.3,0.3c0.5,0.2,0.6,0.7,1,1c0.2,0.5,0.8,0.8,0.8,1.4c0.6,1.2,0.9,2.5,1,3.9l0,0.1
				c0.1,0,0.1,0,0.2-0.1l1.8,0c-0.1-0.2-0.1-0.4-0.1-0.7c-0.2-2.8-1.4-5.2-3.3-7.4c-0.4,0.5-0.8,0.9-1.3,1.4L230.5,327.1z"/>
			<path class="st2" d="M223.8,323.4c0.1-0.1,0.2-0.1,0.3,0l0.9-0.4c0.4,0,0.8,0.1,1,0.4v0c-0.2,0.2-0.5,0.3-0.8,0.2
				c-0.4,0.1-1,0.3-1.3-0.1C223.8,323.5,223.8,323.4,223.8,323.4z"/>
			<path class="st2" d="M229.3,324.5c0.1,0,0.2,0.1,0.3,0.2c0,0.1,0.1,0.3,0,0.4c-0.3,0.1-0.4-0.3-0.6-0.4c0-0.1-0.1-0.1,0-0.2
				C229,324.4,229.1,324.7,229.3,324.5z"/>
		</g>
	</g>
	<g>
		<path class="st3" d="M78.8,34.4c0,0,13.9-31-6.4-33.8c0,0-19.6-2.5-7.7,33.5c0,0-18.4-15.6-22.3-3.2c0,0-3,16.3,21,12
			c0,0,2.1,10.6,11.2,8.9c0,0,4.9-2.6,1.9-8.6c0,0,21.2,1.8,20.8-7.9C96.9,25.5,81.7,32,78.8,34.4z"/>
		<path class="st3" d="M64.5,33.8C56.1,21.8,56,8.1,56,8.1"/>
		<path class="st3" d="M52,16.1c0,0,3.4,11,12.5,17.6"/>
		<path d="M56.2,9.2c0.6-0.1,0.9-0.8,0.8-1.4c-0.2-0.6-0.8-1-1.4-0.9c-0.6,0.1-0.9,0.8-0.8,1.4C55,9,55.6,9.4,56.2,9.2z"/>
		<path d="M52.2,17c0.6-0.1,0.9-0.8,0.8-1.4c-0.2-0.6-0.8-1-1.4-0.9c-0.6,0.1-0.9,0.8-0.8,1.4C51,16.7,51.6,17.1,52.2,17z"/>
	</g>
	<g>
		<path class="st1" d="M529.6,232.4L529.6,232.4c45.1,0,81.7,36.6,81.7,81.7v0.9c0,45.1-36.6,81.7-81.7,81.7h0
			c-45.1,0-81.7-36.6-81.7-81.7v-0.9C447.9,269,484.5,232.4,529.6,232.4z"/>
		<g>
			<path class="st4" d="M540.2,279.6h0.8c0.7,0,1.3-0.1,1.6-0.4c0.4-0.3,0.5-0.7,0.5-1.3c0-0.6-0.2-1-0.5-1.2
				c-0.3-0.3-0.8-0.4-1.4-0.4h-1.1V279.6z M545.5,277.9c0,1.2-0.4,2.1-1.1,2.7c-0.7,0.6-1.8,1-3.2,1h-1v4h-2.4v-11.1h3.6
				c1.3,0,2.4,0.3,3.1,0.9C545.1,275.9,545.5,276.7,545.5,277.9z M532,285.5h-2.3v-11.1h6.4v1.9H532v2.9h3.8v1.9H532V285.5z
				 M525.6,285.5h-2.7l-1.5-5.8c-0.1-0.2-0.2-0.6-0.3-1.3c-0.1-0.4-0.2-0.9-0.2-1.3c0,0.3-0.1,0.7-0.2,1.3c-0.1,0.6-0.2,1-0.3,1.3
				l-1.5,5.8h-2.7l-2.8-11.1h2.3l1.4,6.1c0.2,1.1,0.4,2.1,0.5,2.9c0-0.3,0.1-0.7,0.2-1.3c0.1-0.6,0.2-1.1,0.3-1.4l1.6-6.2h2.2
				l1.6,6.2c0.2,0.9,0.4,1.8,0.5,2.8c0.1-0.4,0.1-0.9,0.2-1.5c0.1-0.6,0.2-1.1,0.3-1.4l1.4-6.1h2.3L525.6,285.5z M519.8,324.3
				c-4.3,0-7.1,1-7.9,1.3c0,0-0.1,0,0-0.1c4.8-4.9,10.3-4.7,11.7-4.7h15.8c0.8,0,1.4,0.8,1.4,1.7c0,0.9-0.6,1.7-1.4,1.7H519.8z
				 M523.3,328.6c-4.7,0-6-2.6-13.1-0.9c0,0-0.1-0.1,0-0.1c3.9-2.7,8.2-2.5,9.9-2.5h19.2c0.8,0,1.4,0.8,1.4,1.7s-0.6,1.7-1.4,1.7
				C539.4,328.6,527,328.6,523.3,328.6z M523.7,332.9c-4.8,0-5.2-3.5-12.3-4.3c0,0-0.1-0.1,0-0.1c5.8-1.5,8,1,11.4,1h16.6
				c0.8,0,1.4,0.8,1.4,1.7c0,0.9-0.6,1.7-1.4,1.7H523.7z M522.6,319.9c-3.9,0-7,1.7-7.8,2.1c0,0-0.1,0-0.1-0.1
				c0.6-0.9,4-5.4,9.8-5.4h14.8c0.8,0,1.4,0.8,1.4,1.7c0,0.9-0.6,1.7-1.4,1.7H522.6z M543.8,310.5c-0.2-0.2-0.4-0.3-0.6-0.3
				c-0.2,0-0.3,0-0.5,0.1c0.1-0.1,0.1-0.3,0.1-0.5c0-0.2,0-0.5-0.1-0.7c-0.5-1,0.9-3.1,0.7-3.2c-0.2-0.1-0.9,2.2-1.7,3.1
				c-0.2,0.2-0.3,0.4-0.3,0.7c0,0.2,0,0.5,0.1,0.7c0.1,0.2,0.3,0.3,0.5,0.3c0.1,0,0.1,0,0.2,0c0,0,0,0.1,0,0.1c0,0.1,0,0.2,0,0.3
				c0,0.1,0.1,0.2,0.2,0.3c0.2,0.2,0.4,0.3,0.6,0.3c0.2,0,0.5,0,0.7-0.1c1-0.6,3.1-1.1,3.1-1.3C546.7,310.1,544.7,311.3,543.8,310.5
				z M545.4,309c-0.2-0.2-0.4-0.3-0.6-0.3c-0.1,0-0.3,0-0.4,0.1c0-0.1,0-0.1,0.1-0.2c0-0.2,0-0.5-0.1-0.7c-0.5-1,0.8-2.8,0.7-2.9
				c-0.2-0.1-0.9,1.9-1.7,2.7c-0.2,0.2-0.3,0.4-0.3,0.6c0,0.2,0,0.5,0.1,0.7c0.1,0.2,0.3,0.3,0.5,0.3c0.1,0,0.2,0,0.3,0c0,0,0,0,0,0
				c0,0.1,0,0.2,0,0.3c0,0.1,0.1,0.2,0.2,0.3c0.1,0.2,0.3,0.3,0.6,0.3c0.2,0,0.4,0,0.6-0.2c0.9-0.6,2.9-1,2.8-1.2
				C548.1,308.7,546.2,309.7,545.4,309z M546.7,307.6c-0.2-0.1-0.4-0.2-0.6-0.1c-0.1,0-0.2,0-0.3,0.1c0,0,0-0.1,0.1-0.1
				c0.1-0.2,0-0.4,0-0.6c-0.3-0.9,1.1-2.3,1-2.4c-0.1-0.1-1.1,1.6-1.9,2.2c-0.2,0.1-0.3,0.3-0.3,0.5c-0.1,0.2,0,0.4,0,0.6
				c0,0.1,0.1,0.2,0.1,0.2c0.1,0.1,0.1,0.1,0.2,0.1c0.1,0,0.3,0,0.4,0c0,0.1,0,0.2,0,0.2c0,0.2,0.1,0.4,0.3,0.5
				c0.2,0.1,0.4,0.2,0.6,0.2c0.2,0,0.4-0.1,0.5-0.3c0.7-0.7,2.4-1.4,2.4-1.5C549.1,306.9,547.5,308.1,546.7,307.6z M549.4,304.6
				c-0.1-0.2-1.4,1.1-2.3,1.2c-0.2,0-0.4,0.1-0.5,0.3c-0.2,0.1-0.3,0.3-0.3,0.5c0,0.1,0,0.2,0,0.2c0,0.1,0,0.2,0.1,0.2
				c0.1,0.1,0.1,0.1,0.2,0.1c0.1,0,0.2,0,0.2,0c0.2,0,0.4-0.1,0.5-0.3c0.1-0.1,0.3-0.3,0.3-0.5C547.9,305.5,549.5,304.7,549.4,304.6
				z M524.3,306.4c0,0.1-0.3,1.2-0.3,1.2c-0.1,0-0.4,0-0.5,0c-0.6-0.1-1.1-0.6-0.9-1.2c0.2-0.5,0.6-0.6,1.1-0.6c0.2,0,0.6,0,0.8,0.2
				C524.5,305.9,524.4,306.1,524.3,306.4z M523.7,309.5l-0.1,0.4c-0.4-0.2-0.6-0.8-0.4-1.2c0.1-0.3,0.5-0.4,0.7-0.4
				C523.8,308.6,523.7,309,523.7,309.5z M523.1,313.3c0,0.3-0.4,0.3-0.6,0.4c-0.7,0.2-1.4,0.1-1.6-0.7c-0.2-0.9,0.4-1.3,1.2-1.5
				c0.4-0.1,0.8,0,1,0.3c0.1,0.1,0.1,0.2,0.2,0.2C523.3,312,523.2,313,523.1,313.3z M520.9,308.9c0.5-0.1,1.1-0.3,1.5,0.2
				c0.4,0.6,0.3,1.5-0.4,1.7c-0.5,0.2-1,0.3-1.4-0.1C520.1,310.2,520.1,309,520.9,308.9z M520.4,305.9c0.6-0.1,1.2-0.4,1.6,0.2
				c0.5,0.6,0.3,1.5-0.4,1.8c-0.5,0.2-1.1,0.3-1.5-0.1C519.5,307.3,519.5,306.1,520.4,305.9z M519.8,312.3c-0.1,0.5-0.6,0.6-1,0.7
				c-0.3-0.4-1.1-1.3-1.1-1.4c0,0,0-0.1,0-0.1c0-0.1,0.2-0.2,0.3-0.3c0.3-0.2,0.9-0.3,1.2-0.2C519.7,311,520,311.7,519.8,312.3z
				 M517,309.6c-0.4-1.5,2-2.1,2.4-0.7C519.8,310.4,517.3,311,517,309.6z M516.6,306.7c-0.4-1.4,2-2.1,2.4-0.7
				C519.4,307.5,517,308.1,516.6,306.7z M516.3,303.8c-0.4-1.3,1.9-1.9,2.2-0.6C518.9,304.6,516.6,305.2,516.3,303.8z M516.1,309.3
				c-0.1,0.1-0.2,0.1-0.2,0.1l-1.1-1.2c0,0,0.4-0.3,0.5-0.3C516.2,307.4,516.9,308.8,516.1,309.3z M514,306.6
				c-0.5-1.2,1.4-2.5,2-1.2C516.6,306.6,514.6,307.9,514,306.6z M515.6,302.8c0.6,1.1-1.3,2.3-1.8,1.1
				C513.4,303,515,301.8,515.6,302.8z M514.1,300.3c0.3-0.2,0.6-0.4,0.9-0.2c0.5,0.3,0.5,1,0.1,1.4c-0.2,0.1-0.6,0.3-0.8,0.3
				C513.7,301.5,513.6,300.7,514.1,300.3z M514.1,297.9c0.2-0.2,0.5-0.3,0.8-0.2c0.5,0.2,0.5,0.9,0.1,1.2c-0.2,0.1-0.5,0.3-0.7,0.2
				C513.8,299,513.7,298.2,514.1,297.9z M515.4,294.5c0.3-0.2,0.7-0.2,0.9,0.1c0.1,0.1,0.1,0.2,0.1,0.3c0,0.1,0,0.2,0,0.3
				c0,0.1-0.1,0.2-0.1,0.3c-0.1,0.1-0.1,0.1-0.2,0.2c-0.3,0.2-0.7,0.2-0.9-0.1c-0.1-0.1-0.1-0.2-0.1-0.3c0-0.1,0-0.2,0-0.3
				c0-0.1,0.1-0.2,0.1-0.3C515.2,294.7,515.3,294.6,515.4,294.5z M515.2,297.1c-0.2-0.8,1.2-1.2,1.4-0.4
				C516.9,297.5,515.4,298,515.2,297.1z M517.5,298.6c0.3,0.9-1.2,1.4-1.5,0.5C515.6,298.2,517.2,297.7,517.5,298.6z M517.7,294.1
				c0.3-0.1,0.7-0.2,1,0c0.4,0.3,0.3,1-0.1,1.2c-0.3,0.1-0.7,0.2-1,0C517.2,295,517.2,294.3,517.7,294.1z M517.4,301.8
				c-0.4,0.1-0.9,0.3-1.2-0.1c-0.4-0.5-0.3-1.3,0.3-1.5c0.4-0.1,0.9-0.2,1.2,0.1C518.1,300.7,518,301.6,517.4,301.8z M517.4,297.1
				c-0.3-0.9,1.2-1.4,1.5-0.5C519.2,297.5,517.7,298,517.4,297.1z M519.9,298.8c0.3,1-1.4,1.6-1.7,0.6
				C517.8,298.3,519.6,297.7,519.9,298.8z M520,296c0.3-0.1,0.6-0.1,0.9,0.2c0.4,0.4,0.2,1-0.3,1.1c-0.2,0-0.6,0-0.8-0.1
				C519.4,296.9,519.4,296.2,520,296z M521.4,298.2c0.6,0,0.8,0.8,0.5,1.2c-0.2,0.2-0.6,0.3-0.9,0.2c-0.5-0.1-0.9-0.8-0.5-1.2
				C520.8,298.1,521.1,298.2,521.4,298.2z M518.8,301.6c-0.3-1.2,1.7-1.7,2-0.5C521,302.2,519,302.7,518.8,301.6z M520,303.1
				c0.6-0.1,1.1-0.2,1.5,0.4c0.4,0.6,0.1,1.5-0.6,1.6c-0.5,0.1-1,0.1-1.4-0.3C519,304.2,519.2,303.2,520,303.1z M522.8,300.4
				c0.7,0.3,0.9,1.1,0.4,1.5c-0.3,0.2-0.7,0.2-1,0.1c-0.6-0.1-1-1.1-0.5-1.5C522,300.3,522.5,300.3,522.8,300.4z M523.9,303.3
				c0.4,0.5,0.3,1.5-0.5,1.5c-0.4,0-0.9,0-1.2-0.3c-0.4-0.5-0.3-1.5,0.5-1.5C523.1,302.9,523.6,303,523.9,303.3z M526.7,293.8
				C526.7,293.8,526.7,293.8,526.7,293.8c-0.1-0.1-0.2-0.1-0.2-0.1c-0.1,0-0.1,0.1-0.1,0.2c1.7,4.6-0.5,6.8-1.4,10.1
				c-1.1-2.6,2.5-5.1,0.7-9.8c0-0.1-0.1-0.1-0.1-0.1c-0.1,0-0.2,0-0.2,0.2c0,0.3-0.3,3-2.4,4.5c-0.2-0.5-0.6-1-1-1.4
				c-0.2-0.9-0.8-2.1-2-2.5c-0.2-0.5-0.6-1.1-1.3-1.5c-0.7-0.3-1.4-0.3-2.3,0.1c-1,0.1-1.7,0.5-2.1,1.2c-0.4,0.6-0.3,1.3-0.2,1.8
				c-0.9,0.9-0.9,2.3-0.9,2.8c-0.5,1.2-0.2,2.7-0.1,3.3c-0.6,1.7,0,3.3,0.2,3.9c0,0.1,0,0.3,0,0.4c-2-2.2-6.6-5-8.4-6
				c0,0-0.1,0-0.1,0c0,0-0.1,0-0.1,0.1c0,0,0,0-0.1,0.1c0,0,0,0.1,0,0.1c0,0,0,0.1,0,0.1c0,0,0,0.1,0,0.1c3.9,3.8,7.4,8.6,10.8,18.4
				c1.7-1.7,4.7-4,9-4h5C526.4,303.6,531.1,299.3,526.7,293.8z M550.6,300c-0.9-0.2-6.8-1.3-13.4,10.9c1-4.5,3.9-10,4.7-11.6v0
				c0,0,0-0.1,0-0.1c0,0,0-0.1-0.1-0.1c0,0-0.1,0-0.1,0c-0.1,0-0.1,0-0.1,0.1c-4.4,7.3-5.9,11.5-6.8,16.5h2.7
				c0.5-4.8,6.6-16.2,13.1-15.4h0C550.6,300.2,550.7,300.1,550.6,300C550.7,300.1,550.7,300,550.6,300z M537.5,340.1l-1.5-6.2h-2.5
				c0.4,1.6,1,3.2,1.7,4.6c0,0,0.1,0.1,0.1,0.1c0,0,0.1,0,0.1,0c0.1,0,0.1,0,0.2-0.1c0-0.1,0-0.1,0-0.2c-0.2-1.3-0.4-2.6-0.6-3.8
				c0.5,2,1.3,3.9,2.2,5.7c0,0.1,0.1,0.1,0.1,0.1C537.5,340.2,537.5,340.1,537.5,340.1z M540,337.3c-0.3-1-0.5-2.3-0.8-3.4h-1
				c0.4,1.1,0.9,2.4,1.3,3.5c0,0.1,0.1,0.2,0.2,0.1c0.1,0,0.1-0.1,0.1-0.1C540,337.4,540,337.3,540,337.3z M540.3,340.9L540.3,340.9
				c-0.3-0.9-0.7-1.7-1.1-2.5c-0.4-0.8-0.7-1.6-1-2.5c-0.2-0.6-0.5-1.4-0.7-2h-0.9c0.3,0.8,0.6,1.6,0.9,2.4c0.7,1.7,1.5,3.3,2.5,4.8
				c0,0,0,0,0.1,0.1c0,0,0.1,0,0.1,0C540.3,341.1,540.4,341,540.3,340.9z M541.7,311.2c-0.1-0.1-0.2-0.1-0.3,0
				c-1.2,1.3-2.2,2.8-3,4.4h1c0.5-1.2,1.6-3.2,2.3-4l0,0c0,0,0.1-0.1,0.1-0.2C541.8,311.4,541.8,311.3,541.7,311.2z M534.1,302.7
				c0.9-1.5,2.3-2.7,3.5-4.1c0,0,0-0.1,0-0.1c0,0,0-0.1,0-0.1c0,0,0,0,0,0c0,0,0,0,0,0c0,0,0,0,0,0c0,0,0,0,0,0
				c-0.3,0.3-0.5,0.5-0.8,0.8c-0.1-0.1-0.4,0.1-0.8,0.3c-0.2,0.2-0.4,0.4-0.5,0.6c-0.2,0-0.5,0.2-0.7,0.5c-0.2,0.3-0.4,0.6-0.4,0.8
				c-0.2,0-0.4,0.2-0.6,0.6c-0.1,0.2-0.2,0.5-0.3,0.6c-0.2,0.1-0.3,0.3-0.4,0.5c-0.2,0.3-0.3,0.6-0.3,0.8c0,0.1-0.1,0.2-0.1,0.2
				l0-0.2c0.3-2.1,0.7-4.3,1.3-6.3c0.6-2,1.3-4.1,2.6-5.8l0,0c0,0,0-0.1,0-0.2c0-0.1,0-0.1-0.1-0.1c0,0,0,0-0.1,0s-0.1,0-0.1,0
				s-0.1,0-0.1,0c0,0,0,0-0.1,0c-0.4,0.5-0.8,1-1.1,1.5c-0.1-0.1-0.4,0.2-0.7,0.6c-0.2,0.4-0.3,0.8-0.2,0.9c0,0,0,0,0,0
				c-0.1-0.1-0.4,0.3-0.6,0.7c-0.2,0.4-0.2,0.8-0.1,0.9c0,0,0,0,0,0c-0.2-0.1-0.4,0.3-0.6,0.9c-0.1,0.5-0.2,0.9-0.1,1c0,0,0,0,0,0
				c-0.2-0.1-0.4,0.3-0.6,0.9c-0.2,0.5-0.1,1,0,1.1c-0.2,0-0.4,0.4-0.5,0.9c-0.1,0.5-0.1,0.9,0,1c-0.2,0-0.3,0.4-0.4,0.9
				c-0.1,0.5,0,0.9,0.1,1c-0.2,0.1-0.3,0.5-0.4,1c-0.1,0.5,0,0.9,0.1,1c-0.1,0.1-0.2,0.5-0.3,0.9c-0.1,0.4,0,0.7,0.1,0.9
				c-0.1,0.1-0.2,0.5-0.2,1c0,0.4,0,0.7,0.1,0.9c-0.1,0.2-0.1,0.5-0.1,0.8c0,0.4,0.1,0.7,0.2,0.9c0,1.4,0,2.9,0.1,4.3h3
				c0-1.1,0.1-2.3,0.2-3.3c0.2-1.9,0.5-3.9,1.5-5.5l0,0c0,0,0-0.1,0-0.1s0-0.1,0-0.1c-0.1,0-0.1,0-0.2,0c-1.3,1.5-1.9,3.6-2.2,5.5
				c-0.1,0.4-0.1,0.8-0.2,1.2c0.1-1.6,0.2-3.1,0.6-4.6c0.4-1.8,1.2-3.5,2.8-4.5c0,0,0,0,0.1-0.1c0,0,0-0.1,0-0.1c0,0,0-0.1-0.1-0.1
				c0,0-0.1,0-0.1,0c-0.1,0-0.2,0.1-0.3,0.1c-0.1-0.1-0.5,0-0.9,0.2c-0.4,0.2-0.6,0.5-0.6,0.7c0,0,0,0,0,0c0,0,0,0,0,0
				c-0.1-0.1-0.5,0.1-0.8,0.6c-0.3,0.4-0.4,0.9-0.3,1c0,0,0,0,0,0c-0.2-0.1-0.4,0.3-0.6,0.8c-0.1,0.4-0.2,0.7-0.1,0.9c0,0,0,0,0,0
				c-0.1,0.4-0.2,0.9-0.3,1.3c0-0.6,0.1-1.2,0.2-1.9C532.6,305.9,533.2,304.2,534.1,302.7z M543.6,297.7c-0.2-0.1-0.5-0.1-0.7-0.1
				c-0.2,0-0.3,0.1-0.5,0.2c0-0.2,0-0.3,0-0.5c0-0.2-0.2-0.5-0.4-0.6c-0.8-0.8-0.3-3.2-0.4-3.3c-0.2,0-0.1,2.4-0.5,3.5
				c-0.1,0.2-0.1,0.5,0,0.8c0.1,0.2,0.2,0.5,0.4,0.6c0.2,0.1,0.4,0.2,0.5,0.1c0.1,0,0.1,0,0.1-0.1c0,0,0,0.1,0,0.1
				c0,0.2,0.2,0.4,0.4,0.4c0.2,0.1,0.5,0.1,0.7,0.1c0.2-0.1,0.4-0.2,0.6-0.4c0.8-0.9,2.6-2.1,2.4-2.3
				C546.1,296.3,544.6,298.1,543.6,297.7z M547.1,294.6c-0.1-0.2-1.6,1.5-2.5,1.1c-0.2-0.1-0.4-0.1-0.6-0.1c-0.1,0-0.2,0.1-0.3,0.2
				c0-0.1,0-0.1,0-0.2c-0.1-0.2-0.2-0.4-0.4-0.6c-0.8-0.7-0.2-2.9-0.4-2.9c-0.2,0-0.2,2.1-0.6,3.2c-0.1,0.2-0.1,0.4-0.1,0.7
				c0.1,0.2,0.2,0.4,0.4,0.6c0.1,0.1,0.2,0.1,0.3,0.1c0.1,0,0.2,0,0.3,0c0.1,0,0.2-0.1,0.2-0.1c0,0,0,0,0,0c0,0.1,0.1,0.2,0.1,0.3
				s0.1,0.1,0.2,0.2c0.2,0.1,0.4,0.1,0.6,0.1c0.2-0.1,0.4-0.2,0.5-0.4C545.4,295.9,547.2,294.8,547.1,294.6z M547.4,292.6
				c-0.1-0.1-1.2,1.6-2.1,1.4c-0.2-0.1-0.4,0-0.6,0.1c-0.1,0-0.2,0.1-0.2,0.2c0,0,0-0.1,0-0.1c0-0.2-0.1-0.4-0.2-0.6
				c-0.6-0.8,0.2-2.6,0.1-2.6c-0.2,0-0.5,1.9-1,2.7c-0.1,0.2-0.2,0.4-0.1,0.6c0,0.2,0.1,0.4,0.2,0.6c0.1,0.1,0.3,0.2,0.5,0.2
				c0.1,0,0.3-0.1,0.3-0.2c0,0.1,0,0.2,0.1,0.2c0,0.1,0.1,0.2,0.2,0.2c0.1,0.1,0.2,0.1,0.2,0.1c0.2,0.1,0.4,0,0.6,0
				c0.2-0.1,0.3-0.2,0.4-0.4C546.1,293.9,547.5,292.7,547.4,292.6z M546.8,290.2c-0.2-0.2-0.9,1.5-1.7,2c-0.2,0.1-0.3,0.2-0.4,0.4
				c-0.1,0.2-0.1,0.4-0.1,0.6c0,0.2,0.1,0.3,0.2,0.4c0.1,0,0.1,0.1,0.2,0.1c0.1,0,0.2,0,0.2-0.1c0.2-0.1,0.3-0.2,0.4-0.4
				c0.1-0.2,0.1-0.4,0.1-0.6C545.7,291.6,546.9,290.2,546.8,290.2z M532.1,333.9h-8.4c-0.6,0-1.1,0-1.6-0.1c0,0,0,0,0,0
				c1.4,2.1,3.6,3.6,5.8,4.7c0.3,1.9,0.8,3.6,0.9,3.7c0.2,0.1,2.3-0.5,2.4-0.7c0.1-0.2-0.9-3.4-0.9-3.4
				C531.4,336.1,531.8,335,532.1,333.9z M553.3,348.3c-2.1,0.8-4.9,0.9-7.2,0.3c-5.2-1.6-11-4.7-16.5-2.1
				c-5.5-2.5-11.3,0.5-16.5,2.1c-2.3,0.6-5,0.5-7.2-0.3c0,0,0,0,0,0c0,0,0,0,0,0c0,0,0,0,0,0c0,0,0,0,0,0c3.1,2.4,7.4,3.5,11.2,2.1
				c3.7-1.2,6.8-5.1,11.2-3.4c-3.5,1.4-6.7,3.9-9.2,6.2l1.8,1.5c2.3-2.7,4.8-5.3,7.8-6.9c0.4-0.2,0.6-0.3,0.9-0.3
				c0.3,0,0.5,0.1,0.9,0.3c2.9,1.6,5.5,4.3,7.8,6.9l1.8-1.5c-2.5-2.4-5.8-4.9-9.2-6.2c4.4-1.7,7.5,2.3,11.2,3.4
				C546,351.9,550.3,350.8,553.3,348.3C553.4,348.4,553.4,348.3,553.3,348.3z M519.1,344.7c-5.4-1.3-6.9-6.4-11.4-8.6
				c0,0-0.1,0-0.1,0.1c1.4,2.4,2.2,6,6.3,8.2c0,0,0,0.1,0,0.1c-5.9-1.1-8.4,0.4-14.6-2.4c-0.1,0-0.1,0-0.1,0.1c2,3,6.9,5,13.5,4.4
				c2.4-0.2,4.1-1.2,6.4-1.7C519.1,344.8,519.1,344.7,519.1,344.7z M507.7,341.6c-2.1-2.7-1.5-8.5-6.1-13.7c0,0-0.1,0-0.1,0
				c0.9,3.9,0.6,8.3,3.1,11.5c0,0,0,0.1,0,0c-4.8-3.8-9.7-4.9-11.9-8c0,0-0.1,0-0.1,0C493,335.5,500.6,341.7,507.7,341.6
				C507.7,341.7,507.8,341.6,507.7,341.6z M500.5,334.4c-2.2-4.1,0.4-10.4-2.1-16.4c0-0.1-0.1,0-0.1,0c-0.1,3.3-2.1,8.3-0.9,12
				c0,0,0,0.1,0,0c-3.2-4.6-5.7-5.6-7.8-9.9c0-0.1-0.1,0-0.1,0c-0.1,2.9,1.1,5.2,2.6,7.4C494.3,330.5,497.2,332.9,500.5,334.4
				C500.5,334.5,500.5,334.5,500.5,334.4z M499,309.5c0-0.1-0.1-0.1-0.1,0c-1.7,3.2-4.7,5.7-4.8,9.8c0,0,0,0-0.1,0
				c-0.5-3.2-3.3-6.8-3.4-11.5c0-0.1-0.1-0.1-0.1,0c-2.2,6.1,1,11.8,4.4,16.5c0,0,0.1,0,0.1,0C494.9,319.2,499.3,315.5,499,309.5z
				 M501.2,301.6c-1.6,2.2-5.2,3.8-6.5,7c0,0-0.1,0-0.1,0c0.5-3.6-0.9-7.7,0.4-12.5c0-0.1-0.1-0.1-0.1-0.1c-2,2.4-2.6,5.2-2.7,8.3
				c-0.1,3.7,1.2,6.5,1.8,9c0,0.1,0.1,0.1,0.1,0c0.9-3.3,5.6-5.3,7.1-11.6C501.3,301.6,501.2,301.6,501.2,301.6z M505.5,294.2
				c-2.6,2.1-6.6,4-7.5,5.5c0,0-0.1,0-0.1,0l1-4.7c0.4-2,0.8-3.9,1.9-5.6c0-0.1,0-0.1-0.1-0.1c-5,3.9-4.3,9.7-4.5,14.3
				c0,0,0.1,0.1,0.1,0C499.3,300.4,504.1,298.6,505.5,294.2C505.6,294.2,505.5,294.2,505.5,294.2z M509.2,287
				c-4.4,0.1-7.6,3.9-9,8.6c0,0,0,0,0.1,0c6.1-4.4,5.7-6.4,9-8.5C509.3,287.1,509.3,287,509.2,287z M560,342.1
				c-6.2,2.8-8.7,1.2-14.6,2.4c0,0-0.1,0,0-0.1c4.1-2.2,4.9-5.8,6.3-8.2c0,0,0-0.1-0.1-0.1c-4.5,2.2-6,7.3-11.4,8.6
				c-0.1,0-0.1,0.1,0,0.1c2.3,0.5,4,1.5,6.4,1.7C553.2,347.1,558,345.1,560,342.1C560.1,342.1,560,342,560,342.1z M566.7,331.5
				c-2.2,3.1-7.1,4.2-11.9,8c0,0-0.1,0,0,0c2.4-3.2,2.2-7.7,3.1-11.5c0-0.1-0.1-0.1-0.1,0c-4.7,5.3-4.1,11-6.1,13.7c0,0,0,0.1,0,0.1
				C558.6,341.7,566.2,335.5,566.7,331.5C566.8,331.5,566.7,331.5,566.7,331.5z M569.8,320.2c0-0.1-0.1-0.1-0.1,0
				c-2.1,4.2-4.6,5.2-7.8,9.9c0,0-0.1,0-0.1,0c1.2-3.7-0.8-8.7-0.9-12c0-0.1-0.1-0.1-0.1,0c-2.5,6.1,0.1,12.3-2.1,16.4
				c0,0,0,0.1,0.1,0.1c3.3-1.6,6.1-4,8.4-6.9C568.7,325.5,570,323.1,569.8,320.2z M568.8,307.8c0-0.1-0.1,0-0.1,0
				c-0.1,4.7-2.8,8.3-3.4,11.5c0,0-0.1,0-0.1,0c-0.1-4.2-3.1-6.7-4.8-9.8c0-0.1-0.1,0-0.1,0c-0.3,6,4.1,9.8,4,14.8
				c0,0.1,0.1,0.1,0.1,0C567.8,319.6,571,313.8,568.8,307.8z M567.1,304.3c-0.1-3-0.8-5.9-2.7-8.3c0-0.1-0.1,0-0.1,0.1
				c1.3,4.7-0.1,8.9,0.4,12.5c0,0.1-0.1,0.1-0.1,0c-1.3-3.2-4.9-4.8-6.5-7c0-0.1-0.1,0-0.1,0.1c1.5,6.3,6.2,8.3,7.1,11.6
				c0,0.1,0.1,0.1,0.1,0C565.9,310.8,567.2,308.1,567.1,304.3z M558.5,289.2C558.5,289.2,558.4,289.3,558.5,289.2
				c1,1.8,1.4,3.7,1.8,5.7l1,4.7c0,0,0,0.1-0.1,0c-0.9-1.4-4.9-3.4-7.5-5.5c0,0-0.1,0-0.1,0.1c1.5,4.3,6.3,6.2,9.2,9.4
				c0,0,0.1,0,0.1,0C562.8,298.9,563.5,293.2,558.5,289.2z M550.1,287c-0.1,0-0.1,0.1,0,0.1c3.3,2.1,2.9,4,9,8.5c0,0,0.1,0,0.1,0
				C557.7,290.9,554.5,287.2,550.1,287z"/>
		</g>
	</g>
	<g>
		<path class="st1" d="M322.3,45.9L322.3,45.9c45.1,0,81.7,36.6,81.7,81.7v0.9c0,45.1-36.6,81.7-81.7,81.7h0
			c-45.1,0-81.7-36.6-81.7-81.7v-0.9C240.6,82.5,277.2,45.9,322.3,45.9z"/>
		<g>
			<path d="M368.1,112.9c-6.6,0-12,5.5-12,12.5c0,6.8,5.3,12.5,12,12.5c6.6,0,12-5.5,12-12.5C380.1,118.4,374.6,112.9,368.1,112.9z
				 M377.4,118.4c-0.6,0.4-1.3,0.8-1.9,1.2c-0.4-0.8-0.9-1.6-1.5-2.3c0.5-0.3,1-0.7,1.4-1C376.2,116.8,376.9,117.6,377.4,118.4z
				 M372.3,114.3c1,0.4,1.8,0.9,2.7,1.6c-0.4,0.4-0.9,0.7-1.4,1c-0.6-0.7-1.3-1.3-1.9-1.9C371.9,114.7,372.1,114.5,372.3,114.3z
				 M373.3,117.1c-0.7,0.4-1.4,0.6-2,0.9c-0.3-0.7-0.6-1.4-1-2c0.4-0.2,0.8-0.4,1.1-0.7C372,115.8,372.7,116.4,373.3,117.1z
				 M371.8,114.1c-0.2,0.2-0.4,0.4-0.5,0.6c-0.7-0.4-1.3-0.8-2-1.1C370.2,113.6,371.1,113.8,371.8,114.1z M371,115
				c-0.3,0.2-0.6,0.4-0.9,0.5c-0.4-0.6-0.8-1.1-1.2-1.7C369.6,114.1,370.3,114.5,371,115z M368.3,113.9c0.5,0.5,0.9,1.1,1.3,1.8
				c-0.4,0.1-0.8,0.2-1.3,0.2V113.9z M368.3,116.4c0.5,0,1.1-0.1,1.6-0.3c0.4,0.6,0.7,1.3,1,2c-0.8,0.2-1.6,0.3-2.5,0.4V116.4z
				 M367.8,113.9v2c-0.4,0-0.8-0.1-1.3-0.2C367,115.1,367.4,114.5,367.8,113.9z M366.1,115.5c-0.3-0.1-0.7-0.3-0.9-0.5
				c0.7-0.4,1.4-0.8,2-1.1C366.8,114.4,366.4,114.9,366.1,115.5z M366.8,113.5c-0.7,0.3-1.4,0.7-2,1.1c-0.2-0.2-0.4-0.4-0.5-0.6
				C365.1,113.8,365.9,113.6,366.8,113.5z M375,134.8c-1.5-0.9-1.6-2.2-1.5-2.6c0.1-0.5,0.4-0.3,0.6-0.3c1.1,0,2.1-0.3,3.5-1.8
				c1.5-1.6,2-5.2-0.4-7.5c-2.5-2.5-5.2-2.1-7,0.2c-0.4,0.5-1.3,0.8-1.9,0.8c-1.2,0-0.4,0.9-0.4,1.1s-0.2,0.3-0.3,0.3
				c-0.4-0.1-0.2,0.5-0.2,0.6c0,0.1-0.2,0.3-0.2,0.3c-0.5,0-0.4,0.4-0.3,0.6c0,0.1,0,0.3-0.2,0.4c-0.2,0.1-0.3,0.5-0.3,0.8
				c0,0.5,0.5,0.9,1.3,1.5c0.8,0.6,0.9,1.2,0.9,1.6c0,0.4,0.1,1.1,0.2,1.5c0.2,0.5,0.2,1.5-0.9,1.5c-1.4,0.1-3.7,1.1-3.9,1.2
				c-0.8,0.3-1.7,0.4-2.5,0.2c-0.4-0.3-0.8-0.6-1.2-1c-0.2-0.5,0.1-1.1,0.4-1.5c0.5,0.5,1.1,0.4,1.5,0.4c0.4,0,2.1-0.3,2.4-0.4
				c0.3-0.1,0.4-0.1,0.5,0c0.7,0.3,1.6,0.3,2-1c0.4-1.4-0.5-1-0.7-0.9c-0.1,0.1-0.3,0-0.2-0.1c0.2-0.3-0.1-0.3-0.2-0.3
				c-0.4,0-0.9,0.4-1,0.5c-0.2,0.1-0.3,0.1-0.4,0.1c-0.5-0.3-1.9,0.1-2.4-0.7c0-0.2-0.4-3.5-0.6-4.1c0-0.1-0.1-0.3,0.1-0.5
				c0.4-0.6,1.4,0,1.9,0c0.7,0,0.8-0.3,1-0.5c0.2-0.2,0.3-0.1,0.4-0.2c0.1-0.1,0-0.2,0-0.3s0.1,0,0.2-0.1c0.1-0.1,0-0.3,0-0.4
				c0.2-0.3,0.6-0.1,0.4-0.7c-0.1-0.4,0.1-0.8,0.3-1c0.3-0.4,1.5-2.2-0.6-4.1c-2-1.8-4.2-1.6-5.5-0.1c-1.4,1.5-0.7,3.7-0.6,4.3
				c0.1,0.6-0.3,1.1-0.8,1.3c-0.4,0.2-1.3,0.8-1.8,1.3c0.1-4.8,2.9-9.1,7.2-10.8c0.2,0.2,0.4,0.5,0.6,0.7c-0.5,0.4-1.5,1.3-1.5,1.3
				s0.1,0,0.3,0.1c0.1,0,0.3,0.1,0.3,0.1s0.9-0.8,1.4-1.1c0.3,0.3,0.7,0.5,1.1,0.7c-0.2,0.4-0.8,1.4-0.8,1.4s0.1,0.1,0.2,0.1
				c0.1,0.1,0.2,0.1,0.2,0.1s0.6-1.1,0.8-1.5c0.5,0.2,1,0.3,1.5,0.3v2c-0.3,0-1,0-1.3-0.1h-0.2l0.1,0.2c0.1,0.1,0.1,0.2,0.2,0.3
				c0.2,0,0.9,0,1.2,0v3.7h0.5v-0.9c0.8,0,1.4-0.1,2-0.2l0.7-0.6h-0.4c-0.8,0.1-1.5,0.2-2,0.2c0,0-0.2,0-0.3,0v-2.3
				c0.9,0,1.8-0.1,2.7-0.4c0.2,0.6,0.7,2.1,0.7,2.1l0.5-0.2c0,0-0.5-1.5-0.7-2.1c0.8-0.2,1.5-0.6,2.1-0.9c0.6,0.7,1.1,1.5,1.5,2.3
				c-0.4,0.2-1,0.4-1,0.4c0.5,0.1,0.9,0.2,0.9,0.2s0.2-0.1,0.3-0.1c0,0.1,0.1,0.3,0.1,0.3l0.7,0.3l-0.1-0.2c0,0-0.2-0.5-0.3-0.6
				c0.7-0.3,1.4-0.7,2-1.2c1.3,1.9,1.8,4.2,1.8,6.5C379.6,129.2,377.7,132.6,375,134.8z"/>
			<path d="M355.8,115.8l-0.2,0.2c-0.8,0.7-2.6,2.6-2.3,4.7v0.1l0.1,0.4l0.2-0.2c1.1-1,2-2.8,2.3-4.8l0.1-0.6L355.8,115.8z"/>
			<path d="M352.2,119.4l-0.1,0.2c-0.1,0.3-0.4,1-0.5,1.7c-0.3,1.1-0.1,2.9,1.1,4.1l0.1,0.2l0.1,0.2l0.3-0.8
				c0.3-1.3-0.1-4.1-0.8-5.3L352.2,119.4L352.2,119.4z"/>
			<path d="M350.5,124.3v0.2c-0.1,1.2,0,4.2,3.3,5.8l0.4,0.2V130c0-1.2-1.8-4.5-3.1-5.7l-0.4-0.4L350.5,124.3z"/>
			<path d="M351.4,129.7v0.2c0.4,1.9,1.8,5,4.2,5.9l0.4,0.1l-0.1-0.4c-0.5-1.4-2.8-4.7-4.2-5.8l-0.3-0.2V129.7z"/>
			<path d="M356,118.5l-0.3,0.1c-1.7,1.3-2.5,2.9-2.5,4.9v0.4l0.3-0.2c0.9-1,2.1-3.4,2.4-4.8l0.1-0.6V118.5z"/>
			<path d="M355,122.2l-0.1,0.2c-0.4,0.5-1.8,2.4-1.7,4.7c0,0.3,0.1,0.8,0.2,1.1l0.1,0.3l0.2-0.3c0.7-1.2,1.5-4.3,1.4-5.7v-0.4
				L355,122.2z"/>
			<path d="M355.6,125.9l-0.1,0.2c-0.9,1.2-1.3,2.4-1.3,3.5c0,0.8,0.3,1.6,0.9,2.4l0.2,0.3l0.1-0.3c0.3-0.7,0.7-2.7,0.7-4.4
				c0-0.6-0.1-1.1-0.2-1.4l-0.1-0.4L355.6,125.9z"/>
			<path d="M356.5,130.6l-0.1,0.2c-0.2,0.7-0.4,1.3-0.3,1.9c0,1.3,0.9,2.4,2.4,3.2l0.2,0.1l0.1-0.3v-0.3c0-1.1-1.1-3.9-2-4.8
				l-0.2-0.3L356.5,130.6z"/>
			<path d="M354.3,135.2l0.1,0.2c0.8,2.1,2.4,4.9,5.1,4.1h0.3l-0.2-0.2c-0.5-1.1-3.9-3.9-5-4.1l-0.3-0.1L354.3,135.2z"/>
			<path d="M358.4,140.2l-0.5,0.1l0.5,0.1c2.1,0.7,4.7,0.8,6.3,0.4c0.6-0.1,0.9-0.4,1.3-0.7c2.7,0.2,5.2,1.8,6.7,3.1l0.1,0.1h0.1
				c0.2-0.1,0.4-0.2,0.5-0.3l0.1-0.1l-0.1-0.1c-1.5-1.5-3.9-2.3-4-2.4C367.3,139.8,363.4,139.2,358.4,140.2z"/>
			<path d="M358.9,134.2v0.2c0.3,1.6,1.1,3.7,4.3,3.4h0.2l-0.1-0.2c-0.2-0.7-3.2-2.8-4.2-3.4L358.9,134.2L358.9,134.2z"/>
			<path d="M381.9,115.6l0.1,0.6c0.3,2,1.2,3.8,2.3,4.8l0.2,0.2l0.1-0.4v-0.1c0.3-2.1-1.5-4-2.3-4.7l-0.2-0.2L381.9,115.6z"/>
			<path d="M385.2,119.3l-0.1,0.4c-0.3,1.2-0.5,4-0.4,5.3l0.1,0.8l0.1-0.1l0.1-0.2c0.7-1.2,0.7-2.9,0.6-4.1
				c-0.1-0.9-0.2-1.4-0.3-1.7l-0.1-0.2V119.3z"/>
			<path d="M386.4,124l-0.3,0.4c-1,1.3-2.4,4.5-2.4,5.7v0.4l0.3-0.2c2.5-1.5,2.6-4.5,2.5-5.8v-0.2L386.4,124z"/>
			<path d="M385.6,129.5l-0.4,0.2c-1.4,1.1-3.7,4.4-4.2,5.8L381,136l0.4-0.1c2.4-0.9,3.9-4,4.2-5.9v-0.2L385.6,129.5z"/>
			<path d="M380.1,118.4l0.1,0.5c0.5,1.4,1.9,3.8,3.2,4.8l0.4,0.2v-0.4c0.1-2-1-3.5-3.2-4.8l-0.2-0.1L380.1,118.4z"/>
			<path d="M381.9,122.1v0.4c-0.1,1.4,1.3,4.6,2.1,5.7l0.2,0.3l0.1-0.3c0.1-0.4,0.2-0.8,0.2-1.1c0.1-2.3-1.9-4.2-2.5-4.7l-0.1-0.1
				L381.9,122.1z"/>
			<path d="M382.2,125.8l-0.1,0.4c-0.1,0.3-0.2,0.8-0.2,1.4c0,1.7,0.2,3.7,0.7,4.4l0.1,0.3l0.2-0.3c0.5-0.7,0.9-1.5,0.9-2.4
				c0-1.1-0.4-2.4-1.3-3.5l-0.1-0.2L382.2,125.8z"/>
			<path d="M381.4,130.4l-0.2,0.3c-0.9,0.8-2,3.7-2,4.8c0,0,0,0.2,0,0.3l0.1,0.3l0.2-0.1c1.6-0.8,2.3-1.8,2.4-3.2
				c0-0.6-0.1-1.3-0.3-1.9l-0.1-0.2L381.4,130.4z"/>
			<path d="M383.8,135.1l-0.4,0.1c-1.4,0.2-5.3,2.4-5.9,3.3l-0.2,0.2h0.3c3.2,0.6,5-1.7,6-3.3L383.8,135.1L383.8,135.1z"/>
			<path d="M368.5,140.5c-0.1,0-2.5,0.9-4,2.4l-0.1,0.1l0.1,0.1c0.1,0.1,0.4,0.2,0.5,0.3h0.1l0.1-0.1c1.5-1.3,4-3,6.7-3.1
				c0.4,0.3,0.8,0.5,1.3,0.7c1.5,0.4,4.2,0.2,6.3-0.4l0.5-0.1l-0.5-0.1C374.4,139.2,370.6,139.8,368.5,140.5z"/>
			<path d="M379.1,134.1l-0.3,0.2c-1.3,0.6-4.7,2.6-5.1,3.4l-0.1,0.2h0.2c3.8,0.2,4.7-1.8,5.2-3.4v-0.2L379.1,134.1z"/>
			<path d="M296,113.8h4.6v3.8H296V113.8z M296.4,122h3.8v18.6h-3.8V122z"/>
			<path d="M270.4,122.1h3.4v18.8h-3.3v-2.7h-0.1c-1.4,2.3-3.7,3.3-6.3,3.3c-3.8,0-6-3-6-6.8v-12.6h3.4v11.1c0,3.2,0.7,5.7,4,5.7
				c1.4,0,3.3-0.7,4-2.7c0.7-1.7,0.7-3.9,0.7-4.4L270.4,122.1L270.4,122.1z"/>
			<path d="M280.9,125.3c1.3-2.2,3.7-3.2,5.5-3.2c1.3,0,6.8,0.3,6.8,6.1v12.3h-3.4v-11.3c0-3-1.3-4.5-4.2-4.5c0,0-1.8-0.1-3.3,1.3
				c-0.5,0.5-1.5,1.3-1.5,4.8v9.7h-3.4v-17.9h3.4V125.3z"/>
			<path d="M314.6,128.3c-0.2-2.2-1.3-3.7-3.8-3.7c-3.3,0-4.6,2.7-4.6,6.8c0,4.1,1.3,6.8,4.6,6.8c2.3,0,3.7-1.4,3.9-4h3.5
				c-0.3,4-3.4,6.3-7.5,6.3c-5.9,0-8.3-4-8.3-9.1c0-5.1,2.7-9.4,8.5-9.4c3.9,0,6.8,2.4,7,6.2H314.6z"/>
			<path d="M322.8,132c-0.3,3,1.1,6.3,4.6,6.3c2.7,0,4.1-1,4.5-3.6h3.7c-0.6,4-3.8,6-8.2,6c-5.9,0-8.3-4-8.3-9.1
				c0-5.1,2.7-9.4,8.6-9.4c5.5,0.1,8.1,3.4,8.1,8.2v1.6H322.8z M332.1,129.7c0.1-2.9-1.3-5.2-4.7-5.2c-2.9,0-4.6,2.4-4.6,5.2H332.1z
				"/>
			<path d="M339.7,140.6V125h-3.1v-2.3h3.1v-3.9c0.1-3.9,3.1-5,5.6-5c0.8,0,1.6,0.2,2.4,0.4v2.8c-0.6,0-1.2-0.1-1.7-0.1
				c-1.9,0-3,0.5-2.9,2.4v3.3h4.1v2.3h-4.1v15.6H339.7z"/>
		</g>
	</g>
</g>
</svg>
