<?xml version="1.0" encoding="utf-8"?>
<!-- Generator: Adobe Illustrator 25.2.1, SVG Export Plug-In . SVG Version: 6.00 Build 0)  -->
<svg version="1.1" id="Layer_1" xmlns="http://www.w3.org/2000/svg" xmlns:xlink="http://www.w3.org/1999/xlink" x="0px" y="0px"
	 viewBox="0 0 327.6 386.6" style="enable-background:new 0 0 327.6 386.6;" xml:space="preserve">
<style type="text/css">
	.st0{fill:none;stroke:#FFFFFF;stroke-opacity:0.33;}
	.st1{fill:none;stroke:#FFFFFF;stroke-miterlimit:10;}
	.st2{fill:#FFFFFF;}
</style>
<g>
	<path class="st0" d="M36.5,41.1C73,58.2,146.4,107.6,148,167.7c3.5,19.4-16.6,65.5-37,94.1C85.5,297.5-11.4,431.2,327.5,370.6"/>
	<g>
		<path class="st1" d="M36.7,32c0,0,6.3-33.4-14.1-31.4C22.7,0.6,3,2.7,23,35C23,35,1.4,24,0.5,37.1c0,0,0.9,16.5,23.2,6.8
			c0,0,4.6,9.9,13,6.1c0,0,4.1-3.6-0.2-8.8c0,0,21.1-3.2,18.4-12.5C52.3,19.2,39,29,36.7,32z"/>
		<path class="st1" d="M22.7,34.7c-10.9-9.7-14.3-23-14.3-23"/>
		<path class="st1" d="M6.5,20.5c0,0,5.8,9.9,16.2,14.2"/>
		<path class="st2" d="M8.9,12.8c0.5-0.3,0.7-1,0.4-1.6c-0.3-0.6-1-0.8-1.5-0.5c-0.5,0.3-0.7,1-0.4,1.6C7.7,12.9,8.3,13.1,8.9,12.8z
			"/>
		<path class="st2" d="M6.8,21.3c0.5-0.3,0.7-1,0.4-1.6c-0.3-0.6-1-0.8-1.5-0.5c-0.5,0.3-0.7,1-0.4,1.6C5.6,21.3,6.3,21.5,6.8,21.3z
			"/>
	</g>
</g>
</svg>
