<svg xmlns="http://www.w3.org/2000/svg" width="35" height="35" viewBox="-4 -5 35 35">
    <path fill="#005B21" d="M18.058 1.456L6.229 13.285c-1.122 1.139-1.116 2.97.015 4.101 1.131 1.131 2.962 1.138 4.102.015l9.978-9.978c.244-.247.243-.644-.002-.889s-.642-.246-.888-.002l-9.94 9.94c-.645.645-1.69.645-2.336 0-.645-.645-.645-1.69 0-2.335L18.945 2.351c1.38-1.367 3.604-1.362 4.978.011 1.373 1.373 1.378 3.598.011 4.978L10.127 21.147c-2.011 1.992-5.254 1.984-7.256-.017-2.001-2.002-2.009-5.245-.017-7.256L13.868 2.86c.246-.246.246-.645 0-.89-.246-.247-.645-.247-.89 0L1.914 13.03c-2.485 2.503-2.478 6.545.016 9.039 2.494 2.494 6.536 2.501 9.038.016L24.83 8.227c1.209-1.21 1.681-2.972 1.239-4.624C25.625 1.95 24.334.66 22.682.217c-1.652-.442-3.415.03-4.624 1.24z"/>
</svg>
