<svg xmlns="http://www.w3.org/2000/svg" width="25" height="25" viewBox="-1 -2 25 25">
    <g>
        <path d="M3.853 0h14.272c2.116 0 3.853 1.737 3.853 3.853v14c0 1.574-1.79 2.606-3.147 1.737l-3.42-2.225H3.854C1.737 17.365 0 15.63 0 13.512v-9.66C0 1.738 1.737 0 3.853 0zm14.272 1.302H3.853c-1.411 0-2.55 1.14-2.55 2.55v9.66c0 1.411 1.139 2.55 2.55 2.55h11.939l3.744 2.443c.488.271 1.14-.054 1.14-.651V3.853c0-1.411-1.14-2.55-2.55-2.55z" transform="translate(.25 .5)"/>
        <path d="M5.698 6.566c-.38 0-.651-.271-.651-.65 0-.38.271-.652.651-.652h5.752c.326 0 .651.271.651.651s-.325.651-.65.651H5.697zM5.698 9.334c-.38 0-.651-.271-.651-.651s.271-.652.651-.652H16.28c.38 0 .651.272.651.652s-.271.65-.651.65H5.698zM5.698 12.101c-.38 0-.651-.27-.651-.65 0-.326.271-.652.651-.652h8.303c.325 0 .651.326.651.651 0 .38-.326.651-.651.651H5.698z" transform="translate(.25 .5)"/>
    </g>
</svg>
