<svg xmlns="http://www.w3.org/2000/svg" width="25" height="25" viewBox="0 0 25 25">
    <path d="M20.302 9.328H16.05v-3.85c-.001-1.522-1.234-2.755-2.756-2.757h-.44c-.815 0-1.476.661-1.476 1.477v2.92c-.032 1.303-.51 2.556-1.354 3.549l-.97.757c-.053-.365-.368-.633-.737-.63H3.295c-.408 0-.738.331-.738.739v10.676c0 .408.33.738.738.738h5.034c.408 0 .738-.33.738-.738v-.541h10.58c1.402.004 2.6-1.007 2.83-2.39l1.08-6.173c.08-.443.063-.898-.051-1.334-.397-1.442-1.708-2.441-3.204-2.443zM7.591 21.471H4.033v-9.203H7.59v9.203zm14.517-8.612l-1.087 6.171c-.11.672-.692 1.165-1.373 1.164H9.068v-6.89l1.93-1.51c.042-.033.08-.069.114-.109 1.094-1.267 1.711-2.878 1.744-4.552V4.198h.44c.707.001 1.279.573 1.28 1.28v4.588c0 .408.33.738.739.738h4.987c.83.001 1.558.556 1.779 1.356.056.227.063.464.02.694l.007.005z"/>
</svg>
