<svg xmlns="http://www.w3.org/2000/svg" width="35" height="35" viewBox="0 0 35 35">
    <path fill="#01CE4B" d="M29.278 17.439c0-.302-.166-.58-.433-.722L9.44 6.09c-.265-.146-.589-.133-.842.033-.252.165-.393.457-.365.758l1.022 10.714c.04.422.397.743.82.739l9.16-.08c.292-.004.56-.163.703-.417.144-.254.14-.566-.008-.817-.149-.252-.42-.404-.712-.401l-8.386.104-.809-8.432 16.726 9.148-16.633 9.125.762-5.937c.054-.296-.06-.597-.294-.784-.235-.188-.554-.23-.83-.113-.277.118-.466.378-.493.677l-1.022 7.549c-.033.253.054.508.236.687l.104.104c.254.175.584.193.855.046L28.84 18.166c.271-.14.44-.422.44-.727z"/>
</svg>
