<svg width="367" height="455" viewBox="0 0 367 455" fill="none" xmlns="http://www.w3.org/2000/svg">
<path d="M308.462 334.646C308.462 334.646 276.715 290.834 307.376 279.802C307.376 279.802 337.213 269.446 330.357 329.548C330.357 329.548 353.952 299.165 364.168 317.317C364.168 317.317 374.123 341.716 335.31 342.822C335.31 342.822 335.442 360.122 320.704 360.413C320.704 360.413 312.276 357.985 314.966 347.56C314.966 347.56 282.414 357.335 279.871 342.064C277.36 326.763 303.151 331.916 308.462 334.646Z" stroke="white" stroke-miterlimit="10"/>
<path d="M330.59 329.075C339.74 307.722 335.52 286.197 335.52 286.197" stroke="white" stroke-miterlimit="10"/>
<path d="M344.328 297.495C344.328 297.495 342.673 315.723 330.591 329.043" stroke="white" stroke-miterlimit="10"/>
<path d="M335.604 288.063C334.637 288.028 333.884 287.152 333.923 286.107C333.961 285.063 334.776 284.245 335.743 284.281C336.71 284.316 337.463 285.192 337.425 286.236C337.386 287.281 336.571 288.099 335.604 288.063Z" fill="white"/>
<path d="M344.278 298.842C343.311 298.806 342.558 297.931 342.597 296.886C342.635 295.842 343.45 295.024 344.417 295.06C345.384 295.095 346.137 295.971 346.098 297.015C346.06 298.06 345.245 298.878 344.278 298.842Z" fill="white"/>
<path d="M314 349C262 465 154 485 103 410C62.2 350 103 305 126 271C169.589 206.564 214 148 173 66.5006C138.129 -2.81499 58.6237 -5.55756 0 5.88518" stroke="white" stroke-opacity="0.33"/>
</svg>
