<svg xmlns="http://www.w3.org/2000/svg" width="35" height="35" viewBox="0 0 35 35">
    <path fill="#01CE4B" fill-rule="nonzero" d="M9.143 8c-.292 0-.588.113-.81.335a1.151 1.151 0 0 0 0 1.62L16.38 18l-8.047 8.045a1.151 1.151 0 0 0 0 1.62c.215.214.515.335.81.335.295 0 .594-.12.81-.335L18 19.62l8.047 8.045c.215.214.515.335.81.335.29 0 .581-.106.81-.335a1.151 1.151 0 0 0 0-1.62L19.62 18l8.047-8.045a1.151 1.151 0 0 0 0-1.62 1.152 1.152 0 0 0-1.62 0L18 16.381 9.953 8.335A1.148 1.148 0 0 0 9.143 8z"/>
</svg>
