<?xml version="1.0" encoding="UTF-8"?>
<svg width="19px" height="13px" viewBox="0 0 19 13" version="1.1" xmlns="http://www.w3.org/2000/svg" xmlns:xlink="http://www.w3.org/1999/xlink">
    <!-- Generator: Sketch 60.1 (88133) - https://sketch.com -->
    <title>Icon/contact</title>
    <desc>Created with Sketch.</desc>
    <g id="Projects" stroke="none" stroke-width="1" fill="none" fill-rule="evenodd">
        <g id="Projects_details" transform="translate(-504.000000, -417.000000)" fill="#01CE4B">
            <g id="Stacked-Group-5" transform="translate(401.000000, 391.000000)">
                <g transform="translate(0.000000, 20.000000)" id="Icon/contact/green">
                    <g transform="translate(100.000000, 0.000000)">
                        <g id="noun_Mail_2801473" transform="translate(3.750000, 6.250000)">
                            <path d="M15.5009921,0 L1.86011905,0 C0.833271125,0.00112767308 0.00112767308,0.833271125 0,1.86011905 L0,10.5406746 C0.00112767308,11.5675225 0.833271125,12.399666 1.86011905,12.4007937 L15.5009921,12.4007937 C16.52784,12.399666 17.3599834,11.5675225 17.3611111,10.5406746 L17.3611111,1.86011905 C17.3599834,0.833271125 16.52784,0.00112767308 15.5009921,0 Z M14.7563244,1.24007937 L8.68055556,5.44624256 L2.60478671,1.24007937 L14.7563244,1.24007937 Z M16.1210317,10.5406746 C16.1207241,10.8829855 15.843303,11.1604066 15.5009921,11.1607143 L1.86011905,11.1607143 C1.51780811,11.1604066 1.24038703,10.8829855 1.24007937,10.5406746 L1.24007937,1.86011905 C1.24007937,1.84257192 1.24869792,1.82781498 1.25012401,1.81051587 L8.32756696,6.71013145 C8.53996563,6.85703724 8.82114548,6.85703724 9.03354415,6.71013145 L16.1109871,1.81051587 C16.1124132,1.82769097 16.1210317,1.84244792 16.1210317,1.86011905 L16.1210317,10.5406746 Z" id="Shape" fill-rule="nonzero"></path>
                        </g>
                    </g>
                </g>
            </g>
        </g>
    </g>
</svg>