<svg width="55" height="55" viewBox="0 0 55 55" fill="none" xmlns="http://www.w3.org/2000/svg">
<rect width="55" height="55" rx="27.5" fill="#F8F8F8"/>
<path d="M34.4409 38.6323H21.5605C18.695 38.6323 16.3691 36.3065 16.3691 33.4409V20.5605C16.3691 17.695 18.695 15.3691 21.5605 15.3691H34.4409C37.3065 15.3691 39.6323 17.695 39.6323 20.5605V33.4409C39.6371 36.3065 37.3112 38.6323 34.4409 38.6323Z" stroke="#BCBEBE" stroke-width="1.2" stroke-miterlimit="10"/>
<path d="M30.9118 15.8711V18.2017C30.9118 18.6984 30.3435 19.1043 29.6462 19.1043H26.3652C25.6632 19.1043 25.0996 18.7032 25.0996 18.2017V15.8711" stroke="#BCBEBE" stroke-width="1.2" stroke-miterlimit="10"/>
<path d="M20.9961 23.8984H34.9798" stroke="#BCBEBE" stroke-width="1.2" stroke-miterlimit="10" stroke-linecap="round"/>
<path d="M20.9961 27.9531H34.9798" stroke="#BCBEBE" stroke-width="1.2" stroke-miterlimit="10" stroke-linecap="round"/>
<path d="M20.9961 31.8926H34.9798" stroke="#BCBEBE" stroke-width="1.2" stroke-miterlimit="10" stroke-linecap="round"/>
</svg>
