<svg width="230" height="126" viewBox="0 0 230 126" fill="none" xmlns="http://www.w3.org/2000/svg">
<path d="M36.7299 112.395C41.4079 115.094 51.1911 112.574 53.7885 111.832C53.5404 113.357 53.7471 114.676 54.4292 115.768C55.566 117.588 57.5639 118.061 57.6535 118.082L57.7086 118.096H57.7637C65.2182 117.711 65.8314 110.596 65.8727 108.852C73.844 108.323 78.9698 106.214 81.0849 102.595C83.262 98.8657 81.3949 94.9785 81.2847 94.7794C80.0308 92.9044 78.4117 91.9086 76.462 91.833C72.9414 91.6957 68.9868 94.6351 66.1277 97.3273C68.9041 92.4305 69.6758 87.5406 69.8618 85.8923C70.2269 85.7619 70.4956 85.4116 70.4956 84.9995C70.4956 84.4707 70.0685 84.038 69.5311 84.038C69.0006 84.038 68.5666 84.4638 68.5666 84.9995C68.5666 85.3635 68.787 85.6726 69.0901 85.8374C68.8697 87.7398 67.8569 94.0445 63.7576 99.5319C66.5961 91.0844 65.4869 83.0903 64.984 80.4942C65.2596 80.3225 65.4525 80.0341 65.4525 79.6907C65.4525 79.1618 65.0253 78.7292 64.4879 78.7292C63.9505 78.7292 63.5234 79.155 63.5234 79.6907C63.5234 80.1233 63.8197 80.4736 64.2124 80.5972C64.6877 83.0697 65.8176 90.9677 63.0136 99.2984C63.5923 88.4953 61.7114 81.3596 57.4261 78.0699C53.3751 74.9656 48.7522 76.5589 48.5455 76.6276C44.7563 78.0218 42.4138 80.3225 41.5871 83.4543C39.6235 90.9128 46.7542 100.864 49.2689 104.078C45.8379 103.165 38.6039 102.389 35.6 104.875C34.3461 105.912 33.919 107.382 34.3324 109.236C34.6562 110.596 35.4554 111.661 36.7299 112.395Z" fill="white"/>
<path d="M50.3847 104.841C50.3847 104.841 31.8931 83.1589 48.6623 76.9847C48.6623 76.9847 65.0113 71.1676 62.4277 101.846C62.4277 101.846 74.9047 85.9541 80.9193 94.9922C80.9193 94.9922 86.9339 107.21 65.4384 108.494C65.4384 108.494 65.8656 117.278 57.7014 117.718C57.7014 117.718 52.9683 116.64 54.2635 111.29C54.2635 111.29 36.4058 116.859 34.6903 109.147C32.9817 101.421 47.3671 103.556 50.3847 104.841Z" stroke="#202625" stroke-miterlimit="10"/>
<path d="M62.5381 101.592C67.1747 90.5554 64.3982 79.6904 64.3982 79.6904" stroke="#202625" stroke-miterlimit="10"/>
<path d="M69.5034 85.2744C69.5034 85.2744 68.9592 94.5804 62.5381 101.586" stroke="#202625" stroke-miterlimit="10"/>
<path d="M64.4675 80.6388C64.9979 80.6388 65.432 80.213 65.432 79.6773C65.432 79.1485 65.0048 78.7158 64.4675 78.7158C63.937 78.7158 63.5029 79.1416 63.5029 79.6773C63.5029 80.213 63.9301 80.6388 64.4675 80.6388Z" fill="#202625"/>
<path d="M69.5105 85.9474C70.041 85.9474 70.4751 85.5216 70.4751 84.9859C70.4751 84.4502 70.0479 84.0244 69.5105 84.0244C68.9731 84.0244 68.5459 84.4502 68.5459 84.9859C68.5459 85.5216 68.9731 85.9474 69.5105 85.9474Z" fill="#202625"/>
<path d="M186.49 55.8762C176.157 71.1838 147.302 96.8239 114.544 76.9241C81.7862 57.0243 89.9247 25.7714 98.0888 12.6324C105.36 2.93766 126.459 -10.7116 137.506 19.5209C150.789 55.8761 101.916 56.2589 69.0044 44.7783C36.0932 33.2976 8.92237 42.0995 2.03398 73.0972C-4.85441 104.095 23.8469 147.721 53.314 111.749" stroke="black"/>
<g clip-path="url(#clip0)">
<path d="M160.971 25.2482L229.076 14.3799L183.391 38.2275L160.971 25.2482Z" fill="#A7E8AC"/>
<path d="M191.188 41.9167L229.076 14.3799L213.046 53.4761L191.188 41.9167Z" fill="#A7E8AC"/>
<path d="M229.076 14.3799L160.971 25.2482L183.391 38.2275L186.3 56.3161L191.188 41.9167L213.046 53.4761L229.076 14.3799Z" stroke="#1D1D1B" stroke-miterlimit="10"/>
<path d="M186.3 56.3165L197.551 45.2832" stroke="#1D1D1B" stroke-miterlimit="10"/>
<path d="M183.392 38.2275L229.076 14.3799L191.189 41.9167" stroke="#1D1D1B" stroke-miterlimit="10"/>
</g>
<defs>
<clipPath id="clip0">
<rect width="68.8839" height="42.8611" fill="white" transform="translate(160.467 14.1631)"/>
</clipPath>
</defs>
</svg>
