<svg width="419" height="421" viewBox="0 0 419 421" fill="none">
	<g clip-path="url(#clip0)">
		<path d="M154.142 107.976C93.6037 10.228 47.6509 40.3102 39.3999 74.2295C20.8073 150.735 91.3323 225.387 120.772 187.148C128.196 175.807 146.367 143.085 166.072 179.645C190.623 225.202 164.544 238.934 148.379 235.3C99.7532 222.639 -17.4092 211.408 20.9028 316.192C37.3998 368.42 108.127 397.129 141.261 354.424C161.71 324.796 170.888 305.774 180.036 292.443C201.29 261.477 240.408 307.165 298.591 326.533C408.716 365.447 469.341 203.121 350.748 186.845C287.405 174.654 223.193 219.458 154.142 107.976Z" fill="white"></path>
		<path d="M258.886 380.062C258.886 380.062 250.03 387.167 215.139 394.025C199.916 397.017 165.947 393.626 165.947 393.626V209.496H258.886V380.062Z" fill="white"></path>
		<path d="M210.203 142.506C210.203 142.506 234.849 128.968 296.808 116.811L304.208 125.594L239.819 164.556L196.749 153.553L210.203 142.506Z" fill="white"></path>
		<path d="M216.163 143.363C216.163 143.363 192.118 128.798 130.717 114.022L122.953 122.483L185.641 164.141L229.134 154.977L216.163 143.363Z" fill="white"></path>
		<path d="M188.104 86.0124C188.104 86.0124 179.214 110.741 194.293 138.073C209.373 165.404 236.932 138.073 236.932 138.073C236.932 138.073 245.06 104.231 239.827 93.8202C234.595 83.4099 188.104 86.0124 188.104 86.0124Z" fill="white"></path>
		<path d="M129.227 154.104C129.227 154.104 31.0049 223.661 57.4464 283.546C57.4464 283.546 76.124 320.686 112.438 304.113C112.438 304.113 125.451 296.898 134.146 283.758C134.146 283.758 132.292 347.271 133.63 390.405L177.767 411.599L198.349 219.067L207.299 222.542H217.721L242.266 214.548L256.659 420.068L294.031 390.396C294.031 390.396 294.743 308.648 295.157 286.225C295.157 286.225 322.911 327.883 356.82 298.475C356.82 298.475 392.956 277.476 362.019 222.534C362.019 222.534 327.119 166.167 290.137 151.493C290.128 151.51 215.706 149.526 129.227 154.104Z" fill="#6CC2FA"></path>
		<path d="M232.191 122.567C232.191 122.567 228.558 114.616 218.746 121.423" stroke="black" stroke-miterlimit="10"></path>
		<path d="M196.758 122.567C196.758 122.567 200.39 114.616 210.203 121.423" stroke="black" stroke-miterlimit="10"></path>
		<path d="M191.06 132.011C185.726 117.845 186.361 101.297 186.361 101.297C186.361 101.297 191.534 106.638 197.325 106.638C203.125 106.638 206.317 102.315 206.317 102.315C206.317 102.315 210.008 105.977 214.148 104.502C218.28 103.018 220.778 100.687 220.778 100.687C220.778 100.687 231.42 113.649 246.898 111.877C262.375 110.105 259.233 97.1519 257.091 93.5404C254.407 89.0219 249.954 87.0552 245.509 87.0976C245.509 87.0976 247.075 75.5089 232.995 69.1168C218.924 62.7248 207.849 72.5502 207.849 72.5502C207.849 72.5502 195.979 62.9028 186.327 70.4224C176.692 77.9504 177.725 85.6903 178.605 88.9372C178.605 88.9372 167.607 89.8358 169.58 105.57C171.552 121.304 188.901 125.17 188.901 125.17" fill="black"></path>
		<path d="M241.419 110.419C241.419 110.419 241.462 122.11 238.219 131.689" stroke="black" stroke-miterlimit="10"></path>
		<path d="M123.944 121.16L129.811 113.912C141.038 115.684 147.93 118.795 165.761 123.593C186.513 129.163 213.97 140.667 213.97 140.667C213.97 140.667 238.431 129.502 265.143 123.593C281.585 119.956 286.801 117.905 297.105 116.803L302.65 124.195" stroke="black" stroke-miterlimit="10"></path>
		<path d="M215.5 222.534L279.02 201.874L310.956 120.609L216 147H209.5L115.748 117.718L143.917 199.068L210 222.542L215.5 222.534Z" fill="#78D186" stroke="#020202" stroke-miterlimit="10"></path>
		<path d="M187.79 205.335C182.067 196.061 175.996 187.058 171.873 176.927C167.699 166.644 165.167 155.742 163.508 144.772C162.906 140.855 162.415 136.922 161.958 132.963L117 119L144.39 198.104L195.461 217.008C192.752 213.228 190.228 209.294 187.79 205.335Z" fill="#15B54A"></path>
		<path d="M185.835 102.239C185.835 102.239 185.226 118.592 190.39 132.011" stroke="black" stroke-miterlimit="10"></path>
		<path d="M250.081 177.501C275.777 161.165 297.858 196.423 297.858 196.423L275.201 212.285L250.081 177.501Z" fill="white" stroke="black" stroke-miterlimit="10"></path>
		<path d="M344.814 230.757L301.668 193.965L255.338 226.34L295.022 286.242C293.032 283.411 320.515 327.358 356.803 298.492C358.234 297.364 413.911 264.582 322.386 173.288C322.386 173.288 312.793 162.903 298.298 154.129" stroke="black" stroke-miterlimit="10"></path>
		<path d="M310.736 201.128L269.52 248.093" stroke="black" stroke-miterlimit="10"></path>
		<path d="M177.453 177.501C151.757 161.165 129.676 196.423 129.676 196.423L152.341 212.285L177.453 177.501Z" fill="white" stroke="black" stroke-miterlimit="10"></path>
		<path d="M82.7197 230.757L125.849 193.965L172.179 226.34L132.495 286.234C134.485 283.402 105.495 328.078 70.7139 298.484C69.3254 297.297 13.606 264.574 105.131 173.28C105.131 173.28 114.724 162.895 129.227 154.121" stroke="black" stroke-miterlimit="10"></path>
		<path d="M116.79 201.128L158.005 248.093" stroke="black" stroke-miterlimit="10"></path>
		<path d="M210 147.001L211 223.001" stroke="black" stroke-miterlimit="10"></path>
		<path d="M216 147.001L215 223.001" stroke="black" stroke-miterlimit="10"></path>
		<path d="M383 141.099C385.734 136.386 383.482 131.392 383.389 131.189C381.882 128.739 379.943 127.493 377.64 127.408C373.762 127.239 369.546 130.401 366.303 133.529C369.241 127.654 370.02 122.025 370.215 120.143C370.545 119.939 370.799 119.566 370.799 119.126C370.799 118.464 370.308 117.93 369.681 117.93C369.063 117.93 368.564 118.464 368.564 119.126C368.564 119.516 368.767 119.855 369.046 120.075C368.809 122.228 367.751 129.561 363.408 136.191C366.354 126.035 365.092 116.565 364.542 113.488C364.813 113.276 364.991 112.945 364.991 112.564C364.991 111.903 364.5 111.369 363.873 111.369C363.272 111.369 362.756 111.903 362.756 112.564C362.756 113.03 363.027 113.429 363.391 113.615C363.899 116.447 365.203 125.721 362.332 135.691C362.84 122.678 360.563 114.124 355.534 110.241C350.852 106.621 345.611 108.563 345.39 108.647C341.013 110.368 338.295 113.183 337.305 117.006C334.951 126.043 342.85 138.115 345.941 142.396C341.877 141.311 334.079 140.455 330.523 143.397C328.931 144.728 328.364 146.61 328.863 149.026C329.236 150.806 330.227 152.179 331.801 153.103C337.186 156.282 348.024 153.4 351.3 152.408C350.454 158.648 355.83 160.038 355.898 160.055L355.982 160.08H356.067C364.652 159.589 365.49 151.018 365.558 148.67C374.618 147.974 380.485 145.423 383 141.099Z" fill="white"></path>
		<path d="M329.507 148.881C331.496 158.402 352.113 151.509 352.113 151.509C350.631 158.122 356.092 159.436 356.092 159.436C365.524 158.91 365.033 148.068 365.033 148.068C389.874 146.482 382.932 131.409 382.932 131.409C375.955 120.261 361.553 139.861 361.553 139.861C364.516 102.009 345.653 109.198 345.653 109.198C326.264 116.82 347.642 143.566 347.642 143.566C344.163 141.981 327.534 139.344 329.507 148.881Z" stroke="black" stroke-miterlimit="10"></path>
		<path d="M363.823 112.547C363.823 112.547 367.04 125.958 361.689 139.565" stroke="black" stroke-miterlimit="10"></path>
		<path d="M361.672 139.539C369.106 130.909 369.741 119.448 369.741 119.448" stroke="black" stroke-miterlimit="10"></path>
		<path d="M365.042 112.53C365.042 111.869 364.551 111.335 363.924 111.335C363.323 111.335 362.807 111.869 362.807 112.53C362.807 113.191 363.298 113.725 363.924 113.725C364.551 113.725 365.042 113.191 365.042 112.53Z" fill="black"></path>
		<path d="M370.858 119.1C370.858 118.439 370.367 117.905 369.741 117.905C369.123 117.905 368.623 118.439 368.623 119.1C368.623 119.761 369.114 120.295 369.741 120.295C370.359 120.287 370.858 119.753 370.858 119.1Z" fill="black"></path>
		<path d="M41.2579 165.794C41.3256 168.108 42.1469 176.544 50.6051 177.027H50.6898L50.7745 177.01C50.8337 177.001 56.1339 175.628 55.2957 169.482C58.5215 170.457 69.1895 173.297 74.4981 170.16C76.0475 169.244 77.0212 167.897 77.3938 166.142C77.8848 163.76 77.3345 161.911 75.7597 160.597C72.2629 157.707 64.5836 158.546 60.5789 159.614C63.6269 155.401 71.4078 143.515 69.0879 134.622C68.1143 130.858 65.4388 128.095 61.1208 126.391C60.9091 126.306 55.7444 124.399 51.1385 127.959C46.194 131.782 43.9418 140.201 44.4498 153.019C41.622 143.202 42.9004 134.071 43.4 131.282C43.7556 131.096 44.0265 130.706 44.0265 130.248C44.0265 129.595 43.527 129.078 42.9258 129.078C42.3078 129.078 41.8252 129.604 41.8252 130.248C41.8252 130.621 42.003 130.952 42.2654 131.164C41.7235 134.19 40.4789 143.524 43.383 153.519C39.1073 146.991 38.0659 139.768 37.8289 137.649C38.1083 137.437 38.303 137.106 38.303 136.716C38.303 136.064 37.8119 135.538 37.2023 135.538C36.5843 135.538 36.1017 136.064 36.1017 136.716C36.1017 137.157 36.3472 137.522 36.6774 137.725C36.8637 139.582 37.6341 145.126 40.5213 150.908C37.3293 147.83 33.1722 144.711 29.3537 144.88C27.0846 144.965 25.1796 146.194 23.6895 148.602C23.5963 148.805 21.3781 153.714 24.0705 158.359C26.5597 162.615 32.334 165.133 41.2579 165.794Z" fill="white"></path>
		<path d="M58.9027 160.792C58.9027 160.792 79.9509 134.453 60.8585 126.95C60.8585 126.95 42.2825 119.872 45.1951 157.147C45.1951 157.147 31.0134 137.852 24.1469 148.822C24.1469 148.822 17.3058 163.666 41.7661 165.226C41.7661 165.226 41.2835 175.908 50.5714 176.416C50.5714 176.416 55.9478 175.119 54.4915 168.609C54.4915 168.609 74.7947 175.391 76.7505 166.023C78.6978 156.638 62.3232 159.233 58.9027 160.792Z" stroke="black" stroke-miterlimit="10"></path>
		<path d="M45.0759 156.859C39.8012 143.464 42.9762 130.256 42.9762 130.256" stroke="black" stroke-miterlimit="10"></path>
		<path d="M37.1431 137.047C37.1431 137.047 37.7696 148.339 45.0848 156.833" stroke="black" stroke-miterlimit="10"></path>
		<path d="M42.8663 131.41C43.4844 131.41 43.967 130.884 43.967 130.231C43.967 129.578 43.4674 129.061 42.8663 129.061C42.2482 129.061 41.7656 129.587 41.7656 130.231C41.7656 130.884 42.2482 131.41 42.8663 131.41Z" fill="black"></path>
		<path d="M37.1432 137.878C37.7612 137.878 38.2438 137.352 38.2438 136.708C38.2438 136.055 37.7528 135.529 37.1432 135.529C36.5251 135.529 36.0425 136.055 36.0425 136.708C36.0425 137.352 36.5335 137.878 37.1432 137.878Z" fill="black"></path>
		<path d="M294.743 285.793C294.743 285.793 294.76 339.608 293.659 390.439L257.472 420.152L241.428 214.548" stroke="black" stroke-miterlimit="10"></path>
		<path d="M134.273 283.029C134.273 283.029 132.868 339.616 133.977 390.447L177.835 411.683L198.341 219.075" stroke="black" stroke-miterlimit="10"></path>
		<path d="M217.721 222.542C217.721 222.542 225.468 315.371 218.746 387.387" stroke="black" stroke-miterlimit="10"></path>
		<path d="M211.049 234.496C211.905 234.496 212.599 233.801 212.599 232.944C212.599 232.087 211.905 231.393 211.049 231.393C210.194 231.393 209.5 232.087 209.5 232.944C209.5 233.801 210.194 234.496 211.049 234.496Z" fill="black"></path>
		<path d="M211.896 254.079C212.752 254.079 213.445 253.384 213.445 252.527C213.445 251.67 212.752 250.976 211.896 250.976C211.04 250.976 210.347 251.67 210.347 252.527C210.347 253.384 211.04 254.079 211.896 254.079Z" fill="black"></path>
		<path d="M213.589 294.007C214.445 294.007 215.139 293.313 215.139 292.456C215.139 291.599 214.445 290.905 213.589 290.905C212.734 290.905 212.04 291.599 212.04 292.456C212.04 293.313 212.734 294.007 213.589 294.007Z" fill="black"></path>
		<path d="M213.268 314.303C214.123 314.303 214.817 313.608 214.817 312.751C214.817 311.894 214.123 311.2 213.268 311.2C212.412 311.2 211.718 311.894 211.718 312.751C211.718 313.608 212.412 314.303 213.268 314.303Z" fill="black"></path>
		<path d="M212.607 335.454C213.463 335.454 214.156 334.759 214.156 333.902C214.156 333.046 213.463 332.351 212.607 332.351C211.751 332.351 211.058 333.046 211.058 333.902C211.058 334.759 211.751 335.454 212.607 335.454Z" fill="black"></path>
		<path d="M211.896 355.757C212.752 355.757 213.445 355.063 213.445 354.206C213.445 353.349 212.752 352.655 211.896 352.655C211.04 352.655 210.347 353.349 210.347 354.206C210.347 355.063 211.04 355.757 211.896 355.757Z" fill="black"></path>
		<path d="M212.743 273.153C213.598 273.153 214.292 272.458 214.292 271.601C214.292 270.745 213.598 270.05 212.743 270.05C211.887 270.05 211.193 270.745 211.193 271.601C211.193 272.458 211.887 273.153 212.743 273.153Z" fill="black"></path>
		<path d="M179.045 394.695C179.045 394.695 223.131 400.332 255.339 380.715" stroke="black" stroke-miterlimit="10"></path>
	</g>
	<defs>
		<clipPath id="clip0">
			<rect width="419" height="421" fill="white"></rect>
		</clipPath>
	</defs>
</svg>