<svg width="506" height="368" viewBox="0 0 506 368" fill="none">
	<path d="M154.737 135.932C82.5506 85.3885 22.9183 128.923 16.2052 161.266C1.06295 234.209 94.2969 265.224 123.73 218.571C131.044 205.395 148.61 169.023 172.417 189.416C202.08 214.827 174.669 239.427 156.882 244.591C104.084 258.47 20.9308 269.462 64.613 334.324C64.613 334.324 63.6407 333.282 64.613 334.324C72.9491 343.224 124.603 376.608 157.01 347.13C185.908 320.847 203.252 290.797 212.31 275.089C233.336 238.617 213.976 308.713 278.427 295.359C421.706 331.097 493.156 89.9813 363.318 136.48C293.748 158.402 276.718 -40.7002 241.301 60.2325C233.637 87.4494 237.061 193.577 154.737 135.932Z" fill="white"></path>
	<path opacity="0.4" d="M389.113 140.472L163.457 63.5364L112.056 178.246L108.699 218.856L358.237 221.382" fill="white"></path>
	<path d="M128.524 131.396L131.407 127.129L142.067 98.4662L146.539 80.1223L168.558 78.8292L175.031 80.5964C175.031 80.5964 188.359 111.647 169.326 113.233L161.98 111.595L159.952 161.032L125.21 140.214L128.524 131.396Z" fill="white"></path>
	<path d="M323.382 73.9705C323.382 78.66 319.575 82.4615 314.88 82.4615H258.395C256.237 82.4615 254.148 83.1856 252.448 84.5131L229.85 102.185L232.094 85.6769C232.328 83.9787 231.007 82.4615 229.289 82.4615H211.681C206.985 82.4615 203.179 78.66 203.179 73.9705V9.49096C203.179 4.80154 206.985 1 211.681 1H314.88C319.575 1 323.382 4.80154 323.382 9.49096V73.9705Z" fill="white" stroke="black"></path>
	<path d="M505.302 170.187C507.356 164.903 504.24 160.136 504.11 159.946C502.16 157.67 499.967 156.705 497.576 156.989C493.554 157.438 489.713 161.36 486.882 165.092C488.962 158.584 488.867 152.679 488.755 150.714C489.066 150.455 489.264 150.033 489.195 149.567C489.092 148.886 488.496 148.421 487.857 148.524C487.227 148.619 486.796 149.248 486.899 149.929C486.96 150.334 487.218 150.653 487.546 150.826C487.641 153.076 487.736 160.774 484.327 168.282C485.734 157.377 482.92 147.852 481.858 144.774C482.1 144.516 482.229 144.145 482.169 143.749C482.065 143.068 481.47 142.602 480.831 142.706C480.21 142.8 479.769 143.43 479.873 144.111C479.951 144.593 480.287 144.955 480.693 145.093C481.677 147.921 484.5 157.231 483.136 167.946C481.573 154.489 477.853 146.076 472.053 142.895C466.649 139.93 461.565 142.757 461.35 142.878C457.12 145.352 454.764 148.671 454.358 152.757C453.383 162.42 463.456 173.549 467.331 177.445C462.972 176.98 454.807 177.359 451.613 180.945C450.18 182.566 449.904 184.591 450.811 186.996C451.484 188.764 452.718 190.014 454.488 190.712C460.547 193.117 471.25 188.419 474.461 186.876C474.591 193.419 480.356 193.987 480.417 193.987L480.503 193.996L480.589 193.979C489.359 192.1 488.841 183.16 488.539 180.73C497.775 178.592 503.411 175.032 505.302 170.187Z" fill="white"></path>
	<path d="M451.457 186.764C455.031 196.22 475.159 185.841 475.159 185.841C474.693 192.867 480.528 193.349 480.528 193.349C490.161 191.298 487.917 180.238 487.917 180.238C513.251 174.626 503.678 160.256 503.678 160.256C494.71 149.929 483.014 172.368 483.014 172.368C479.993 133.008 461.711 143.412 461.711 143.412C442.972 154.351 469.273 178.402 469.273 178.402C465.449 177.324 447.892 177.281 451.457 186.764Z" stroke="black" stroke-miterlimit="10"></path>
	<path d="M480.977 143.938C480.977 143.938 486.449 157.196 483.109 172.032" stroke="black" stroke-miterlimit="10"></path>
	<path d="M483.092 172.015C489.359 161.955 488.176 150.076 488.176 150.076" stroke="black" stroke-miterlimit="10"></path>
	<path d="M482.229 143.723C482.125 143.042 481.53 142.576 480.891 142.68C480.27 142.775 479.83 143.404 479.933 144.085C480.037 144.766 480.632 145.232 481.271 145.128C481.918 145.025 482.333 144.395 482.229 143.723Z" fill="black"></path>
	<path d="M489.272 149.533C489.169 148.852 488.573 148.387 487.934 148.49C487.304 148.585 486.873 149.214 486.976 149.895C487.08 150.576 487.675 151.042 488.314 150.938C488.944 150.835 489.376 150.214 489.272 149.533Z" fill="black"></path>
	<path d="M413.297 57.5544C413.349 59.1663 413.919 65.0195 419.806 65.3557H419.866L419.926 65.3385C419.97 65.3298 423.655 64.373 423.077 60.1146C425.321 60.7956 432.753 62.761 436.447 60.5887C437.526 59.9594 438.208 59.0198 438.458 57.8043C438.804 56.1492 438.415 54.8648 437.319 53.9511C434.885 51.9426 429.542 52.5201 426.754 53.2701C428.877 50.3478 434.289 42.0896 432.675 35.9089C431.993 33.2969 430.129 31.3746 427.134 30.1936C426.987 30.1333 423.388 28.8144 420.185 31.2884C416.741 33.9435 415.179 39.788 415.524 48.6927C413.556 41.8741 414.445 35.5296 414.799 33.5986C415.05 33.4693 415.231 33.2021 415.231 32.8745C415.231 32.4263 414.877 32.0556 414.463 32.0556C414.031 32.0556 413.694 32.4177 413.694 32.8745C413.694 33.1331 413.815 33.3659 414.005 33.5038C413.625 35.6072 412.762 42.0896 414.782 49.0289C411.804 44.4947 411.079 39.4777 410.915 38.0122C411.105 37.8657 411.243 37.6329 411.243 37.3657C411.243 36.9174 410.898 36.5468 410.475 36.5468C410.043 36.5468 409.707 36.9088 409.707 37.3657C409.707 37.6674 409.879 37.926 410.104 38.0639C410.233 39.3484 410.768 43.2016 412.779 47.2187C410.561 45.0808 407.661 42.9171 405.002 43.0378C403.423 43.0982 402.094 43.9516 401.058 45.6239C400.989 45.7618 399.452 49.1755 401.325 52.3994C403.06 55.3476 407.083 57.0889 413.297 57.5544Z" fill="white"></path>
	<path d="M425.589 54.0815C425.589 54.0815 440.245 35.7893 426.953 30.574C426.953 30.574 414.023 25.6604 416.051 51.5471C416.051 51.5471 406.176 38.1426 401.395 45.7715C401.395 45.7715 396.63 56.0814 413.66 57.1589C413.66 57.1589 413.323 64.5723 419.788 64.9344C419.788 64.9344 423.535 64.0292 422.516 59.5122C422.516 59.5122 436.655 64.2189 438.018 57.7106C439.374 51.1937 427.963 52.9953 425.589 54.0815Z" stroke="black" stroke-miterlimit="10"></path>
	<path d="M415.955 51.3403C412.278 42.039 414.487 32.867 414.487 32.867" stroke="black" stroke-miterlimit="10"></path>
	<path d="M410.431 37.5825C410.431 37.5825 410.863 45.4183 415.964 51.3232" stroke="black" stroke-miterlimit="10"></path>
	<path d="M414.419 33.6683C414.85 33.6683 415.187 33.3062 415.187 32.8493C415.187 32.4011 414.833 32.0304 414.419 32.0304C413.987 32.0304 413.65 32.3925 413.65 32.8493C413.65 33.3062 413.987 33.6683 414.419 33.6683Z" fill="black"></path>
	<path d="M410.431 38.1592C410.863 38.1592 411.2 37.7971 411.2 37.3402C411.2 36.892 410.854 36.5213 410.431 36.5213C410 36.5213 409.663 36.8834 409.663 37.3402C409.663 37.7971 410.008 38.1592 410.431 38.1592Z" fill="black"></path>
	<path d="M86.0223 54.7097C86.0827 56.6751 86.7819 63.8213 93.9633 64.2265H94.0324L94.1014 64.2092C94.1532 64.2006 98.6503 63.0369 97.9425 57.8302C100.679 58.6578 109.742 61.0628 114.248 58.4078C115.56 57.632 116.388 56.4941 116.708 55.0028C117.13 52.9856 116.656 51.4167 115.318 50.3047C112.349 47.8566 105.832 48.5634 102.431 49.4686C105.02 45.8998 111.624 35.8313 109.656 28.2972C108.827 25.1077 106.557 22.763 102.888 21.3234C102.707 21.2544 98.3223 19.6338 94.4122 22.6595C90.2086 25.9008 88.301 33.0297 88.7326 43.8826C86.3244 35.5641 87.4206 27.8317 87.8436 25.4697C88.1457 25.306 88.3787 24.9784 88.3787 24.5905C88.3787 24.0388 87.9471 23.5991 87.4465 23.5991C86.9286 23.5991 86.5143 24.0388 86.5143 24.5905C86.5143 24.9094 86.661 25.1853 86.8854 25.3663C86.4193 27.9351 85.3663 35.8313 87.8349 44.305C84.201 38.7708 83.3206 32.659 83.1221 30.866C83.3551 30.685 83.5278 30.4005 83.5278 30.073C83.5278 29.5213 83.1048 29.0816 82.5956 29.0816C82.0777 29.0816 81.6633 29.5213 81.6633 30.073C81.6633 30.4436 81.8705 30.754 82.1553 30.9264C82.3107 32.4953 82.9667 37.1933 85.4267 42.0982C82.7164 39.4863 79.1861 36.8485 75.9492 36.995C74.0244 37.064 72.4017 38.1071 71.1415 40.1501C71.0638 40.3225 69.1821 44.486 71.4608 48.4169C73.541 52.0202 78.4438 54.1494 86.0223 54.7097Z" fill="white"></path>
	<path d="M101.015 50.4772C101.015 50.4772 118.891 28.168 102.681 21.8062C102.681 21.8062 86.9028 15.8152 89.38 47.3826C89.38 47.3826 77.339 31.0385 71.504 40.3312C71.504 40.3312 65.695 52.8995 86.4712 54.2271C86.4712 54.2271 86.0655 63.2697 93.9461 63.7093C93.9461 63.7093 98.5122 62.6059 97.2779 57.0976C97.2779 57.0976 114.515 62.8387 116.181 54.9081C117.821 46.9515 103.916 49.1497 101.015 50.4772Z" stroke="black" stroke-miterlimit="10"></path>
	<path d="M89.2588 47.1408C84.779 35.7965 87.4721 24.6074 87.4721 24.6074" stroke="black" stroke-miterlimit="10"></path>
	<path d="M82.5264 30.3569C82.5264 30.3569 83.0615 39.9168 89.2763 47.1147" stroke="black" stroke-miterlimit="10"></path>
	<path d="M87.3863 25.5822C87.9128 25.5822 88.3185 25.134 88.3185 24.5909C88.3185 24.0392 87.8869 23.5996 87.3863 23.5996C86.8684 23.5996 86.4541 24.0392 86.4541 24.5909C86.4541 25.134 86.8684 25.5822 87.3863 25.5822Z" fill="black"></path>
	<path d="M82.5269 31.0548C83.0448 31.0548 83.4591 30.6151 83.4591 30.0634C83.4591 29.5117 83.0448 29.0721 82.5269 29.0721C82.0004 29.0721 81.5947 29.5117 81.5947 30.0634C81.5947 30.6151 82.009 31.0548 82.5269 31.0548Z" fill="black"></path>
	<path d="M239.312 347.799C239.312 347.799 245.164 347.799 251.776 352.169C258.707 356.755 259.233 365.798 259.233 365.798L183.716 365.651H181.963L239.312 347.799Z" fill="#54B057" stroke="#020202" stroke-miterlimit="10"></path>
	<path d="M160.341 250.01L193.693 246.398C193.693 246.398 236.316 237.079 236.497 268.845L240.416 347.798L180.021 365.728L180.098 338.549L179.977 336.988L180.09 316.929C158.234 320.231 122.595 318.575 122.595 318.575C122.595 318.575 69.7263 324.282 77.4343 260.104" fill="white"></path>
	<path d="M160.341 250.01L193.693 246.398C193.693 246.398 236.316 237.079 236.497 268.845L240.416 347.798L180.021 365.728L180.098 338.549L179.977 336.988L180.09 316.929C158.234 320.231 122.595 318.575 122.595 318.575C122.595 318.575 69.7263 324.282 77.4343 260.104" stroke="black" stroke-miterlimit="10"></path>
	<path d="M179.857 302.266L179.969 336.592" stroke="black" stroke-miterlimit="10"></path>
	<path d="M180.176 347.281L239.768 340.316" stroke="black" stroke-miterlimit="10"></path>
	<path d="M54.0254 310.163C51.4014 336.998 76.6229 362.376 110.372 366.815C144.13 371.263 173.624 353.117 176.266 326.283L54.0254 310.163Z" fill="#BFFDCB" stroke="black" stroke-miterlimit="10"></path>
	<path d="M39.5419 145.895C13.0343 151.489 -3.70233 192.789 2.17577 238.158C8.05387 283.543 34.3025 315.8 60.8101 310.223L39.5419 145.895Z" fill="#BFFDCB" stroke="black" stroke-miterlimit="10"></path>
	<path d="M40.8103 70.4847C28.3722 71.2864 18.023 89.001 17.7123 110.052C17.4015 131.111 27.2242 147.524 39.6623 146.731L40.8103 70.4847Z" fill="#BFFDCB" stroke="black" stroke-miterlimit="10"></path>
	<path d="M247.381 164.239C271.385 155.205 283.996 172.359 283.996 172.359L251.55 182.6" fill="white"></path>
	<path d="M247.381 164.239C271.385 155.205 283.996 172.359 283.996 172.359L251.55 182.6" stroke="black" stroke-miterlimit="10"></path>
	<path d="M116.432 138.982C97.676 167.428 123.95 182.523 123.95 182.523L172.641 210.219C183.586 216.047 197.207 210.926 197.207 210.926L255.867 192.453L247.019 160.403L201.755 163.989C189.274 164.601 182.973 158.3 183.293 158.36L164.061 139.309C164.061 139.309 135.197 110.535 116.432 138.982Z" fill="#6CC2FA" stroke="#020202" stroke-miterlimit="10"></path>
	<path d="M116.034 138.403C97.278 166.85 123.553 181.944 123.553 181.944L172.252 209.641C183.197 215.468 196.817 210.348 196.817 210.348L255.374 192.245L251.844 180.091L184.431 189.039C169.3 190.771 143.215 174.608 161.989 162.014L135.188 152.791C135.197 152.782 134.791 109.948 116.034 138.403Z" fill="#3495EE"></path>
	<path d="M132.236 124.421C145.011 119.163 167.72 128.835 167.72 128.835L165.718 148.282" fill="#3495EE"></path>
	<path d="M132.236 124.421C145.011 119.163 167.72 128.835 167.72 128.835L165.718 148.282" stroke="#020202" stroke-miterlimit="10"></path>
	<path d="M161.998 111.595L161.342 126.31" stroke="black" stroke-miterlimit="10"></path>
	<path d="M156.958 105.855C156.958 105.855 160.065 113.699 169.344 113.233C177.993 112.794 178.787 105.148 178.787 105.148C178.787 105.148 179.426 102.156 179.029 96.6826C178.252 89.657 176.353 84.4159 175.171 82.2177" stroke="black" stroke-miterlimit="10"></path>
	<path d="M134.257 102.121C127.584 95.5436 134.757 84.5269 134.757 84.5269C134.757 84.5269 126.229 74.6136 137.467 64.8554C148.706 55.1059 158.27 66.364 158.27 66.364C167.704 58.3644 171.959 69.8466 171.959 69.8466C174.972 68.8639 180.582 70.8724 179.771 77.8634C178.959 84.8286 161.783 83.9321 156.578 83.639C151.364 83.3459 151.054 89.7163 151.054 89.7163C148.412 88.6905 145.806 90.3714 147.152 95.0522C148.499 99.733 153.246 97.2935 153.246 97.2935C151.14 105.129 140.92 108.707 134.257 102.121Z" fill="black"></path>
	<path d="M167.72 166.859C167.72 142.929 160.073 129.956 143.276 125.387C116.682 118.163 109.457 143.403 109.457 143.403C109.457 143.403 89.406 184.186 80.8349 222.098C69.5793 271.94 81.629 301.844 81.629 301.844L176.68 256.932C176.68 256.932 171.682 227.968 167.72 166.859Z" fill="#6CC2FA" stroke="#020202" stroke-miterlimit="10"></path>
	<path d="M133.885 133.266C147.661 128.93 156.483 141.498 156.483 141.498L242.876 246.433L219.087 266.371L174.074 225.287C174.074 225.287 168.558 228.597 163.707 223.942C159.883 220.27 161.204 215.477 161.204 215.477L114.982 173.117" fill="#6CC2FA"></path>
	<path d="M133.885 133.266C147.661 128.93 156.483 141.498 156.483 141.498L242.876 246.433L219.087 266.371L174.074 225.287C174.074 225.287 168.558 228.597 163.707 223.942C159.883 220.27 161.204 215.477 161.204 215.477L114.982 173.117" stroke="#020202" stroke-miterlimit="10"></path>
	<path d="M244.317 289.163C257.575 274.577 237.869 251.242 237.869 251.242L222.471 264.017L244.317 289.163Z" fill="white" stroke="black" stroke-miterlimit="10"></path>
	<path d="M203.741 252.354L237.24 239.621" stroke="black" stroke-miterlimit="10"></path>
	<path d="M164.44 93.0617C169.248 88.855 171.682 92.8376 171.682 92.8376" stroke="black" stroke-miterlimit="10"></path>
	<path d="M132.236 124.422L139.348 105.138" stroke="#020202" stroke-miterlimit="10"></path>
	<path d="M268.338 365.729V230.615H431.294V367.488L268.338 365.729Z" fill="white" stroke="black" stroke-miterlimit="10"></path>
	<path d="M359.747 221.158H273.052V230.615H359.747V221.158Z" fill="#BFFDCB" stroke="#020202" stroke-miterlimit="10"></path>
	<path d="M368.086 224.741L398.958 143.839L390.111 140.472L359.239 221.374L368.086 224.741Z" fill="#BFFDCB" stroke="#020202" stroke-miterlimit="10"></path>
	<path d="M350.045 252.587L320.758 296.775L350.045 313.421L378.883 297.447L350.045 252.587Z" fill="white" stroke="black" stroke-miterlimit="10"></path>
	<path d="M320.758 305.757L349.82 321.283L378.883 304.637L349.82 348.954L320.758 305.757Z" fill="white" stroke="black" stroke-miterlimit="10"></path>
	<path d="M350.045 252.587V313.42" stroke="black" stroke-miterlimit="10"></path>
	<path d="M320.758 296.775L349.82 282.681L378.883 297.448" stroke="black" stroke-miterlimit="10"></path>
	<path d="M243.583 59.4638C242.668 59.4638 241.753 59.119 241.054 58.4208L226.561 43.9474C225.163 42.5509 225.163 40.2924 226.561 38.8959L241.675 23.8018C243.074 22.4053 245.335 22.4053 246.733 23.8018C248.132 25.1983 248.132 27.4568 246.733 28.8533L234.149 41.4216L246.112 53.3693C247.51 54.7658 247.51 57.0243 246.112 58.4208C245.413 59.119 244.498 59.4638 243.583 59.4638Z" fill="#BFFDCB" stroke="black"></path>
	<path d="M283.772 59.4638C282.857 59.4638 281.942 59.119 281.243 58.4208C279.844 57.0243 279.844 54.7658 281.243 53.3693L293.827 40.801L281.864 28.8533C280.466 27.4568 280.466 25.1983 281.864 23.8018C283.262 22.4053 285.524 22.4053 286.922 23.8018L301.415 38.2752C302.088 38.9476 302.459 39.8527 302.459 40.801C302.459 41.7492 302.079 42.6543 301.415 43.3267L286.301 58.4208C285.602 59.119 284.687 59.4638 283.772 59.4638Z" fill="#BFFDCB" stroke="black"></path>
	<path d="M257.437 62.9458C257.152 62.9458 256.859 62.9114 256.565 62.8424C254.649 62.3597 253.484 60.4287 253.967 58.515C254.028 58.2737 254.123 57.9116 267.64 21.4048C268.322 19.5514 270.384 18.6118 272.232 19.2928C274.087 19.9738 275.028 22.0341 274.346 23.8788C269.15 37.904 261.321 59.1012 260.847 60.4546C260.372 61.9545 258.965 62.9458 257.437 62.9458Z" fill="#BFFDCB" stroke="black"></path>
	<path d="M474.729 187.022C474.729 187.022 458.89 230.607 428.006 205.444C428.006 205.444 406.254 186.462 428.006 153.921C465.571 97.7251 398.003 70.4851 368.94 113.242C345.35 147.947 329.856 158.145 284.005 172.359" stroke="black" stroke-miterlimit="10"></path>
</svg>