<svg width="567" height="374" viewBox="0 0 567 374" fill="none" xmlns="http://www.w3.org/2000/svg">
<g clip-path="url(#clip0)">
<path d="M279.589 105.9C234.864 8.18187 154.546 23.2326 127.443 50.3418C66.3346 111.474 135.871 191.747 195.766 165.871C211.632 157.894 252.647 134.126 265.097 169.989C280.606 214.676 236.505 220.357 214.575 213.497C149.364 191.354 -8.82003 147.533 0.383671 246.091C7.8929 326.481 95.3281 321.327 151.219 313.761C197.924 307.437 234.802 289.689 254.065 280.408C298.791 258.855 316.681 296.388 392.816 326.49C487.993 364.121 664.451 287.599 498.927 246.1C412.08 220.938 517.432 15.015 417.627 89.9115C392.709 111.358 330.602 217.338 279.589 105.9Z" fill="#DAFDF7"/>
<path d="M136.843 295.397L136.994 230.138C136.994 230.093 137.012 229.924 137.03 229.647L135.505 191.247C133.739 176.822 130.297 160.297 123.724 145.22C123.305 142.067 122.707 139.566 121.949 137.574L118.872 125.712L118.605 125.676C118.346 125.64 116.919 127.721 113.78 127.579L112.674 118.36C113.325 118.494 114.021 118.575 114.743 118.575C116.018 118.575 117.41 118.343 118.89 117.771C126.328 114.948 124.821 107.445 124.803 107.383C124.794 107.356 124.286 104.408 123.162 101.175C122.868 100.246 122.172 98.4953 121.592 97.0751C121.682 97.0215 121.771 96.9679 121.869 96.9411C122.805 96.557 123.706 97.0572 123.724 97.0661L124.116 96.3784C124.072 96.3516 122.886 95.6906 121.592 96.1997C121.494 96.2354 121.396 96.289 121.298 96.3426C120.977 95.5566 120.736 94.9849 120.701 94.9135C120.683 94.8778 119.042 91.6622 116.393 88.4466L116.357 88.4734C115.403 87.2765 114.092 85.8473 112.621 84.7665C112.621 84.7665 98.3067 71.3235 84.9203 87.4372C84.9203 87.4372 81.7364 92.8323 77.6697 95.2976C71.0166 99.3349 68.903 104.096 70.428 110.259C71.7212 115.529 68.3233 118.566 64.9789 120.808C62.6512 122.371 57.9334 124.506 56.3638 133.018C55.0974 139.833 48.7119 143.505 46.7677 147.247C42.7812 154.893 43.6998 167.782 51.7887 174.544C57.0416 178.939 64.64 181.413 71.3377 180.511L49.2381 273.245L79.3998 276.192L87.6939 372.499L86.588 372.892H87.7295L87.7474 373.035L88.1665 372.892H97.5665L151.371 372.883L151.344 372.464C151.326 372.133 150.809 364.264 144.637 360.182C139.67 356.895 135.246 356.377 133.909 356.287L134.221 349.919L134.435 349.901L134.363 349.106L134.265 349.115L136.834 296.04" fill="white"/>
<path d="M109.312 130.812L130.136 128.213C129.949 128.374 136.807 127.552 142.399 119.629L161.823 90.2241L185.653 100.228L168.94 144.987C168.94 144.987 165.56 155.778 156.775 159.672L116.58 176.125C116.58 176.125 94.8019 184.932 86.3741 159.788C77.9552 134.635 109.312 130.812 109.312 130.812Z" fill="#78D186"/>
<path d="M109.312 130.812L112.353 156.876C112.166 157.037 146.376 153.482 159.076 132.831L175.263 95.8692L185.644 100.228L168.931 144.987C168.931 144.987 165.551 155.777 156.766 159.672L116.571 176.125C116.571 176.125 94.7928 184.932 86.365 159.788C77.955 134.635 109.312 130.812 109.312 130.812Z" fill="#15B54A"/>
<path d="M109.312 130.812L130.136 128.213C129.949 128.374 136.807 127.552 142.399 119.629L161.823 90.2241L185.653 100.228L168.94 144.987C168.94 144.987 165.56 155.778 156.775 159.672L116.58 176.125C116.58 176.125 94.8019 184.932 86.3741 159.788C77.9552 134.635 109.312 130.812 109.312 130.812Z" stroke="#020202" stroke-miterlimit="10"/>
<path d="M136.334 230.147C136.334 230.147 139.777 182.27 122.466 143.969C105.156 105.668 107.769 198.974 107.769 198.974L121.806 231.871L136.334 230.147Z" fill="white" stroke="black" stroke-miterlimit="10"/>
<path d="M179.062 97.6021L188.293 72.8331C188.293 72.8331 171.785 72.2883 165.836 91.3139" fill="white"/>
<path d="M179.062 97.6021L188.293 72.8331C188.293 72.8331 171.785 72.2883 165.836 91.3139" stroke="black" stroke-miterlimit="10"/>
<path d="M133.231 356.68C133.231 356.68 138.359 356.68 144.147 360.521C150.22 364.55 150.675 372.499 150.675 372.499L97.2898 372.508H88.6123L133.231 356.68Z" fill="#15B54A" stroke="#020202" stroke-miterlimit="10"/>
<path d="M196.721 291.797C196.721 291.797 201.849 291.797 207.637 295.638C213.71 299.666 214.165 307.616 214.165 307.616L156.321 306.732H154.778L196.721 291.797Z" fill="#15B54A" stroke="#020202" stroke-miterlimit="10"/>
<path d="M133.231 356.68L87.8278 372.499L101.25 310.644C101.25 310.644 102.222 302.542 99.1987 294.879C92.4743 277.863 64.0962 237.025 64.0962 237.025L136.335 230.37L151.353 286.08C151.514 286.313 153.27 292.887 151.353 299.318C146.457 315.717 133.231 356.68 133.231 356.68Z" stroke="black" stroke-miterlimit="10"/>
<path d="M135.576 349.401L91.627 353.34" stroke="black" stroke-miterlimit="10"/>
<path d="M109.704 241.16C109.704 241.16 115.1 277.818 93.0806 282.534" stroke="black" stroke-miterlimit="10"/>
<path d="M127.524 214.801L156.74 202.698C156.74 202.698 192.957 184.888 194.241 222.43L197.675 291.806L153.074 306.803L153.146 282.918L153.039 266.394L153.137 261.642C144.094 269.574 128.255 280.623 128.255 280.623C128.255 280.623 98.6817 295.004 90.022 276.666" fill="white"/>
<path d="M127.524 214.801L156.74 202.698C156.74 202.698 192.957 184.888 194.241 222.43L197.675 291.806L153.074 306.803L153.146 282.918L153.039 266.394L153.137 261.642C144.094 269.574 128.255 280.623 128.255 280.623C128.255 280.623 98.6817 295.004 90.022 276.666" stroke="black" stroke-miterlimit="10"/>
<path d="M386.083 109.723H413.819L407.05 68.3849H392.852L386.083 109.723Z" fill="white" stroke="black" stroke-miterlimit="10"/>
<path d="M365.75 110.08H379.716L376.309 89.7328H369.156L365.75 110.08Z" fill="white" stroke="black" stroke-miterlimit="10"/>
<path d="M375.336 71.7702C375.336 58.1575 386.359 47.1173 399.951 47.1173C413.543 47.1173 424.566 58.1575 424.566 71.7702H375.336Z" fill="#15B54A" stroke="black" stroke-miterlimit="10"/>
<path d="M359.399 91.0012C359.399 83.9805 365.089 78.2817 372.099 78.2817C379.109 78.2817 384.799 83.9805 384.799 91.0012H359.399Z" fill="#15B54A" stroke="black" stroke-miterlimit="10"/>
<path d="M252.924 127.855C253.022 131 254.137 142.433 265.597 143.085H265.704L265.811 143.058C265.891 143.04 273.07 141.182 271.947 132.857C276.317 134.179 290.782 138.029 297.97 133.777C300.066 132.545 301.395 130.705 301.894 128.338C302.563 125.113 301.814 122.594 299.683 120.826C294.938 116.905 284.539 118.039 279.117 119.495C283.246 113.787 293.788 97.6735 290.648 85.6061C289.328 80.5059 285.699 76.7543 279.857 74.4498C279.563 74.3337 272.571 71.7523 266.328 76.5846C259.622 81.7742 256.58 93.1806 257.258 110.554C253.423 97.2448 255.162 84.8648 255.84 81.0865C256.331 80.8274 256.687 80.3004 256.687 79.6841C256.687 78.7998 256.001 78.0942 255.198 78.0942C254.369 78.0942 253.709 78.7998 253.709 79.6841C253.709 80.1932 253.941 80.6398 254.306 80.9167C253.566 85.0256 251.889 97.6646 255.822 111.224C250.025 102.372 248.616 92.5822 248.295 89.715C248.67 89.4291 248.937 88.9736 248.937 88.4466C248.937 87.5623 248.269 86.8567 247.448 86.8567C246.619 86.8567 245.959 87.5623 245.959 88.4466C245.959 89.045 246.289 89.5363 246.735 89.8132C246.984 92.3232 248.028 99.8441 251.952 107.687C247.626 103.506 241.99 99.2903 236.817 99.5136C233.741 99.6297 231.154 101.291 229.139 104.56C229.014 104.828 226.008 111.492 229.656 117.789C233.009 123.55 240.84 126.953 252.924 127.855Z" fill="white"/>
<path d="M276.843 121.076C276.843 121.076 305.372 85.3739 279.5 75.2002C279.5 75.2002 254.324 65.607 258.275 116.136C258.275 116.136 239.056 89.974 229.745 104.855C229.745 104.855 220.47 124.97 253.628 127.087C253.628 127.087 252.977 141.566 265.561 142.263C265.561 142.263 272.847 140.503 270.876 131.678C270.876 131.678 298.389 140.87 301.047 128.168C303.678 115.431 281.48 118.959 276.843 121.076Z" stroke="black" stroke-miterlimit="10"/>
<path d="M258.097 115.734C250.944 97.5753 255.243 79.6752 255.243 79.6752" stroke="black" stroke-miterlimit="10"/>
<path d="M247.35 88.8753C247.35 88.8753 248.197 104.176 258.115 115.699" stroke="black" stroke-miterlimit="10"/>
<path d="M255.109 81.2383C255.947 81.2383 256.598 80.5237 256.598 79.6484C256.598 78.7641 255.912 78.0584 255.109 78.0584C254.28 78.0584 253.62 78.7641 253.62 79.6484C253.62 80.5237 254.271 81.2383 255.109 81.2383Z" fill="black"/>
<path d="M247.35 90.0008C248.179 90.0008 248.839 89.2952 248.839 88.4109C248.839 87.5266 248.17 86.8209 247.35 86.8209C246.511 86.8209 245.86 87.5266 245.86 88.4109C245.86 89.2862 246.529 90.0008 247.35 90.0008Z" fill="black"/>
<path d="M511.341 134.823C514.284 129.74 511.858 124.363 511.76 124.149C510.137 121.514 508.041 120.174 505.562 120.075C501.388 119.888 496.84 123.3 493.353 126.667C496.519 120.335 497.357 114.27 497.562 112.242C497.919 112.028 498.186 111.626 498.186 111.143C498.186 110.429 497.66 109.857 496.982 109.857C496.322 109.857 495.778 110.429 495.778 111.143C495.778 111.563 495.992 111.929 496.296 112.162C496.037 114.475 494.904 122.38 490.222 129.526C493.397 118.584 492.042 108.383 491.444 105.069C491.738 104.837 491.926 104.48 491.926 104.069C491.926 103.354 491.399 102.783 490.722 102.783C490.071 102.783 489.518 103.354 489.518 104.069C489.518 104.569 489.812 104.998 490.204 105.203C490.757 108.249 492.158 118.244 489.063 128.99C489.616 114.966 487.154 105.757 481.741 101.568C476.702 97.6646 471.057 99.7548 470.816 99.8441C466.098 101.702 463.173 104.73 462.103 108.848C459.57 118.584 468.078 131.589 471.405 136.198C467.026 135.028 458.634 134.108 454.808 137.279C453.086 138.708 452.48 140.745 453.024 143.344C453.425 145.264 454.495 146.738 456.19 147.739C461.996 151.168 473.67 148.06 477.193 146.997C476.283 153.714 482.071 155.215 482.142 155.233L482.231 155.259H482.321C491.569 154.732 492.47 145.497 492.55 142.969C502.315 142.227 508.639 139.476 511.341 134.823Z" fill="white"/>
<path d="M453.729 143.21C455.869 153.464 478.076 146.041 478.076 146.041C476.479 153.16 482.365 154.581 482.365 154.581C492.523 154.018 491.997 142.335 491.997 142.335C518.752 140.628 511.27 124.39 511.27 124.39C503.761 112.385 488.252 133.492 488.252 133.492C491.435 92.7162 471.119 100.451 471.119 100.451C450.242 108.66 473.26 137.475 473.26 137.475C469.523 135.778 451.606 132.929 453.729 143.21Z" stroke="black" stroke-miterlimit="10"/>
<path d="M490.686 104.069C490.686 104.069 494.155 118.521 488.385 133.17" stroke="black" stroke-miterlimit="10"/>
<path d="M488.376 133.152C496.376 123.854 497.062 111.501 497.062 111.501" stroke="black" stroke-miterlimit="10"/>
<path d="M492.006 104.042C492.006 103.328 491.48 102.756 490.802 102.756C490.151 102.756 489.598 103.328 489.598 104.042C489.598 104.757 490.124 105.328 490.802 105.328C491.471 105.328 492.006 104.757 492.006 104.042Z" fill="black"/>
<path d="M498.266 111.125C498.266 110.411 497.74 109.839 497.062 109.839C496.402 109.839 495.858 110.411 495.858 111.125C495.858 111.84 496.385 112.412 497.062 112.412C497.731 112.403 498.266 111.831 498.266 111.125Z" fill="black"/>
<path d="M133.454 42.9728C133.516 45.0093 134.239 52.4141 141.659 52.8339H141.73L141.802 52.8161C141.855 52.8071 146.501 51.6013 145.77 46.2062C148.597 47.0637 157.962 49.5558 162.617 46.8047C163.972 46.0008 164.829 44.8217 165.159 43.2765C165.596 41.1863 165.105 39.5607 163.723 38.4084C160.655 35.8717 153.922 36.6041 150.408 37.542C153.083 33.8441 159.906 23.4113 157.872 15.6045C157.016 12.2996 154.671 9.87006 150.88 8.37838C150.693 8.30692 146.163 6.62767 142.123 9.76287C137.779 13.1214 135.808 20.5083 136.254 31.7539C133.766 23.1344 134.899 15.1222 135.336 12.6748C135.648 12.5051 135.889 12.1656 135.889 11.7637C135.889 11.192 135.443 10.7365 134.925 10.7365C134.39 10.7365 133.962 11.192 133.962 11.7637C133.962 12.0942 134.114 12.38 134.346 12.5676C133.864 15.2294 132.776 23.4113 135.327 32.1916C131.572 26.4571 130.663 20.1242 130.457 18.2663C130.698 18.0787 130.877 17.784 130.877 17.4446C130.877 16.8729 130.44 16.4174 129.913 16.4174C129.378 16.4174 128.95 16.8729 128.95 17.4446C128.95 17.8286 129.164 18.1502 129.459 18.3288C129.619 19.9545 130.297 24.8226 132.839 29.905C130.038 27.1985 126.391 24.4653 123.046 24.6171C121.058 24.6886 119.381 25.7694 118.079 27.8863C117.999 28.0649 116.054 32.3792 118.409 36.4523C120.558 40.1859 125.624 42.3922 133.454 42.9728Z" fill="white"/>
<path d="M148.936 38.5871C148.936 38.5871 167.406 15.4706 150.657 8.8786C150.657 8.8786 134.355 2.67073 136.914 35.3804C136.914 35.3804 124.473 18.445 118.444 28.0739C118.444 28.0739 112.442 41.097 133.909 42.4726C133.909 42.4726 133.49 51.8425 141.632 52.298C141.632 52.298 146.35 51.1547 145.074 45.447C145.074 45.447 162.884 51.3959 164.606 43.1782C166.309 34.9338 151.942 37.2115 148.936 38.5871Z" stroke="black" stroke-miterlimit="10"/>
<path d="M136.798 35.1303C132.17 23.3755 134.952 11.7816 134.952 11.7816" stroke="black" stroke-miterlimit="10"/>
<path d="M129.842 17.7393C129.842 17.7393 130.395 27.6451 136.816 35.1035" stroke="black" stroke-miterlimit="10"/>
<path d="M134.863 12.7909C135.407 12.7909 135.826 12.3264 135.826 11.7637C135.826 11.192 135.38 10.7365 134.863 10.7365C134.328 10.7365 133.9 11.192 133.9 11.7637C133.9 12.3264 134.328 12.7909 134.863 12.7909Z" fill="black"/>
<path d="M129.842 18.4628C130.377 18.4628 130.805 18.0073 130.805 17.4356C130.805 16.864 130.377 16.4084 129.842 16.4084C129.298 16.4084 128.879 16.864 128.879 17.4356C128.879 18.0073 129.307 18.4628 129.842 18.4628Z" fill="black"/>
<path d="M110.561 128.034C110.561 128.034 104.755 122.818 91.5111 125.086L91.0474 128.856" stroke="black" stroke-miterlimit="10"/>
<path d="M113.138 127.748L111.952 117.878" stroke="black" stroke-miterlimit="10"/>
<path d="M110.23 102.274C110.23 102.274 111.069 98.7454 115.635 100.728" stroke="black" stroke-miterlimit="10"/>
<path d="M123.653 96.7357C123.653 96.7357 120.701 95.0475 119.372 99.4421" stroke="black" stroke-miterlimit="10"/>
<path d="M105.896 114.028C105.896 114.028 110.792 120.352 118.489 117.414C125.695 114.68 124.161 107.463 124.161 107.463C124.161 107.463 123.652 104.551 122.538 101.3C122.011 99.6297 120.094 95.1011 120.094 95.1011C120.094 95.1011 118.489 91.9302 115.831 88.7056" stroke="black" stroke-miterlimit="10"/>
<path d="M91.8589 122.309L92.5634 115.261" stroke="black" stroke-miterlimit="10"/>
<path d="M118.284 126.078L122.466 143.969L101.705 140.807L93.0806 132.375C93.0895 132.357 100.813 126.087 118.284 126.078Z" fill="#0B3184"/>
<path d="M121.807 139.807L118.284 126.078C118.284 126.078 100.108 125.828 91.627 132.375" fill="#54B057"/>
<path d="M121.807 139.807L118.284 126.078C118.284 126.078 100.108 125.828 91.627 132.375" stroke="#020202" stroke-miterlimit="10"/>
<path d="M130.591 280.846L49.4702 272.905L78.4458 151.285C78.4458 151.285 78.7045 130.848 100.073 130.848C113.566 130.848 122.101 126.453 123.573 150.65C127.274 211.675 130.591 280.846 130.591 280.846Z" fill="#78D186"/>
<path d="M77.0721 274.745L49.4609 272.736L78.4366 151.115C78.4366 151.115 78.6952 130.678 100.063 130.678C119.639 130.678 85.1075 130.294 86.579 154.491C88.6213 218.821 77.0721 274.745 77.0721 274.745Z" fill="#15B54A"/>
<path d="M130.591 280.846L49.4702 272.905L78.4458 151.285C78.4458 151.285 78.7045 130.848 100.073 130.848C113.566 130.848 122.101 126.453 123.573 150.65C127.274 211.675 130.591 280.846 130.591 280.846Z" stroke="#020202" stroke-miterlimit="10"/>
<path d="M91.9748 117.78L99.1184 110.402C99.1184 110.402 92.7775 111.125 93.2055 105.811C93.6425 100.505 97.4863 99.5672 99.2254 101.032C99.2254 101.032 106.155 83.9359 117.731 90.7333C117.731 90.7333 114.717 85.8742 111.033 83.918C99.5554 77.8352 90.3963 88.2412 90.3963 88.2412C90.3963 88.2412 78.5706 101.023 92.5099 112.269L91.9748 117.78Z" fill="black"/>
<path d="M93.2772 105.784C93.402 104.274 93.8034 103.122 94.3563 102.283C93.9193 101.22 93.5447 100.139 93.2594 99.0223C92.1892 94.8599 92.1713 90.4027 94.3295 86.5708C94.8825 85.5794 95.5514 84.6683 96.2737 83.8376C92.6886 85.6955 90.4768 88.2322 90.4768 88.2322C90.4768 88.2322 78.6511 101.005 92.5905 112.26L92.0643 117.762L99.2079 110.384C99.2079 110.357 92.8669 111.081 93.2772 105.784Z" fill="black"/>
<path d="M127.523 220.661L112.54 222.26C112.54 222.26 115.385 246.484 94.8195 249.994H86.7306L83.957 276.282" stroke="#020202" stroke-miterlimit="10"/>
<path d="M78.4102 152.946L85.2148 201.242C85.2148 201.242 82.0578 203.475 82.5393 207.575C83.1458 212.774 88.0865 213.497 88.0865 213.497L94.802 260.427L118.881 260.186L118.855 154.42C118.855 154.42 119.764 142.495 109.366 138.315" fill="#78D186"/>
<path d="M78.4102 152.946L85.2148 201.242C85.2148 201.242 82.0578 203.475 82.5393 207.575C83.1458 212.774 88.0865 213.497 88.0865 213.497L94.802 260.427L118.881 260.186L118.855 154.42C118.855 154.42 119.764 142.495 109.366 138.315" stroke="#020202" stroke-miterlimit="10"/>
<path d="M98.0215 260.168L113.539 260.088C113.539 260.088 113.843 283.856 98.7082 286.071L98.0215 260.168Z" fill="white" stroke="black" stroke-miterlimit="10"/>
<path d="M118.854 253.299L92.5098 244.421" stroke="black" stroke-miterlimit="10"/>
<path d="M112.362 84.7666C112.362 84.7666 98.0484 71.3147 84.662 87.4373C84.662 87.4373 81.4781 92.8323 77.4114 95.2976C70.7583 99.3439 68.6447 104.096 70.1697 110.259C71.4629 115.529 68.065 118.566 64.7206 120.808C62.3929 122.362 57.6751 124.506 56.1055 133.018C54.8391 139.834 48.4536 143.505 46.5094 147.247C42.5229 154.884 43.4415 167.782 51.5304 174.544C63.4988 184.548 87.5069 184.566 85.8035 157.635C85.8035 157.635 84.8493 148.337 94.267 138.788C99.8499 133.134 90.78 124.685 94.383 121.29C100.822 115.243 100.546 107.883 96.8801 112.322C92.7509 117.315 92.1266 109.991 92.1266 109.991L92.9025 95.0118L105.014 88.9826L110.061 84.4897L112.362 84.7666Z" fill="black"/>
<path d="M152.949 251.03L153.047 281.194" stroke="black" stroke-miterlimit="10"/>
<path d="M153.226 290.591L197.113 285.232" stroke="black" stroke-miterlimit="10"/>
<path d="M154.778 373.035V306.732L219.73 306.723V240.705H284.95V175.071H349.946V109.455H424.566V373.035H154.778Z" fill="white" stroke="black" stroke-miterlimit="10"/>
<path d="M308.2 373.553C308.2 319.835 351.775 276.282 405.525 276.282C459.276 276.282 502.851 319.835 502.851 373.553" fill="#BFFDCB"/>
<path d="M308.2 373.553C308.2 319.835 351.775 276.282 405.525 276.282C459.276 276.282 502.851 319.835 502.851 373.553H308.2V373.553Z" stroke="black" stroke-miterlimit="10"/>
<path d="M262.957 373.553C262.957 346.694 284.744 324.918 311.624 324.918C338.495 324.918 360.283 346.694 360.283 373.553" fill="#BFFDCB"/>
<path d="M262.957 373.553C262.957 346.694 284.744 324.918 311.624 324.918C338.495 324.918 360.283 346.694 360.283 373.553H262.957Z" stroke="black" stroke-miterlimit="10"/>
<path d="M416.388 179.439C396.946 170.266 373.749 178.581 364.572 197.991C355.395 217.41 363.707 240.607 383.14 249.771C402.582 258.944 425.779 250.628 434.956 231.219C444.132 211.8 435.821 188.621 416.388 179.439Z" fill="#A8E6AD" stroke="black" stroke-miterlimit="10"/>
<path d="M398.828 218.214L417.413 369.382" stroke="black" stroke-miterlimit="10"/>
<path d="M352.479 251.415C335.597 252.629 322.906 267.278 324.11 284.133C325.323 300.997 339.976 313.69 356.849 312.475C373.731 311.26 386.422 296.611 385.218 279.756C384.014 262.901 369.352 250.209 352.479 251.415Z" fill="#A8E6AD" stroke="black" stroke-miterlimit="10"/>
<path d="M355.422 284.776L417.422 369.382" stroke="black" stroke-miterlimit="10"/>
<path d="M418.207 302.909L443.482 336.351" stroke="black" stroke-miterlimit="10"/>
<path d="M415.692 279.354C403.697 280.355 394.788 290.886 395.786 302.873C396.785 314.869 407.327 323.765 419.322 322.765C431.317 321.764 440.226 311.233 439.228 299.246C438.229 287.259 427.687 278.363 415.692 279.354Z" fill="#A8E6AD" stroke="black" stroke-miterlimit="10"/>
<path d="M536.955 260.883C529.534 238.499 505.366 226.369 482.972 233.782C460.578 241.205 448.44 265.358 455.86 287.742C463.28 310.126 487.449 322.256 509.843 314.842C532.228 307.428 544.357 283.276 536.955 260.883Z" fill="#A8E6AD" stroke="black" stroke-miterlimit="10"/>
<path d="M492.826 276.291L417.181 369.802" stroke="black" stroke-miterlimit="10"/>
<path d="M514.124 274.111C514.124 263.661 505.651 255.193 495.19 255.193C484.729 255.193 476.256 263.661 476.256 274.111C476.256 284.562 484.729 293.03 495.19 293.03C505.642 293.03 514.124 284.553 514.124 274.111Z" fill="#D0F2D2"/>
<path d="M415.549 214.605C415.549 205.369 408.058 197.893 398.827 197.893C389.588 197.893 382.105 205.378 382.105 214.605C382.105 223.841 389.597 231.317 398.827 231.317C408.067 231.326 415.549 223.841 415.549 214.605Z" fill="#D0F2D2"/>
<path d="M368.666 282.186C368.666 274.343 362.298 267.984 354.459 267.984C346.611 267.984 340.252 274.343 340.252 282.186C340.252 290.028 346.62 296.388 354.459 296.388C362.307 296.388 368.666 290.028 368.666 282.186Z" fill="#D0F2D2"/>
<path d="M427.313 301.086C427.313 295.486 422.782 290.957 417.182 290.957C411.581 290.957 407.05 295.486 407.05 301.086C407.05 306.687 411.581 311.216 417.182 311.216C422.773 311.207 427.313 306.669 427.313 301.086Z" fill="#D0F2D2"/>
</g>
<defs>
<clipPath id="clip0">
<rect width="567" height="374" fill="white"/>
</clipPath>
</defs>
</svg>
