<svg width="495" height="339" viewBox="0 0 495 339" fill="none" xmlns="http://www.w3.org/2000/svg">
<g clip-path="url(#clip0)">
<path d="M244.086 80.2291C205.04 -5.03532 134.921 8.09847 111.26 31.7471C57.911 85.0929 118.617 155.142 170.907 132.562C184.758 125.601 220.565 104.86 231.434 136.155C244.973 175.151 206.473 180.108 187.327 174.122C130.397 154.799 -7.70022 116.559 0.334765 202.572C6.89044 272.723 83.2228 268.226 132.017 261.624C172.791 256.105 204.985 240.617 221.803 232.519C260.849 213.711 276.467 246.463 342.935 272.731C426.025 305.569 580.076 238.793 435.571 202.58C359.752 180.623 458.375 12.6739 364.595 66.2847C344.079 71.7409 288.621 177.474 244.086 80.2291Z" fill="#DAFDF7"/>
<path d="M207.01 336.997C207.01 298.242 238.465 266.815 277.261 266.815C316.058 266.815 347.513 298.235 347.513 336.997" fill="#BFFDCB"/>
<path d="M207.01 336.997C207.01 298.242 238.465 266.815 277.261 266.815C316.058 266.815 347.513 298.235 347.513 336.997" stroke="black" stroke-miterlimit="10"/>
<path d="M174.356 336.997C174.356 317.62 190.083 301.906 209.478 301.906C228.872 301.906 244.6 317.62 244.6 336.997" fill="#BFFDCB"/>
<path d="M174.356 336.997C174.356 317.62 190.083 301.906 209.478 301.906C228.872 301.906 244.6 317.62 244.6 336.997" stroke="black" stroke-miterlimit="10"/>
<path d="M427.178 270.455L428.275 225.473C428.275 225.317 427.894 210.032 415.904 206.883C415.771 206.844 415.631 206.828 415.499 206.789L411.73 194.559C412.455 194.185 413.163 193.694 413.825 193.071C418.979 188.238 413.825 179.734 413.825 179.734C413.825 179.734 420.458 172.423 412.213 164.776C403.976 157.146 396.533 165.455 396.533 165.455C389.603 159.188 386.162 167.777 386.162 167.777C383.919 166.967 379.653 168.362 380.112 173.67C380.245 175.198 381.42 176.258 383.11 176.991C380.665 181.067 379.933 187.622 379.902 187.903C379.482 192.034 379.886 194.318 379.902 194.38C379.91 194.443 380.431 200.499 387.158 201.037C387.485 201.068 387.797 201.068 388.1 201.068C389.806 201.068 391.215 200.678 392.39 200.109L392.554 208.192C389.556 209.182 387.781 210.133 387.742 210.156L387.555 210.258L387.524 221.833L371.112 243.018L369.78 244.748L350.721 237.344L347.746 243.197C340.949 240.914 335.102 240.999 330.361 243.47C323.766 246.908 321.765 253.65 321.68 253.938L321.929 254.008C314.61 257.851 310.733 264.282 307.805 269.161L307.151 270.252C305.407 273.144 299.661 285.701 294.227 297.806L258.404 303.192C258.108 301.173 256.411 291.399 251.101 286.753C245.659 281.991 238.176 282.419 237.857 282.443L237.515 282.466L238.48 337.09L238.231 337.527H238.488L238.503 338.462L239.041 337.527L319.429 337.62H319.437H321.563H321.944H384.939C385.111 337.628 385.274 337.628 385.407 337.628C385.601 337.628 385.749 337.628 385.85 337.62H387.618V337.589L404.022 337.371C410.111 337.433 415.063 335.563 418.784 331.759C426.461 323.902 426.235 310.339 426.22 309.755H426.235L427.061 276.168C427.209 274.375 427.271 272.466 427.255 270.431L427.178 270.455Z" fill="white"/>
<path d="M105.482 220.009C113.354 236.642 133.231 243.766 149.9 235.902C166.562 228.045 173.686 208.176 165.822 191.535C157.951 174.902 138.074 167.777 121.404 175.642C104.735 183.515 97.6107 203.375 105.482 220.009Z" fill="#A8E6AD" stroke="black" stroke-miterlimit="10"/>
<path d="M120.509 338.392L136.439 208.862" stroke="black" stroke-miterlimit="10"/>
<path d="M148.11 261.6C147.074 276.051 157.959 288.601 172.425 289.637C186.883 290.674 199.449 279.801 200.493 265.349C201.528 250.906 190.644 238.349 176.178 237.313C161.712 236.284 149.145 247.157 148.11 261.6Z" fill="#A8E6AD" stroke="black" stroke-miterlimit="10"/>
<path d="M120.509 338.392L173.655 265.903" stroke="black" stroke-miterlimit="10"/>
<path d="M98.1636 310.09L119.832 281.437" stroke="black" stroke-miterlimit="10"/>
<path d="M101.815 278.304C100.959 288.577 108.597 297.603 118.882 298.461C129.167 299.318 138.198 291.695 139.055 281.414C139.911 271.141 132.273 262.115 121.988 261.257C111.711 260.408 102.671 268.031 101.815 278.304Z" fill="#A8E6AD" stroke="black" stroke-miterlimit="10"/>
<path d="M41.2803 291.664C60.4723 298.008 81.1904 287.618 87.5515 268.444C93.9125 249.261 83.5106 228.575 64.3108 222.214C45.1187 215.87 24.4006 226.26 18.0395 245.434C11.7019 264.617 22.096 285.311 41.2803 291.664Z" fill="#A8E6AD" stroke="black" stroke-miterlimit="10"/>
<path d="M120.712 338.758L55.8711 258.63" stroke="black" stroke-miterlimit="10"/>
<path d="M53.8385 272.972C62.8 272.972 70.0641 265.716 70.0641 256.76C70.0641 247.804 62.8 240.547 53.8385 240.547C44.877 240.547 37.6128 247.804 37.6128 256.76C37.6128 265.716 44.8848 272.972 53.8385 272.972Z" fill="#D0F2D2"/>
<path d="M136.447 220.102C144.365 220.102 150.78 213.687 150.78 205.784C150.78 197.88 144.365 191.465 136.447 191.465C128.528 191.465 122.113 197.88 122.113 205.784C122.113 213.687 128.528 220.102 136.447 220.102Z" fill="#D0F2D2"/>
<path d="M174.48 275.856C181.207 275.856 186.657 270.408 186.657 263.689C186.657 256.97 181.199 251.522 174.48 251.522C167.753 251.522 162.303 256.97 162.303 263.689C162.295 270.408 167.753 275.856 174.48 275.856Z" fill="#D0F2D2"/>
<path d="M120.711 288.554C125.508 288.554 129.393 284.672 129.393 279.878C129.393 275.085 125.508 271.203 120.711 271.203C115.915 271.203 112.022 275.085 112.022 279.878C112.03 284.664 115.923 288.554 120.711 288.554Z" fill="#D0F2D2"/>
<path d="M115.339 180.132C113.798 167.544 110.792 153.124 105.054 139.967C104.688 137.215 104.167 135.033 103.505 133.294L100.819 122.943L100.585 122.912C100.359 122.881 99.1136 124.697 96.373 124.572L95.4075 116.528C95.9759 116.645 96.5832 116.715 97.2138 116.715C98.3272 116.715 99.5418 116.513 100.834 116.014C107.328 113.551 106.012 107.003 105.996 106.949C105.988 106.926 105.545 104.353 104.564 101.532C104.307 100.721 103.699 99.1933 103.193 97.954C103.271 97.9072 103.349 97.8605 103.435 97.8371C104.252 97.5019 105.039 97.9384 105.054 97.9462L105.397 97.346C105.358 97.3226 104.322 96.7458 103.193 97.1901C103.108 97.2213 103.022 97.2681 102.936 97.3148C102.656 96.6289 102.446 96.1301 102.415 96.0677C102.399 96.0365 100.967 93.2305 98.6542 90.4245L98.6231 90.4479C97.79 89.4034 96.6455 88.1563 95.3608 87.2131C95.3608 87.2131 82.8645 75.4823 71.178 89.5437C71.178 89.5437 68.3985 94.2516 64.8481 96.4029C59.0399 99.926 57.1946 104.08 58.526 109.459C59.655 114.058 56.6886 116.708 53.7689 118.664C51.7368 120.028 47.6181 121.891 46.2478 129.319C45.1422 135.266 39.5675 138.47 37.8702 141.736C34.3899 148.408 35.1919 159.656 42.2536 165.556C46.8395 169.391 53.473 171.55 59.3202 170.763L40.0269 251.686L66.3586 254.258L73.5994 338.299L72.6339 338.641H73.6305L73.6461 338.766L74.012 338.641H82.2183L129.19 338.634L129.167 338.267C129.151 337.979 128.7 331.112 123.312 327.55C118.975 324.681 115.113 324.229 113.946 324.151L114.218 318.594L114.405 318.578L114.343 317.885L114.257 317.892L116.499 271.577L116.78 271.375L116.515 271L116.647 214.054C116.647 214.015 116.663 213.867 116.678 213.625L115.339 180.132Z" fill="white"/>
<path d="M92.4724 127.386L110.652 125.118C110.489 125.258 116.476 124.541 121.358 117.627L138.315 91.9677L159.119 100.698L144.528 139.756C144.528 139.756 141.578 149.172 133.909 152.57L98.8178 166.928C98.8178 166.928 79.8048 174.613 72.4472 152.672C65.0974 130.73 92.4724 127.386 92.4724 127.386Z" fill="#78D186"/>
<path d="M92.4723 127.386L95.1273 150.131C94.9638 150.271 124.83 147.169 135.917 129.148L150.049 96.8939L159.111 100.698L144.521 139.756C144.521 139.756 141.57 149.172 133.901 152.57L98.81 166.928C98.81 166.928 79.797 174.613 72.4394 152.672C65.0973 130.73 92.4723 127.386 92.4723 127.386Z" fill="#15B54A"/>
<path d="M92.4724 127.386L110.652 125.118C110.489 125.258 116.476 124.541 121.358 117.627L138.315 91.9677L159.119 100.698L144.528 139.756C144.528 139.756 141.578 149.172 133.909 152.57L98.8178 166.928C98.8178 166.928 79.8048 174.613 72.4472 152.672C65.0974 130.73 92.4724 127.386 92.4724 127.386Z" stroke="#020202" stroke-miterlimit="10"/>
<path d="M116.071 214.077C116.071 214.077 119.076 172.298 103.964 138.875C88.8517 105.452 91.1329 186.874 91.1329 186.874L103.388 213.243L116.071 214.077Z" fill="white" stroke="black" stroke-miterlimit="10"/>
<path d="M93.5701 124.962C93.5701 124.962 88.5015 120.41 76.9395 122.39L76.5347 125.679" stroke="black" stroke-miterlimit="10"/>
<path d="M95.8129 124.72L94.7773 116.107" stroke="black" stroke-miterlimit="10"/>
<path d="M93.2744 102.49C93.2744 102.49 94.0063 99.4116 97.9926 101.142" stroke="black" stroke-miterlimit="10"/>
<path d="M104.992 97.6578C104.992 97.6578 102.415 96.1846 101.255 100.02" stroke="black" stroke-miterlimit="10"/>
<path d="M89.498 112.748C89.498 112.748 93.7725 118.266 100.492 115.702C106.783 113.317 105.443 107.019 105.443 107.019C105.443 107.019 105 104.478 104.026 101.641C103.567 100.183 101.893 96.2313 101.893 96.2313C101.893 96.2313 100.492 93.4642 98.1715 90.6504" stroke="black" stroke-miterlimit="10"/>
<path d="M77.2354 119.974L77.8504 113.824" stroke="black" stroke-miterlimit="10"/>
<path d="M113.354 324.494C113.354 324.494 117.831 324.494 122.884 327.846C128.186 331.361 128.583 338.299 128.583 338.299L81.977 338.306H74.4014L113.354 324.494Z" fill="#15B54A" stroke="#020202" stroke-miterlimit="10"/>
<path d="M100.305 123.263L103.956 138.875L85.8307 136.116L78.3018 128.758C78.3095 128.742 85.0521 123.271 100.305 123.263Z" fill="#0B3184"/>
<path d="M103.38 135.243L100.305 123.263C100.305 123.263 84.4375 123.045 77.0332 128.758" fill="#54B057"/>
<path d="M103.38 135.243L100.305 123.263C100.305 123.263 84.4375 123.045 77.0332 128.758" stroke="#020202" stroke-miterlimit="10"/>
<path d="M113.354 324.494L73.7162 338.298L62.7148 210.562L116.071 214.264L115.939 271.125C116.678 272.162 115.939 271.125 115.939 271.125L113.354 324.494Z" stroke="black" stroke-miterlimit="10"/>
<path d="M114.132 318.251L72.7583 321.961" stroke="black" stroke-miterlimit="10"/>
<path d="M92.8148 223.688C92.8148 223.688 94.1384 258.116 66.8257 258.319" stroke="black" stroke-miterlimit="10"/>
<path d="M111.049 258.319L40.2295 251.389L65.5257 145.259C65.5257 145.259 65.7515 127.425 84.4063 127.425C96.1863 127.425 103.637 123.59 104.922 144.706C108.153 197.95 111.049 258.319 111.049 258.319Z" fill="#78D186"/>
<path d="M64.3266 252.987L40.2217 251.233L65.5179 145.103C65.5179 145.103 65.7437 127.269 84.3985 127.269C101.488 127.269 71.3417 126.934 72.6263 148.049C74.4093 204.193 64.3266 252.987 64.3266 252.987Z" fill="#15B54A"/>
<path d="M111.049 258.319L40.2295 251.389L65.5257 145.259C65.5257 145.259 65.7515 127.425 84.4063 127.425C96.1863 127.425 103.637 123.59 104.922 144.706C108.153 197.95 111.049 258.319 111.049 258.319Z" stroke="#020202" stroke-miterlimit="10"/>
<path d="M77.3366 116.022L83.5731 109.583C83.5731 109.583 78.0374 110.215 78.4111 105.577C78.7926 100.947 82.1483 100.129 83.6665 101.407C83.6665 101.407 89.7161 86.4882 99.8221 92.4199C99.8221 92.4199 97.1905 88.1796 93.975 86.4726C83.9546 81.1645 75.9585 90.2452 75.9585 90.2452C75.9585 90.2452 65.6345 101.399 77.8038 111.212L77.3366 116.022Z" fill="black"/>
<path d="M78.4736 105.546C78.5826 104.229 78.933 103.223 79.4157 102.49C79.0342 101.563 78.7072 100.62 78.458 99.6453C77.5237 96.0131 77.5082 92.1236 79.3923 88.7798C79.8751 87.9146 80.459 87.1195 81.0896 86.3946C77.9597 88.0159 76.0289 90.2295 76.0289 90.2295C76.0289 90.2295 65.7048 101.376 77.8741 111.197L77.4147 115.998L83.6512 109.56C83.6512 109.544 78.1155 110.176 78.4736 105.546Z" fill="black"/>
<path d="M108.371 205.799L95.291 207.194C95.291 207.194 97.7747 228.333 79.8206 231.396H72.7588L70.3374 254.336" stroke="#020202" stroke-miterlimit="10"/>
<path d="M65.4941 146.709L71.4347 188.854C71.4347 188.854 68.6785 190.802 69.099 194.38C69.6284 198.917 73.9418 199.548 73.9418 199.548L79.8045 240.5L100.826 240.29L100.803 147.995C100.803 147.995 101.597 137.589 92.5188 133.941" fill="#78D186"/>
<path d="M65.4941 146.709L71.4347 188.854C71.4347 188.854 68.6785 190.802 69.099 194.38C69.6284 198.917 73.9418 199.548 73.9418 199.548L79.8045 240.5L100.826 240.29L100.803 147.995C100.803 147.995 101.597 137.589 92.5188 133.941" stroke="#020202" stroke-miterlimit="10"/>
<path d="M82.623 240.274L96.1704 240.204C96.1704 240.204 96.4351 260.945 83.2226 262.879L82.623 240.274Z" fill="white" stroke="black" stroke-miterlimit="10"/>
<path d="M100.811 234.273L77.8115 226.525" stroke="black" stroke-miterlimit="10"/>
<path d="M95.1352 87.213C95.1352 87.213 82.6389 75.4745 70.9524 89.5436C70.9524 89.5436 68.1729 94.2515 64.6225 96.4028C58.8143 99.9337 56.969 104.08 58.3004 109.459C59.4294 114.057 56.463 116.708 53.5433 118.664C51.5112 120.02 47.3925 121.891 46.0222 129.319C44.9166 135.266 39.3419 138.47 37.6446 141.736C34.1643 148.4 34.9663 159.655 42.028 165.556C52.4766 174.286 73.4361 174.301 71.949 150.801C71.949 150.801 71.1159 142.687 79.3378 134.354C84.2117 129.42 76.2935 122.047 79.439 119.085C85.0603 113.808 84.819 107.385 81.619 111.259C78.0142 115.616 77.4692 109.225 77.4692 109.225L78.1465 96.1534L88.7197 90.8921L93.1265 86.9714L95.1352 87.213Z" fill="black"/>
<path d="M293.713 216.376C293.775 218.442 294.507 225.948 302.036 226.377H302.106L302.176 226.361C302.231 226.353 306.941 225.13 306.202 219.666C309.067 220.531 318.565 223.064 323.291 220.274C324.67 219.463 325.542 218.263 325.869 216.704C326.305 214.584 325.814 212.939 324.413 211.77C321.298 209.198 314.47 209.938 310.904 210.897C313.614 207.148 320.543 196.57 318.48 188.651C317.616 185.3 315.225 182.836 311.395 181.332C311.2 181.254 306.606 179.563 302.511 182.735C298.112 186.141 296.111 193.632 296.555 205.035C294.032 196.298 295.177 188.176 295.621 185.689C295.94 185.518 296.181 185.175 296.181 184.769C296.181 184.193 295.73 183.725 295.2 183.725C294.655 183.725 294.227 184.193 294.227 184.769C294.227 185.105 294.383 185.393 294.616 185.58C294.133 188.277 293.028 196.578 295.613 205.472C291.805 199.657 290.879 193.234 290.669 191.348C290.918 191.161 291.089 190.865 291.089 190.514C291.089 189.937 290.653 189.47 290.108 189.47C289.563 189.47 289.135 189.937 289.135 190.514C289.135 190.904 289.353 191.231 289.649 191.41C289.812 193.063 290.497 197.997 293.075 203.141C290.233 200.398 286.534 197.63 283.14 197.779C281.123 197.857 279.418 198.948 278.102 201.091C278.017 201.271 276.047 205.643 278.437 209.774C280.633 213.555 285.779 215.792 293.713 216.376Z" fill="white"/>
<path d="M309.425 211.933C309.425 211.933 328.158 188.495 311.169 181.815C311.169 181.815 294.64 175.517 297.232 208.683C297.232 208.683 284.612 191.512 278.5 201.278C278.5 201.278 272.411 214.482 294.18 215.878C294.18 215.878 293.752 225.379 302.021 225.839C302.021 225.839 306.809 224.685 305.509 218.894C305.509 218.894 323.58 224.927 325.324 216.587C327.044 208.231 312.469 210.538 309.425 211.933Z" stroke="black" stroke-miterlimit="10"/>
<path d="M297.116 208.426C292.421 196.508 295.247 184.754 295.247 184.754" stroke="black" stroke-miterlimit="10"/>
<path d="M290.054 190.795C290.054 190.795 290.614 200.842 297.123 208.402" stroke="black" stroke-miterlimit="10"/>
<path d="M295.146 185.783C295.691 185.783 296.127 185.315 296.127 184.738C296.127 184.161 295.675 183.694 295.146 183.694C294.601 183.694 294.172 184.161 294.172 184.738C294.172 185.315 294.601 185.783 295.146 185.783Z" fill="black"/>
<path d="M290.054 191.535C290.599 191.535 291.027 191.067 291.027 190.491C291.027 189.914 290.591 189.446 290.054 189.446C289.509 189.446 289.073 189.914 289.073 190.491C289.073 191.067 289.517 191.535 290.054 191.535Z" fill="black"/>
<path d="M126.979 42.3711C127.041 44.3665 127.75 51.631 135.038 52.0519H135.108L135.178 52.0363C135.232 52.0285 139.795 50.8438 139.078 45.5513C141.858 46.3931 151.053 48.8406 155.623 46.1358C156.955 45.3486 157.796 44.1872 158.115 42.6751C158.543 40.6251 158.06 39.0272 156.706 37.897C153.692 35.4028 147.082 36.1277 143.625 37.0474C146.249 33.4152 152.953 23.1809 150.952 15.5111C150.111 12.2686 147.806 9.88346 144.092 8.42588C143.906 8.35573 139.46 6.71108 135.489 9.78213C131.23 13.0792 129.292 20.3281 129.728 31.3652C127.291 22.9081 128.396 15.0434 128.824 12.6427C129.136 12.479 129.362 12.1439 129.362 11.7464C129.362 11.1851 128.926 10.7331 128.412 10.7331C127.882 10.7331 127.47 11.1851 127.47 11.7464C127.47 12.0737 127.618 12.3543 127.851 12.5336C127.384 15.1448 126.317 23.1809 128.817 31.7939C125.134 26.1662 124.239 19.9462 124.036 18.1223C124.278 17.943 124.441 17.6546 124.441 17.3194C124.441 16.7582 124.013 16.3062 123.491 16.3062C122.962 16.3062 122.549 16.7582 122.549 17.3194C122.549 17.7014 122.759 18.0132 123.047 18.1846C123.203 19.7825 123.873 24.5606 126.364 29.5413C123.616 26.8911 120.034 24.2098 116.749 24.3501C114.794 24.4203 113.152 25.4803 111.867 27.5537C111.789 27.7252 109.874 31.9576 112.194 35.9562C114.319 39.6352 119.302 41.8021 126.979 42.3711Z" fill="white"/>
<path d="M142.193 38.0607C142.193 38.0607 160.326 15.3708 143.882 8.90912C143.882 8.90912 127.882 2.81379 130.39 34.9195C130.39 34.9195 118.174 18.2937 112.256 27.7485C112.256 27.7485 106.362 40.5316 127.439 41.88C127.439 41.88 127.026 51.0776 135.022 51.5218C135.022 51.5218 139.655 50.3994 138.401 44.7952C138.401 44.7952 155.888 50.6333 157.578 42.5659C159.244 34.483 145.136 36.72 142.193 38.0607Z" stroke="black" stroke-miterlimit="10"/>
<path d="M130.273 34.67C125.726 23.1341 128.459 11.7541 128.459 11.7541" stroke="black" stroke-miterlimit="10"/>
<path d="M123.437 17.6079C123.437 17.6079 123.974 27.3355 130.28 34.6545" stroke="black" stroke-miterlimit="10"/>
<path d="M128.373 12.7519C128.902 12.7519 129.323 12.2998 129.323 11.7386C129.323 11.1774 128.887 10.7253 128.373 10.7253C127.843 10.7253 127.431 11.1774 127.431 11.7386C127.431 12.2998 127.843 12.7519 128.373 12.7519Z" fill="black"/>
<path d="M123.437 18.3171C123.966 18.3171 124.379 17.865 124.379 17.3038C124.379 16.7426 123.958 16.2905 123.437 16.2905C122.907 16.2905 122.487 16.7426 122.487 17.3038C122.487 17.865 122.915 18.3171 123.437 18.3171Z" fill="black"/>
<path d="M468.653 68.7478C470.35 65.8171 468.949 62.7226 468.894 62.5901C467.96 61.0702 466.753 60.2985 465.32 60.244C462.915 60.1349 460.291 62.0991 458.274 64.0477C460.096 60.3999 460.587 56.9001 460.703 55.7309C460.914 55.6062 461.069 55.3724 461.069 55.0996C461.069 54.6865 460.766 54.3591 460.376 54.3591C459.995 54.3591 459.683 54.6865 459.683 55.0996C459.683 55.3412 459.808 55.5517 459.979 55.6842C459.831 57.017 459.177 61.5768 456.476 65.6924C458.305 59.3866 457.527 53.5017 457.184 51.592C457.356 51.4595 457.465 51.2569 457.465 51.0152C457.465 50.6021 457.161 50.2748 456.772 50.2748C456.398 50.2748 456.079 50.6021 456.079 51.0152C456.079 51.3036 456.25 51.5531 456.476 51.67C456.795 53.4316 457.605 59.1839 455.814 65.3806C456.133 57.2976 454.716 51.9896 451.594 49.5733C448.69 47.3284 445.428 48.5288 445.295 48.5834C442.578 49.6512 440.888 51.3972 440.273 53.7745C438.81 59.3866 443.715 66.8849 445.638 69.5429C443.115 68.8647 438.272 68.3425 436.061 70.1664C435.072 70.9926 434.722 72.1618 435.034 73.6662C435.267 74.773 435.882 75.6226 436.855 76.1994C440.203 78.1792 446.938 76.3865 448.97 75.7707C448.449 79.6446 451.789 80.5098 451.828 80.5176L451.882 80.5332H451.937C457.27 80.2292 457.792 74.9055 457.838 73.4479C463.444 73.0192 467.088 71.4369 468.653 68.7478Z" fill="white"/>
<path d="M435.415 73.5804C436.653 79.4886 449.461 75.2172 449.461 75.2172C448.542 79.325 451.937 80.1434 451.937 80.1434C457.799 79.816 457.496 73.0815 457.496 73.0815C472.927 72.0994 468.614 62.7382 468.614 62.7382C464.285 55.8166 455.331 67.9839 455.331 67.9839C457.169 44.4756 445.451 48.934 445.451 48.934C433.406 53.6653 446.689 70.2833 446.689 70.2833C444.524 69.3012 434.193 67.6565 435.415 73.5804Z" stroke="black" stroke-miterlimit="10"/>
<path d="M456.741 51.023C456.741 51.023 458.742 59.3554 455.417 67.8046" stroke="black" stroke-miterlimit="10"/>
<path d="M455.401 67.7813C460.018 62.4187 460.415 55.3023 460.415 55.3023" stroke="black" stroke-miterlimit="10"/>
<path d="M457.496 51.0075C457.496 50.5943 457.192 50.267 456.803 50.267C456.429 50.267 456.11 50.5943 456.11 51.0075C456.11 51.4206 456.414 51.7479 456.803 51.7479C457.192 51.7479 457.496 51.4128 457.496 51.0075Z" fill="black"/>
<path d="M461.109 55.084C461.109 54.6708 460.805 54.3435 460.416 54.3435C460.034 54.3435 459.723 54.6708 459.723 55.084C459.723 55.4971 460.026 55.8244 460.416 55.8244C460.797 55.8244 461.109 55.4971 461.109 55.084Z" fill="black"/>
<path d="M257.633 303.246C257.633 303.246 256.177 291.734 250.385 286.675C244.981 281.96 237.367 282.451 237.367 282.451L238.324 336.825L257.633 303.246Z" fill="#3495EE" stroke="black" stroke-miterlimit="10"/>
<path d="M345.745 308.071C345.745 308.071 361.582 338.556 385.546 337.675C409.511 336.794 406.646 337.589 406.646 337.589C406.646 337.589 424.265 335.976 425.161 314.93C425.161 314.93 415.95 325.539 396.228 325.851C375.238 326.178 345.745 308.071 345.745 308.071Z" fill="#E2F9F5"/>
<path d="M320.052 337.535L380.782 337.683L363.233 318.976L331.676 319.849L320.052 337.535Z" fill="#E2F9F5"/>
<path d="M387.532 210.46L387.851 225.917L406.755 218.2L412.992 208.262C412.992 208.239 407.9 203.172 387.532 210.46Z" fill="#3495EE"/>
<path d="M396.299 290.136L425.542 309.763L426.376 276.145L396.299 290.136Z" fill="#3495EE"/>
<path d="M341.837 254.609L350.386 237.804L369.438 245.201L387.524 221.848C387.524 221.848 398.868 199.61 419.477 208.956C419.477 208.956 427.87 214.1 427.613 225.488L426.36 276.184C426.36 276.184 424.593 293.979 416.005 294.431C416.005 294.431 405.455 296.348 395.123 289.419C398.027 291.344 353.049 260.727 341.837 254.609Z" fill="#6CC2FA"/>
<path d="M427.606 225.457L426.352 276.153C426.352 276.153 424.577 293.948 415.997 294.392C415.997 294.392 405.447 296.309 395.116 289.38C395.116 289.38 388.949 284.805 379.653 279.949C379.653 279.949 407.853 291.96 415.997 273.284" fill="#3495EE"/>
<path d="M392.531 208.239L392.352 199.595" stroke="black" stroke-miterlimit="10"/>
<path d="M385.041 185.19C385.041 185.19 386.777 182.127 390.506 185.19" stroke="black" stroke-miterlimit="10"/>
<path d="M342.413 303.613L320.792 334.347L282.922 322.787C282.922 322.787 303.344 276.285 306.879 270.447C310.429 264.601 314.891 256.277 325.253 252.73C335.616 249.176 348.782 258.35 348.782 258.35L425.527 309.747C425.527 309.747 426.446 337.332 403.649 337.028L385.617 337.27C385.617 337.27 364.876 338.743 350.962 315.375L335.126 292.576" stroke="black" stroke-miterlimit="10"/>
<path d="M285.125 323.465C285.125 323.465 278.025 321.236 270.348 327.745C264.937 332.328 264.524 337.215 264.524 337.215L321.034 337.277L320.816 334.347L285.125 323.465Z" fill="#3495EE" stroke="black" stroke-miterlimit="10"/>
<path d="M425.543 309.755L427.614 225.457C427.614 225.457 427.372 210.328 415.483 207.202C406.008 204.724 398.876 208.2 393.348 214.326" stroke="black" stroke-miterlimit="10"/>
<path d="M408.235 260.228L350.401 237.796L346.734 244.998L341.845 254.616" stroke="black" stroke-miterlimit="10"/>
<path d="M321.477 254.04C321.477 254.04 326.546 236.439 347.443 243.642" stroke="black" stroke-miterlimit="10"/>
<path d="M390.95 254.04L391.487 225.917" stroke="black" stroke-miterlimit="10"/>
<path d="M398.884 291.898C398.884 291.898 426.983 307.541 426.57 270.447" stroke="black" stroke-miterlimit="10"/>
<path d="M369.454 245.185L393.348 214.334" stroke="black" stroke-miterlimit="10"/>
<path d="M387.532 221.825V210.46C387.532 210.46 396.252 205.69 408.235 206.399" stroke="black" stroke-miterlimit="10"/>
<path d="M383.071 177.061C380.579 181.106 379.848 187.926 379.848 187.926C379.427 192.057 379.848 194.341 379.848 194.341C379.848 194.341 380.284 200.156 386.792 200.67C393.769 201.232 396.291 195.37 396.291 195.37" stroke="black" stroke-miterlimit="10"/>
<path d="M414.977 207.35L411.014 194.497" stroke="black" stroke-miterlimit="10"/>
<path d="M399.281 188.963C399.281 188.963 402.808 190.912 403.921 187.404C405.034 183.897 403.111 182.556 401.095 183.281C401.095 183.281 400.994 178.448 397.062 178.557C393.13 178.666 380.166 178.963 379.707 173.662C379.255 168.362 383.522 166.959 385.772 167.77C385.772 167.77 389.229 159.172 396.166 165.439C396.166 165.439 403.625 157.13 411.878 164.761C420.139 172.4 413.49 179.719 413.49 179.719C413.49 179.719 418.66 188.223 413.49 193.055C408.312 197.88 400.698 194.934 399.281 188.963Z" fill="black"/>
<path d="M293.892 298.141L257.438 303.613L238.145 337.184L318.884 337.285" stroke="black" stroke-miterlimit="10"/>
<path d="M318.9 337.277H387.205" stroke="black" stroke-miterlimit="10"/>
<path d="M382.627 281.016C382.627 281.016 373.58 300.612 393.356 309.997L406.763 315.835L414.962 302.662" stroke="black" stroke-miterlimit="10"/>
<path d="M288.683 309.763L331.482 319.74" stroke="black" stroke-miterlimit="10"/>
<path d="M234.696 28.0603C240.987 24.0072 248.718 21.9728 257.898 21.9728C269.95 21.9728 279.963 24.8568 287.936 30.6247C295.908 36.3927 299.895 44.9355 299.895 56.2532C299.895 63.1981 298.166 69.044 294.709 73.7909C292.685 76.6749 288.808 80.3617 283.062 84.8435L277.401 89.2475C274.318 91.6482 272.27 94.4542 271.258 97.6578C270.62 99.6843 270.277 102.833 270.223 107.105H248.547C248.866 98.0787 249.715 91.8508 251.101 88.4056C252.487 84.9605 256.045 81.0008 261.791 76.5112L267.614 71.9436C269.53 70.5016 271.071 68.9271 272.239 67.2201C274.365 64.2816 275.431 61.0546 275.431 57.5315C275.431 53.4783 274.248 49.7759 271.881 46.4399C269.514 43.1038 265.193 41.4358 258.91 41.4358C252.736 41.4358 248.36 43.4935 245.783 47.6012C243.206 51.7168 241.913 55.9804 241.913 60.4155H218.782C219.42 45.2005 224.722 34.4129 234.696 28.0603ZM247.979 118.079H271.897V141.221H247.979V118.079Z" fill="#BFFDCB" stroke="#020202" stroke-miterlimit="10"/>
<path d="M191.399 142.866C193.595 141.447 196.297 140.738 199.497 140.738C203.701 140.738 207.205 141.744 209.984 143.755C212.771 145.766 214.157 148.751 214.157 152.703C214.157 155.127 213.55 157.169 212.343 158.829C211.635 159.835 210.28 161.121 208.279 162.688L206.301 164.223C205.227 165.065 204.511 166.039 204.152 167.162C203.927 167.871 203.81 168.97 203.787 170.459H196.219C196.328 167.31 196.624 165.135 197.106 163.927C197.589 162.727 198.835 161.339 200.836 159.772L202.868 158.182C203.537 157.676 204.075 157.13 204.48 156.53C205.219 155.501 205.593 154.379 205.593 153.147C205.593 151.728 205.18 150.442 204.355 149.273C203.53 148.112 202.019 147.527 199.824 147.527C197.667 147.527 196.141 148.244 195.238 149.678C194.335 151.113 193.883 152.609 193.883 154.153H185.809C186.058 148.852 187.911 145.08 191.399 142.866ZM196.032 174.294H204.386V182.377H196.032V174.294Z" fill="#6CC2FA" stroke="#020202" stroke-miterlimit="10"/>
<path d="M425.161 115.328H472.335V171.706L460.127 275.412H437.673L425.161 171.706V115.328ZM426.22 293.371H471.284V336.973H426.22V293.371Z" fill="#BFFDCB" stroke="black" stroke-miterlimit="10"/>
<path d="M373.51 0.38974H389.284V19.2447L385.204 53.9304H377.691L373.51 19.2447V0.38974ZM373.86 59.94H388.934V74.5236H373.86V59.94Z" fill="#8CCD8C" stroke="#070707" stroke-miterlimit="10"/>
<path d="M153.366 98.4138L161.424 76.7996C161.424 76.7996 147.012 76.3241 141.819 92.9264" fill="white"/>
<path d="M153.366 98.4138L161.424 76.7996C161.424 76.7996 147.012 76.3241 141.819 92.9264" stroke="black" stroke-miterlimit="10"/>
<path d="M318.877 128.15L336.932 138.751L339.159 152.757L339.221 153.022L339.727 153.038L339.782 152.874L348.214 144.464L360.446 151.019L373.245 119.358L318.877 128.15Z" fill="white"/>
<path d="M319.57 128.275L372.552 119.701L337.01 138.509L319.57 128.275Z" fill="#6CC2FA"/>
<path d="M343.013 141.424L372.553 119.709L360.08 150.544L343.013 141.424Z" fill="#6CC2FA"/>
<path d="M372.552 119.709L319.57 128.283L337.01 138.517L339.252 152.664C339.26 152.695 339.299 152.695 339.307 152.672L343.075 141.424L360.08 150.544L372.552 119.709Z" stroke="#1D1D1B" stroke-miterlimit="10"/>
<path d="M337.01 138.517L372.553 119.709L343.052 141.276" stroke="#1D1D1B" stroke-miterlimit="10"/>
<path d="M339.276 152.703L347.957 144.043" stroke="#1D1D1B" stroke-miterlimit="10"/>
</g>
<defs>
<clipPath id="clip0">
<rect width="495" height="339" fill="white"/>
</clipPath>
</defs>
</svg>
