<svg width="484" height="351" viewBox="0 0 484 351" fill="none" xmlns="http://www.w3.org/2000/svg">
<g clip-path="url(#clip0)">
<path d="M231.5 108.162C194.461 27.3977 127.959 39.8381 105.523 62.2443C54.9258 112.771 112.505 179.122 162.099 157.737C175.23 151.147 209.191 131.495 219.5 161.138C232.342 198.076 195.83 202.77 177.663 197.098C123.673 178.799 -7.30608 142.575 0.322995 224.045C6.54023 290.49 78.9442 286.23 125.212 279.972C163.885 274.742 194.418 260.074 210.365 252.404C247.396 234.59 262.212 265.61 325.252 290.49C404.06 321.596 550.169 258.348 413.11 224.045C341.199 203.246 434.738 44.1663 345.8 94.9481C326.341 100.127 273.737 200.27 231.5 108.162Z" fill="#DAFDF7"/>
<path d="M199.87 238.476C211.922 244.709 240.439 248.424 258.13 209.989C275.821 171.554 317.385 182.354 335.952 192.558C348.854 197.379 385.707 216.367 412.923 192.558C422.023 184.599 444.392 158.544 430.358 133.46" stroke="black"/>
<path d="M63.7881 349.869C63.7881 303.373 101.483 265.686 147.989 265.686C194.495 265.686 232.189 303.373 232.189 349.869" fill="#CBFBCE"/>
<path d="M63.7881 349.869C63.7881 303.373 101.483 265.686 147.989 265.686C194.495 265.686 232.189 303.373 232.189 349.869" stroke="black" stroke-miterlimit="10"/>
<path d="M259.405 263.314C265.18 275.499 279.758 280.712 291.98 274.955C304.202 269.198 309.424 254.649 303.657 242.455C297.883 230.27 283.305 225.057 271.083 230.814C258.87 236.579 253.639 251.129 259.405 263.314Z" fill="#A8E6AD" stroke="black" stroke-miterlimit="10"/>
<path d="M270.437 350.022L282.123 255.151" stroke="black" stroke-miterlimit="10"/>
<path d="M290.679 293.773C289.922 304.351 297.9 313.551 308.514 314.308C319.12 315.065 328.34 307.097 329.097 296.519C329.854 285.941 321.876 276.74 311.261 275.984C300.656 275.227 291.436 283.194 290.679 293.773Z" fill="#A8E6AD" stroke="black" stroke-miterlimit="10"/>
<path d="M270.437 350.022L309.416 296.927" stroke="black" stroke-miterlimit="10"/>
<path d="M254.047 329.291L269.935 308.305" stroke="black" stroke-miterlimit="10"/>
<path d="M256.726 306.009C256.097 313.534 261.702 320.142 269.237 320.771C276.781 321.4 283.407 315.813 284.036 308.288C284.666 300.762 279.061 294.155 271.517 293.526C263.981 292.897 257.356 298.484 256.726 306.009Z" fill="#A8E6AD" stroke="black" stroke-miterlimit="10"/>
<path d="M212.33 315.796C226.406 320.448 241.605 312.837 246.266 298.79C250.935 284.742 243.306 269.589 229.221 264.929C215.145 260.278 199.947 267.889 195.286 281.936C190.625 295.984 198.254 311.145 212.33 315.796Z" fill="#A8E6AD" stroke="black" stroke-miterlimit="10"/>
<path d="M270.582 350.286L223.021 291.596" stroke="black" stroke-miterlimit="10"/>
<path d="M221.541 302.106C228.115 302.106 233.439 296.791 233.439 290.235C233.439 283.679 228.115 278.365 221.541 278.365C214.966 278.365 209.642 283.679 209.642 290.235C209.634 296.791 214.966 302.106 221.541 302.106Z" fill="#D0F2D2"/>
<path d="M282.123 263.382C287.932 263.382 292.635 258.688 292.635 252.889C292.635 247.098 287.923 242.396 282.123 242.396C276.314 242.396 271.61 247.089 271.61 252.889C271.61 258.679 276.314 263.382 282.123 263.382Z" fill="#D0F2D2"/>
<path d="M309.739 304.555C314.893 304.555 319.069 300.38 319.069 295.227C319.069 290.074 314.893 285.899 309.739 285.899C304.585 285.899 300.409 290.074 300.409 295.227C300.4 300.371 304.585 304.555 309.739 304.555Z" fill="#D0F2D2"/>
<path d="M270.581 313.517C274.102 313.517 276.952 310.677 276.952 307.165C276.952 303.654 274.102 300.813 270.581 300.813C267.06 300.813 264.211 303.654 264.211 307.165C264.211 310.669 267.069 313.517 270.581 313.517Z" fill="#D0F2D2"/>
<path d="M460.849 349.095C460.849 327.845 442.452 309.589 428.878 305.915L427.543 305.558C425.434 294.3 414.59 286.893 403.32 288.994C392.06 291.103 385.366 301.068 387.492 312.335L387.611 313.084C376.87 321.408 369.963 334.435 369.963 349.087" fill="#78D186"/>
<path d="M445.914 349.095C445.914 338.713 454.326 330.277 464.744 330.277C475.129 330.277 483.575 338.687 483.575 349.095" fill="#54B057"/>
<path d="M445.914 349.869C445.914 339.487 454.326 331.051 464.744 331.051C475.129 331.051 483.575 339.461 483.575 349.869H369.98C369.98 335.209 376.887 322.191 387.629 313.866L387.509 313.118C385.383 301.851 392.077 291.885 403.337 289.776C414.598 287.667 425.442 295.074 427.56 306.341L428.895 306.689C442.461 310.354 452.106 319.376 457.498 332.14" stroke="black" stroke-miterlimit="10"/>
<path d="M201.061 231.562C199.666 227.821 196.417 222.753 188.907 219.539L189.842 217.702L189.97 217.455L167.618 200.151C166.156 188.196 163.298 174.505 157.838 162.014C157.489 159.403 156.996 157.328 156.358 155.679L153.806 145.849L153.585 145.815C153.372 145.781 152.19 147.507 149.579 147.397L148.661 139.761C149.196 139.871 149.775 139.939 150.379 139.939C151.433 139.939 152.59 139.752 153.823 139.276C159.998 136.937 158.748 130.722 158.731 130.671C158.722 130.645 158.297 128.205 157.37 125.526C157.123 124.761 156.553 123.307 156.06 122.133C156.128 122.091 156.213 122.048 156.29 122.023C157.064 121.708 157.812 122.116 157.829 122.125L158.161 121.555C158.118 121.529 157.14 120.985 156.069 121.402C155.983 121.436 155.907 121.478 155.822 121.521C155.55 120.875 155.354 120.39 155.329 120.331C155.32 120.305 153.951 117.635 151.756 114.973L151.731 114.99C150.94 114.004 149.851 112.814 148.627 111.912C148.627 111.912 136.745 100.773 125.637 114.132C125.637 114.132 122.992 118.604 119.624 120.645C114.096 123.995 112.344 127.932 113.611 133.043C114.683 137.405 111.868 139.922 109.086 141.784C107.156 143.077 103.243 144.854 101.934 151.903C100.887 157.55 95.5802 160.594 93.9643 163.697C90.6558 170.032 91.4212 180.713 98.1318 186.316C102.495 189.964 108.797 192.005 114.36 191.257L96.014 268.084L121.045 270.533L127.925 350.32L127.007 350.651H127.951L127.968 350.77L128.316 350.651H136.116L180.767 350.643L180.75 350.294C180.742 350.022 180.308 343.5 175.188 340.116C171.063 337.386 167.389 336.961 166.283 336.893L166.538 331.613L166.717 331.604L166.657 330.949L166.572 330.958L168.707 286.987L168.979 286.8L168.733 286.443L168.86 232.379C168.86 232.336 168.877 232.2 168.886 231.971L179.67 236.954L179.959 237.081L183.098 230.942L202.217 239.751L202.26 239.3C202.285 239.147 202.625 235.755 201.061 231.562Z" fill="white"/>
<path d="M181.822 230.21L201.716 239.377C201.716 239.377 203.187 225.755 187.835 219.658" fill="white"/>
<path d="M181.822 230.21L201.716 239.377C201.716 239.377 203.187 225.755 187.835 219.658" stroke="black" stroke-miterlimit="10"/>
<path d="M159.045 171.708L159.904 189.105C159.777 188.944 160.032 194.667 166.232 199.777L189.332 217.668L179.585 236.766L143.634 220.176C143.634 220.176 134.925 216.716 132.246 209.207L121.138 174.93C121.138 174.93 115.21 156.359 136.515 150.942C157.829 145.517 159.045 171.708 159.045 171.708Z" fill="#8CCD8C"/>
<path d="M159.046 171.707L159.905 189.105C159.777 188.944 152.122 203.323 158.323 208.442L183.838 228.45L179.594 236.775L143.643 220.185C143.643 220.185 134.934 216.724 132.255 209.216L121.147 174.939C121.147 174.939 115.219 156.367 136.524 150.951C157.829 145.517 159.046 171.707 159.046 171.707Z" fill="#54B057"/>
<path d="M159.045 171.708L159.904 189.105C159.777 188.944 160.032 194.667 166.232 199.777L189.332 217.668L179.585 236.766L143.634 220.176C143.634 220.176 134.925 216.716 132.246 209.207L121.138 174.93C121.138 174.93 115.21 156.359 136.515 150.942C157.829 145.517 159.045 171.708 159.045 171.708Z" stroke="#020202" stroke-miterlimit="10"/>
<path d="M168.316 232.481C168.316 232.481 171.174 192.813 156.809 161.078C142.443 129.344 144.612 206.648 144.612 206.648L156.264 231.681L168.316 232.481Z" fill="white" stroke="black" stroke-miterlimit="10"/>
<path d="M146.926 147.881C146.926 147.881 142.112 143.562 131.123 145.432L130.732 148.561" stroke="black" stroke-miterlimit="10"/>
<path d="M149.06 147.643L148.074 139.463" stroke="black" stroke-miterlimit="10"/>
<path d="M146.653 126.538C146.653 126.538 147.351 123.613 151.144 125.262" stroke="black" stroke-miterlimit="10"/>
<path d="M157.787 121.946C157.787 121.946 155.337 120.543 154.231 124.191" stroke="black" stroke-miterlimit="10"/>
<path d="M143.056 136.274C143.056 136.274 147.121 141.512 153.508 139.08C159.488 136.81 158.212 130.832 158.212 130.832C158.212 130.832 157.795 128.417 156.868 125.722C156.426 124.335 154.844 120.586 154.844 120.586C154.844 120.586 153.508 117.958 151.306 115.288" stroke="black" stroke-miterlimit="10"/>
<path d="M131.404 143.136L131.991 137.295" stroke="black" stroke-miterlimit="10"/>
<path d="M165.739 337.31C165.739 337.31 170 337.31 174.797 340.49C179.84 343.823 180.214 350.413 180.214 350.413L135.903 350.422H128.708L165.739 337.31Z" fill="#15B54A" stroke="#020202" stroke-miterlimit="10"/>
<path d="M153.33 146.257L156.8 161.078L139.569 158.459L132.408 151.47C132.425 151.461 138.829 146.266 153.33 146.257Z" fill="#0B3184"/>
<path d="M156.264 157.635L153.339 146.266C153.339 146.266 138.251 146.053 131.217 151.487" fill="#54B057"/>
<path d="M156.264 157.635L153.339 146.266C153.339 146.266 138.251 146.053 131.217 151.487" stroke="#020202" stroke-miterlimit="10"/>
<path d="M165.739 337.31L128.053 350.413L117.592 229.139L168.316 232.659L168.189 286.647C168.895 287.633 168.189 286.647 168.189 286.647L165.739 337.31Z" stroke="black" stroke-miterlimit="10"/>
<path d="M166.479 331.383L127.151 334.903" stroke="black" stroke-miterlimit="10"/>
<path d="M146.211 241.605C146.211 241.605 147.47 274.292 121.504 274.487" stroke="black" stroke-miterlimit="10"/>
<path d="M163.553 274.487L96.2266 267.906L120.279 167.15C120.279 167.15 120.492 150.211 138.233 150.211C149.435 150.211 156.511 146.563 157.735 166.614C160.797 217.175 163.553 274.487 163.553 274.487Z" fill="#78D186"/>
<path d="M119.131 269.428L96.2183 267.761L120.271 167.005C120.271 167.005 120.483 150.067 138.225 150.067C154.47 150.067 125.808 149.743 127.032 169.794C128.716 223.093 119.131 269.428 119.131 269.428Z" fill="#15B54A"/>
<path d="M163.553 274.487L96.2266 267.906L120.279 167.15C120.279 167.15 120.492 150.211 138.233 150.211C149.435 150.211 156.511 146.563 157.735 166.614C160.797 217.175 163.553 274.487 163.553 274.487Z" stroke="#020202" stroke-miterlimit="10"/>
<path d="M131.506 139.386L137.434 133.273C137.434 133.273 132.169 133.868 132.527 129.472C132.884 125.075 136.073 124.302 137.519 125.509C137.519 125.509 143.269 111.343 152.879 116.98C152.879 116.98 150.379 112.958 147.317 111.334C137.791 106.292 130.188 114.922 130.188 114.922C130.188 114.922 120.373 125.509 131.94 134.829L131.506 139.386Z" fill="black"/>
<path d="M132.578 129.438C132.68 128.188 133.02 127.235 133.479 126.538C133.122 125.662 132.807 124.761 132.569 123.834C131.685 120.39 131.659 116.691 133.454 113.519C133.913 112.703 134.474 111.938 135.07 111.257C132.101 112.797 130.264 114.897 130.264 114.897C130.264 114.897 120.449 125.484 132.016 134.803L131.574 139.361L137.502 133.247C137.502 133.239 132.238 133.834 132.578 129.438Z" fill="black"/>
<path d="M161.001 224.624L148.567 225.95C148.567 225.95 150.931 246.018 133.862 248.926H127.151L124.846 270.703" stroke="#020202" stroke-miterlimit="10"/>
<path d="M120.245 168.519L125.893 208.527C125.893 208.527 123.273 210.372 123.673 213.773C124.174 218.076 128.274 218.68 128.274 218.68L133.845 257.557L153.832 257.353L153.815 169.726C153.815 169.726 154.572 159.845 145.939 156.385" fill="#78D186"/>
<path d="M120.245 168.519L125.893 208.527C125.893 208.527 123.273 210.372 123.673 213.773C124.174 218.076 128.274 218.68 128.274 218.68L133.845 257.557L153.832 257.353L153.815 169.726C153.815 169.726 154.572 159.845 145.939 156.385" stroke="#020202" stroke-miterlimit="10"/>
<path d="M136.524 257.353L149.401 257.285C149.401 257.285 149.647 276.97 137.094 278.815L136.524 257.353Z" fill="white" stroke="black" stroke-miterlimit="10"/>
<path d="M153.815 251.656L131.948 244.3" stroke="black" stroke-miterlimit="10"/>
<path d="M148.422 112.031C148.422 112.031 136.541 100.892 125.433 114.242C125.433 114.242 122.788 118.715 119.42 120.756C113.892 124.106 112.14 128.043 113.407 133.145C114.479 137.507 111.663 140.024 108.882 141.886C106.952 143.179 103.039 144.956 101.729 152.005C100.675 157.652 95.3761 160.696 93.7602 163.799C90.4517 170.126 91.2171 180.815 97.9277 186.418C107.862 194.709 127.781 194.726 126.369 172.405C126.369 172.405 125.578 164.701 133.394 156.793C138.029 152.107 130.502 145.109 133.496 142.295C138.837 137.286 138.616 131.181 135.571 134.863C132.144 138.995 131.625 132.932 131.625 132.932L132.271 120.526L142.324 115.535L146.509 111.81L148.422 112.031Z" fill="black"/>
<path d="M56.5249 350.175H75.1001L70.5668 322.539H61.0581L56.5249 350.175Z" fill="white" stroke="black" stroke-miterlimit="10"/>
<path d="M81.3511 349.869H90.7067L88.4273 336.264H83.6389L81.3511 349.869Z" fill="white" stroke="black" stroke-miterlimit="10"/>
<path d="M49.3296 324.257C49.3296 315.158 56.712 307.778 65.8125 307.778C74.9129 307.778 82.2954 315.158 82.2954 324.257H49.3296Z" fill="#78D186" stroke="black" stroke-miterlimit="10"/>
<path d="M77.0986 337.114C77.0986 332.42 80.9089 328.611 85.6037 328.611C90.2986 328.611 94.1088 332.42 94.1088 337.114H77.0986Z" fill="#78D186" stroke="black" stroke-miterlimit="10"/>
<path d="M384.031 234.981L445.412 225.057L404.239 246.826L384.031 234.981Z" fill="#6CC2FA"/>
<path d="M411.272 250.193L445.42 225.066L430.97 260.746L411.272 250.193Z" fill="#6CC2FA"/>
<path d="M445.421 225.066L384.04 234.989L404.248 246.835L406.867 263.339L411.273 250.202L430.971 260.754L445.421 225.066Z" stroke="#1D1D1B" stroke-miterlimit="10"/>
<path d="M406.867 263.339L417.005 253.271" stroke="#1D1D1B" stroke-miterlimit="10"/>
<path d="M404.239 246.826L445.412 225.057L411.264 250.185" stroke="#1D1D1B" stroke-miterlimit="10"/>
<path d="M212.262 8.52049L162.651 0.544373L195.932 18.0527L212.262 8.52049Z" fill="#15B54A"/>
<path d="M190.25 20.7566L162.651 0.535706L174.329 29.2344L190.25 20.7566Z" fill="#15B54A"/>
<path d="M162.651 0.535706L212.262 8.51182L195.932 18.0355L193.814 31.3092L190.25 20.7396L174.329 29.2259L162.651 0.535706Z" stroke="#1D1D1B" stroke-miterlimit="10"/>
<path d="M193.805 31.3262L185.606 23.231" stroke="#1D1D1B" stroke-miterlimit="10"/>
<path d="M195.932 18.044L162.651 0.535706L190.25 20.7481" stroke="#1D1D1B" stroke-miterlimit="10"/>
<path d="M226.661 42.0489C226.661 38.5285 229.519 35.6714 233.04 35.6714H310.436C313.958 35.6714 316.815 38.5285 316.815 42.0489V90.4583C316.815 93.9786 313.958 96.8358 310.436 96.8358H297.228C295.944 96.8358 294.949 97.9752 295.119 99.2507L296.803 111.649L279.861 98.3749C278.585 97.38 277.02 96.8358 275.404 96.8358H233.04C229.519 96.8358 226.661 93.9786 226.661 90.4583V42.0489Z" fill="white" stroke="black"/>
<path d="M251.113 70.7646C254.115 70.7646 256.548 68.3319 256.548 65.331C256.548 62.3301 254.115 59.8973 251.113 59.8973C248.111 59.8973 245.678 62.3301 245.678 65.331C245.678 68.3319 248.111 70.7646 251.113 70.7646Z" fill="#B4E4B0" stroke="black"/>
<path d="M271.84 70.7646C274.842 70.7646 277.275 68.3319 277.275 65.331C277.275 62.3301 274.842 59.8973 271.84 59.8973C268.838 59.8973 266.405 62.3301 266.405 65.331C266.405 68.3319 268.838 70.7646 271.84 70.7646Z" fill="#B4E4B0" stroke="black"/>
<path d="M292.559 70.7646C295.56 70.7646 297.994 68.3319 297.994 65.331C297.994 62.3301 295.56 59.8973 292.559 59.8973C289.557 59.8973 287.124 62.3301 287.124 65.331C287.124 68.3319 289.557 70.7646 292.559 70.7646Z" fill="#B4E4B0" stroke="black"/>
<path d="M243.671 82.8648C243.671 79.3444 240.813 76.4873 237.292 76.4873H176.056C172.534 76.4873 169.677 79.3444 169.677 82.8648V120.373C169.677 123.893 172.534 126.75 176.056 126.75H185.369C186.653 126.75 187.648 127.89 187.478 129.165L186.16 138.859L199.623 128.298C200.899 127.295 202.472 126.759 204.088 126.759H237.292C240.813 126.759 243.671 123.902 243.671 120.381V82.8648Z" fill="white" stroke="black"/>
<path d="M190.497 106.036C192.926 106.036 194.894 104.068 194.894 101.64C194.894 99.2121 192.926 97.2439 190.497 97.2439C188.069 97.2439 186.1 99.2121 186.1 101.64C186.1 104.068 188.069 106.036 190.497 106.036Z" fill="#80C1F1" stroke="black"/>
<path d="M207.559 106.036C209.987 106.036 211.956 104.068 211.956 101.64C211.956 99.2121 209.987 97.2439 207.559 97.2439C205.13 97.2439 203.162 99.2121 203.162 101.64C203.162 104.068 205.13 106.036 207.559 106.036Z" fill="#80C1F1" stroke="black"/>
<path d="M224.62 106.036C227.048 106.036 229.017 104.068 229.017 101.64C229.017 99.2121 227.048 97.2439 224.62 97.2439C222.191 97.2439 220.223 99.2121 220.223 101.64C220.223 104.068 222.191 106.036 224.62 106.036Z" fill="#80C1F1" stroke="black"/>
<path d="M420.186 133.732C420.679 135.475 422.908 141.716 429.278 140.492L429.337 140.475L429.397 140.441C429.44 140.424 433.114 138.392 431.319 133.893C433.896 134.029 442.367 134.174 445.71 130.807C446.688 129.829 447.147 128.621 447.088 127.218C446.994 125.322 446.229 124.021 444.817 123.324C441.661 121.785 436.125 123.859 433.36 125.424C434.815 121.657 438.319 111.189 434.891 104.888C433.445 102.218 430.928 100.628 427.407 100.144C427.228 100.118 423.035 99.6419 420.297 103.205C417.354 107.031 417.303 113.834 420.126 123.451C416.146 116.538 415.347 109.378 415.185 107.176C415.415 106.963 415.542 106.623 415.449 106.274C415.321 105.781 414.853 105.475 414.411 105.594C413.952 105.713 413.697 106.198 413.824 106.691C413.901 106.98 414.088 107.193 414.326 107.295C414.505 109.693 415.364 116.997 419.438 124.029C415.006 119.88 412.855 114.608 412.276 113.043C412.446 112.831 412.523 112.541 412.446 112.252C412.319 111.759 411.859 111.453 411.409 111.572C410.949 111.691 410.694 112.176 410.813 112.669C410.898 113.001 411.154 113.239 411.434 113.324C411.927 114.693 413.56 118.749 416.818 122.592C413.858 120.858 410.175 119.276 407.377 120.118C405.71 120.603 404.528 121.895 403.882 124.004C403.848 124.174 403.142 128.315 406.033 131.325C408.67 134.08 413.441 134.905 420.186 133.732Z" fill="white"/>
<path d="M432.339 126.631C432.339 126.631 442.928 102.72 427.313 100.62C427.313 100.62 412.165 98.7405 421.461 126.436C421.461 126.436 407.232 114.472 404.238 124.08C404.238 124.08 401.993 136.614 420.466 133.204C420.466 133.204 422.15 141.385 429.15 140.033C429.15 140.033 432.892 138.043 430.561 133.383C430.561 133.383 446.934 134.718 446.594 127.244C446.236 119.769 434.576 124.812 432.339 126.631Z" stroke="black" stroke-miterlimit="10"/>
<path d="M421.308 126.24C414.828 117.082 414.649 106.479 414.649 106.479" stroke="black" stroke-miterlimit="10"/>
<path d="M411.63 112.72C411.63 112.72 414.258 121.155 421.317 126.223" stroke="black" stroke-miterlimit="10"/>
<path d="M414.794 107.371C415.253 107.252 415.508 106.768 415.38 106.274C415.253 105.781 414.785 105.484 414.343 105.594C413.883 105.713 413.628 106.198 413.756 106.691C413.883 107.176 414.343 107.49 414.794 107.371Z" fill="black"/>
<path d="M411.783 113.349C412.242 113.23 412.497 112.746 412.37 112.252C412.242 111.759 411.783 111.453 411.332 111.572C410.873 111.691 410.618 112.176 410.737 112.669C410.864 113.154 411.332 113.46 411.783 113.349Z" fill="black"/>
<path d="M203.689 186.631C203.723 187.855 204.156 192.303 208.63 192.558H208.673L208.715 192.549C208.749 192.541 211.547 191.818 211.105 188.578C212.806 189.088 218.453 190.593 221.252 188.935C222.068 188.451 222.587 187.745 222.783 186.818C223.046 185.559 222.749 184.582 221.924 183.893C220.078 182.371 216.021 182.804 213.903 183.374C215.511 181.155 219.627 174.879 218.402 170.185C217.884 168.196 216.472 166.742 214.192 165.84C214.082 165.798 211.352 164.786 208.911 166.674C206.3 168.689 205.109 173.136 205.373 179.896C203.876 174.709 204.556 169.896 204.82 168.425C205.007 168.323 205.151 168.119 205.151 167.881C205.151 167.541 204.888 167.26 204.573 167.26C204.25 167.26 203.995 167.541 203.995 167.881C203.995 168.077 204.088 168.255 204.224 168.366C203.935 169.964 203.28 174.888 204.811 180.168C202.549 176.724 202.005 172.915 201.877 171.793C202.022 171.682 202.124 171.503 202.124 171.299C202.124 170.959 201.86 170.679 201.545 170.679C201.222 170.679 200.967 170.959 200.967 171.299C200.967 171.529 201.095 171.725 201.273 171.827C201.367 172.804 201.775 175.73 203.306 178.782C201.622 177.158 199.419 175.517 197.403 175.602C196.204 175.645 195.192 176.291 194.41 177.566C194.359 177.668 193.185 180.262 194.614 182.719C195.923 184.956 198.977 186.282 203.689 186.631Z" fill="white"/>
<path d="M213.018 183.995C213.018 183.995 224.143 170.092 214.056 166.138C214.056 166.138 204.241 162.405 205.781 182.073C205.781 182.073 198.288 171.886 194.656 177.677C194.656 177.677 191.041 185.508 203.969 186.333C203.969 186.333 203.714 191.971 208.621 192.243C208.621 192.243 211.462 191.554 210.697 188.119C210.697 188.119 221.421 191.699 222.459 186.75C223.48 181.801 214.83 183.17 213.018 183.995Z" stroke="black" stroke-miterlimit="10"/>
<path d="M205.704 181.912C202.915 174.845 204.59 167.873 204.59 167.873" stroke="black" stroke-miterlimit="10"/>
<path d="M201.511 171.461C201.511 171.461 201.843 177.422 205.713 181.903" stroke="black" stroke-miterlimit="10"/>
<path d="M204.539 168.485C204.862 168.485 205.118 168.204 205.118 167.864C205.118 167.524 204.854 167.243 204.539 167.243C204.216 167.243 203.961 167.524 203.961 167.864C203.961 168.204 204.216 168.485 204.539 168.485Z" fill="black"/>
<path d="M201.511 171.895C201.835 171.895 202.09 171.622 202.09 171.274C202.09 170.934 201.826 170.653 201.511 170.653C201.188 170.653 200.933 170.934 200.933 171.274C200.933 171.622 201.197 171.895 201.511 171.895Z" fill="black"/>
<path d="M39.2934 243.484C39.3529 245.431 40.0418 252.532 47.1181 252.94H47.1861L47.2542 252.923C47.3052 252.914 51.7363 251.758 51.0389 246.588C53.735 247.404 62.6654 249.802 67.1051 247.157C68.3978 246.392 69.2143 245.253 69.529 243.782C69.9373 241.783 69.478 240.219 68.1597 239.113C65.2339 236.681 58.8041 237.387 55.4616 238.28C58.0131 234.734 64.5195 224.734 62.5804 217.243C61.7639 214.08 59.527 211.75 55.9123 210.321C55.7337 210.253 51.4131 208.646 47.5603 211.648C43.4184 214.87 41.5387 221.954 41.964 232.736C39.5911 224.471 40.6712 216.792 41.088 214.445C41.3856 214.284 41.6153 213.961 41.6153 213.569C41.6153 213.025 41.1985 212.583 40.6967 212.583C40.1779 212.583 39.7782 213.025 39.7782 213.569C39.7782 213.884 39.9228 214.165 40.1439 214.335C39.6846 216.886 38.647 224.734 41.0794 233.144C37.4988 227.651 36.6313 221.571 36.4357 219.794C36.6653 219.615 36.8269 219.335 36.8269 219.011C36.8269 218.467 36.4187 218.025 35.9083 218.025C35.3895 218.025 34.9898 218.467 34.9898 219.011C34.9898 219.386 35.1939 219.692 35.4746 219.862C35.6277 221.426 36.2741 226.086 38.698 230.959C36.0274 228.365 32.5488 225.746 29.3509 225.891C27.4543 225.959 25.8553 226.996 24.6136 229.02C24.537 229.19 22.6829 233.323 24.9283 237.234C26.995 240.814 31.8259 242.923 39.2934 243.484Z" fill="white"/>
<path d="M54.0575 239.275C54.0575 239.275 71.6716 217.107 55.699 210.797C55.699 210.797 40.1517 204.845 42.5927 236.205C42.5927 236.205 30.728 219.964 24.9786 229.198C24.9786 229.198 19.2462 241.69 39.7264 242.999C39.7264 242.999 39.3267 251.987 47.0919 252.421C47.0919 252.421 51.5911 251.324 50.3748 245.848C50.3748 245.848 67.3595 251.554 69.001 243.671C70.6255 235.772 56.9238 237.957 54.0575 239.275Z" stroke="black" stroke-miterlimit="10"/>
<path d="M42.4826 235.959C38.0684 224.683 40.722 213.569 40.722 213.569" stroke="black" stroke-miterlimit="10"/>
<path d="M35.8486 219.292C35.8486 219.292 36.3759 228.79 42.4996 235.942" stroke="black" stroke-miterlimit="10"/>
<path d="M40.6373 214.547C41.1561 214.547 41.5559 214.105 41.5559 213.561C41.5559 213.017 41.1391 212.574 40.6373 212.574C40.1185 212.574 39.7188 213.017 39.7188 213.561C39.7188 214.105 40.1185 214.547 40.6373 214.547Z" fill="black"/>
<path d="M35.8487 219.989C36.3675 219.989 36.7673 219.547 36.7673 219.003C36.7673 218.459 36.359 218.017 35.8487 218.017C35.3299 218.017 34.9302 218.459 34.9302 219.003C34.9302 219.547 35.3384 219.989 35.8487 219.989Z" fill="black"/>
<path d="M369.36 240.627L367.591 152.116C367.591 151.954 367.242 138.409 355.063 134.463C355.011 134.429 354.969 134.395 354.918 134.361L354.297 120.875C355.53 120.832 356.806 120.501 358.065 119.795C363.746 116.589 360.948 107.856 360.948 107.856C360.948 107.856 368.484 102.746 362.726 94.1232C356.959 85.5094 348.48 91.3426 348.48 91.3426C343.606 84.2254 338.648 91.1811 338.648 91.1811C336.802 89.9736 332.669 90.2967 331.937 95.1521C331.733 96.5212 332.524 97.7031 333.842 98.715C332.481 100.186 330.321 103.409 328.595 107.805C327.319 111.427 327.191 113.57 327.191 113.613C327.183 113.672 326.332 119.293 332.337 121.257C333.451 121.623 334.489 121.776 335.441 121.776C336.045 121.776 336.615 121.708 337.151 121.606L335.076 130.849C332.584 130.985 330.865 131.206 330.644 131.24L330.33 131.283L328.178 144.378C326.111 147.269 323.823 150.857 321.051 155.271C302.135 185.44 298.597 239.385 298.563 239.93L298.538 240.38L307.638 240.414L317.529 335.762C316.22 335.856 312.316 336.366 307.961 339.248C302.399 342.93 301.931 350.005 301.914 350.303L301.889 350.753L358.686 350.762L359.162 350.932L359.17 350.762H360.523L359.179 350.286L359.757 333.305L359.774 333.135H359.766L362.896 240.601L369.36 240.627Z" fill="white"/>
<path d="M317.989 335.992C317.989 335.992 313.387 335.992 308.182 339.436C302.731 343.041 302.322 350.167 302.322 350.167L350.24 350.175H358.031L317.989 335.992Z" fill="#6CC2FA" stroke="black" stroke-miterlimit="10"/>
<path d="M328.484 144.948L330.695 131.495C330.695 131.495 347.714 129.14 355.335 135.016" fill="#3495EE"/>
<path d="M328.484 144.948L330.695 131.495C330.695 131.495 347.714 129.14 355.335 135.016" stroke="#020202" stroke-miterlimit="10"/>
<path d="M335.441 130.96L337.695 120.934" stroke="black" stroke-miterlimit="10"/>
<path d="M354.493 134.242L353.821 119.701" stroke="black" stroke-miterlimit="10"/>
<path d="M334.217 98.7491C333.026 100.016 330.789 103.196 328.978 107.78C327.71 111.394 327.591 113.519 327.591 113.519C327.591 113.519 326.724 118.817 332.456 120.688C338.597 122.703 342.118 117.984 342.118 117.984" stroke="black" stroke-miterlimit="10"/>
<path d="M346.192 112.899C346.192 112.899 348.93 115.407 350.691 112.507C352.451 109.608 351.005 107.992 349.041 108.205C349.041 108.205 350.002 103.86 346.438 103.103C342.892 102.346 331.189 99.812 331.92 94.9736C332.651 90.1267 336.785 89.7951 338.631 91.011C338.631 91.011 343.581 84.0553 348.462 91.1641C348.462 91.1641 356.951 85.3308 362.708 93.9532C368.466 102.576 360.931 107.686 360.931 107.686C360.931 107.686 363.729 116.419 358.048 119.625C352.375 122.839 346.166 118.562 346.192 112.899Z" fill="black"/>
<path d="M317.989 335.992L358.745 350.167L363.236 217.226L306.243 222.813L317.989 335.992Z" stroke="black" stroke-miterlimit="10"/>
<path d="M317.181 329.58L359.723 333.39" stroke="black" stroke-miterlimit="10"/>
<path d="M339.107 232.481C339.107 232.481 333.715 267.829 361.799 268.042" stroke="black" stroke-miterlimit="10"/>
<path d="M298.979 239.785L368.917 240.032L367.156 151.946C367.156 151.946 366.918 133.638 347.739 133.638C335.627 133.638 332.302 137.966 321.407 155.322C302.322 185.755 298.979 239.785 298.979 239.785Z" fill="#6CC2FA" stroke="#020202" stroke-miterlimit="10"/>
<path d="M341.922 239.402L368.875 239.615L367.114 152.201C367.114 152.201 361.883 178.196 342.704 178.196C330.593 178.196 367.446 147.269 356.559 164.633C356.559 202.354 341.922 239.402 341.922 239.402Z" fill="#3495EE"/>
<path d="M367.191 153.434L361.084 196.707C361.084 196.707 361.518 193.034 361.084 196.707C360.531 201.359 358.507 207.685 358.507 207.685L352.486 249.734L330.874 249.513L330.891 154.743C330.891 154.743 330.075 144.063 339.405 140.313" fill="#6CC2FA"/>
<path d="M367.191 153.434L352.477 249.734L330.865 249.513L330.882 154.743C330.882 154.743 330.066 144.063 339.396 140.313" stroke="#020202" stroke-miterlimit="10"/>
<path d="M349.619 249.964L335.688 249.896C335.688 249.896 335.416 271.188 348.998 273.178L349.619 249.964Z" fill="white" stroke="black" stroke-miterlimit="10"/>
<path d="M330.882 243.348L354.526 235.389" stroke="black" stroke-miterlimit="10"/>
<path d="M334.616 106.53C334.616 106.53 336.981 104.293 339.439 108.001" stroke="black" stroke-miterlimit="10"/>
</g>
<defs>
<clipPath id="clip0">
<rect width="484" height="351" fill="white"/>
</clipPath>
</defs>
</svg>
