<?xml version="1.0" encoding="utf-8"?>
<!-- Generator: Adobe Illustrator 23.0.4, SVG Export Plug-In . SVG Version: 6.00 Build 0)  -->
<svg version="1.1" id="Layer_1" xmlns="http://www.w3.org/2000/svg" xmlns:xlink="http://www.w3.org/1999/xlink" x="0px" y="0px"
	 viewBox="0 0 85.9 85.9" style="enable-background:new 0 0 85.9 85.9;" xml:space="preserve">
<style type="text/css">
	.st0{fill:#D7FFE4;}
	.st1{fill:#15B54A;}
</style>
<circle class="st0" cx="43" cy="43" r="43"/>
<path class="st1" d="M50.5,44.8l-0.3,0.1c-2.1,2.7-4.7,4.3-7.3,4.3s-5.1-1.5-7.3-4.3l-0.3-0.1c-6.8,2.8-10.9,6-10.9,9.5
	c0,5.1,8.3,9.3,18.5,9.3s18.5-4.2,18.5-9.3C61.5,50.7,57.3,47.6,50.5,44.8z"/>
<path class="st1" d="M43,45.4c5.5,0,9.9-7.6,9.9-13c0-5.5-4.5-9.9-9.9-9.9s-9.9,4.4-9.9,9.9S37.5,45.4,43,45.4z"/>
</svg>
