<?xml version="1.0" encoding="utf-8"?>
<!-- Generator: Adobe Illustrator 23.0.4, SVG Export Plug-In . SVG Version: 6.00 Build 0)  -->
<svg version="1.1" id="Layer_1" xmlns="http://www.w3.org/2000/svg" xmlns:xlink="http://www.w3.org/1999/xlink" x="0px" y="0px"
	 viewBox="0 0 972 165.9" style="enable-background:new 0 0 972 165.9;" xml:space="preserve">
<style type="text/css">
	.st0{fill:#228099;}
	.st1{fill:#333333;}
	.st2{fill:#FFFFFF;}
	.st3{fill:none;}
	.st4{font-family:'FuturaBT-Heavy';}
	.st5{font-size:86.7823px;}
	.st6{letter-spacing:3;}
</style>
<g>
	<path class="st2" d="M142.9,0.7v101.7c0,22.2-5.8,38.8-17.5,49.7c-11.7,10.9-29.3,16.4-52.8,16.4c-23.9,0-41.7-5.5-53.4-16.4
		C7.4,141.2,1.6,124.7,1.6,102.5V0.7h34.7V97c0,13.5,3,23.6,8.9,30.4c6,6.8,14.9,10.2,26.7,10.2c11.9,0,20.9-3.4,27-10.3
		c6.1-6.8,9.2-17,9.2-30.4V0.7H142.9z"/>
	<path class="st2" d="M174.5,164.3V0.7h36.3l72.4,95.2c2.1,2.7,4.4,6.5,6.9,11.3c2.5,4.9,5.1,10.6,7.8,17.3
		c-0.8-4.8-1.4-9.6-1.8-14.4c-0.4-4.8-0.6-10.7-0.6-17.9V0.7h33.4v163.5h-34.3l-74.4-96.9c-2.1-2.7-4.4-6.5-6.8-11.3
		c-2.5-4.9-5.1-10.7-7.8-17.5c0.8,4.7,1.4,9.4,1.8,14.2c0.4,4.8,0.6,10.9,0.6,18.1v93.4H174.5z"/>
</g>
<g>
	<path class="st2" d="M370,71.8v-62h13.3v62H370z"/>
	<path class="st2" d="M400.9,71.8v-62h13.8l27.5,36.1c0.8,1,1.7,2.5,2.6,4.3c0.9,1.9,1.9,4,2.9,6.5c-0.3-1.8-0.5-3.7-0.7-5.5
		c-0.1-1.8-0.2-4.1-0.2-6.8V9.7h12.7v62h-13L418.3,35c-0.8-1-1.7-2.5-2.6-4.3c-0.9-1.8-1.9-4.1-3-6.6c0.3,1.8,0.5,3.6,0.7,5.4
		c0.1,1.8,0.2,4.1,0.2,6.9v35.4H400.9z"/>
	<path class="st2" d="M476.8,71.8v-62h13.8L518,45.8c0.8,1,1.7,2.5,2.6,4.3c0.9,1.9,1.9,4,2.9,6.5c-0.3-1.8-0.5-3.7-0.7-5.5
		c-0.1-1.8-0.2-4.1-0.2-6.8V9.7h12.7v62h-13L494.1,35c-0.8-1-1.7-2.5-2.6-4.3c-0.9-1.8-1.9-4.1-3-6.6c0.3,1.8,0.5,3.6,0.7,5.4
		c0.1,1.8,0.2,4.1,0.2,6.9v35.4H476.8z"/>
	<path class="st2" d="M616.1,40.9c0,4.4-0.8,8.6-2.5,12.6c-1.7,4-4,7.4-7.1,10.4c-3.2,3.1-6.9,5.4-10.9,7.1c-4,1.6-8.2,2.5-12.5,2.5
		c-3.8,0-7.5-0.6-11.1-1.9s-7-3.1-10-5.5c-3.9-3.1-6.9-6.8-9-11.1c-2.1-4.3-3.1-9-3.1-13.9c0-4.5,0.8-8.7,2.5-12.6
		c1.6-3.9,4-7.4,7.2-10.4c3.1-3,6.7-5.4,10.8-7c4.1-1.7,8.3-2.5,12.7-2.5c4.3,0,8.5,0.8,12.6,2.5c4.1,1.7,7.7,4,10.8,7
		c3.1,3.1,5.5,6.5,7.2,10.5C615.3,32.3,616.1,36.4,616.1,40.9z M583.1,61.6c5.6,0,10.3-2,13.9-5.9c3.7-3.9,5.5-8.9,5.5-14.8
		c0-5.9-1.9-10.8-5.6-14.8c-3.7-4-8.3-6-13.9-6c-5.6,0-10.3,2-14,6c-3.7,4-5.6,8.9-5.6,14.9c0,6,1.8,10.9,5.5,14.9
		C572.7,59.6,577.3,61.6,583.1,61.6z"/>
	<path class="st2" d="M645,71.8l-22.9-62h14.7l12.1,38.7c0.2,0.8,0.6,2.3,1.1,4.4c0.5,2.1,1,4.6,1.5,7.3c0.4-2.7,0.8-5,1.2-7.1
		c0.4-2.1,0.9-3.8,1.3-5.1l12.2-38.3h14.5l-23.1,62H645z"/>
	<path class="st2" d="M681.9,71.8l23.6-62h15.2l23.9,62h-15.1l-5-13.2h-24l-4.3,13.2H681.9z M721.4,48.2l-6.9-20
		c-0.2-0.6-0.5-1.6-0.8-3.1s-0.6-3.2-1-5.3c-0.4,2-0.7,3.8-1.1,5.4c-0.3,1.6-0.6,2.7-0.8,3.2l-6.7,19.8H721.4z"/>
	<path class="st2" d="M773,21v50.8h-13.3V21h-15.2V9.7h43.6V21H773z"/>
	<path class="st2" d="M800.6,71.8v-62h13.3v62H800.6z"/>
	<path class="st2" d="M895,40.9c0,4.4-0.8,8.6-2.5,12.6s-4,7.4-7.1,10.4c-3.2,3.1-6.9,5.4-10.9,7.1c-4,1.6-8.2,2.5-12.5,2.5
		c-3.8,0-7.5-0.6-11.1-1.9s-7-3.1-10-5.5c-3.9-3.1-6.9-6.8-9-11.1c-2.1-4.3-3.1-9-3.1-13.9c0-4.5,0.8-8.7,2.5-12.6
		c1.6-3.9,4-7.4,7.2-10.4c3.1-3,6.7-5.4,10.8-7s8.3-2.5,12.7-2.5c4.3,0,8.5,0.8,12.6,2.5s7.7,4,10.8,7c3.1,3.1,5.5,6.5,7.2,10.5
		C894.2,32.3,895,36.4,895,40.9z M862,61.6c5.6,0,10.3-2,13.9-5.9s5.5-8.9,5.5-14.8c0-5.9-1.9-10.8-5.6-14.8c-3.7-4-8.3-6-13.9-6
		c-5.6,0-10.3,2-14,6c-3.7,4-5.6,8.9-5.6,14.9c0,6,1.8,10.9,5.5,14.9C851.6,59.6,856.2,61.6,862,61.6z"/>
	<path class="st2" d="M909.7,71.8v-62h13.8l27.5,36.1c0.8,1,1.7,2.5,2.6,4.3c0.9,1.9,1.9,4,2.9,6.5c-0.3-1.8-0.5-3.7-0.7-5.5
		c-0.1-1.8-0.2-4.1-0.2-6.8V9.7h12.7v62h-13L927,35c-0.8-1-1.7-2.5-2.6-4.3c-0.9-1.8-1.9-4.1-3-6.6c0.3,1.8,0.5,3.6,0.7,5.4
		s0.2,4.1,0.2,6.9v35.4H909.7z"/>
	<path class="st2" d="M369.8,164.8v-62h13.8l27.5,36.1c0.8,1,1.7,2.5,2.6,4.3c0.9,1.9,1.9,4,2.9,6.5c-0.3-1.8-0.5-3.7-0.7-5.5
		c-0.1-1.8-0.2-4.1-0.2-6.8v-34.7h12.7v62h-13L387.1,128c-0.8-1-1.7-2.5-2.6-4.3c-0.9-1.8-1.9-4.1-3-6.6c0.3,1.8,0.5,3.6,0.7,5.4
		c0.1,1.8,0.2,4.1,0.2,6.9v35.4H369.8z"/>
	<path class="st2" d="M445.6,164.8v-62h36.5v11.2h-23.3v12.8h23.3v11.3h-23.3v15.6h23.3v11.3H445.6z"/>
	<path class="st2" d="M521.8,114v50.8h-13.3V114h-15.2v-11.3H537V114H521.8z"/>
	<path class="st2" d="M592.3,102.7l9.2,33.6c0.6,2.1,1.1,4.4,1.7,6.9c0.5,2.5,1,5.2,1.4,8.3c0.1-2.6,0.2-5.1,0.6-7.6
		c0.3-2.5,0.8-5,1.5-7.6l8.1-33.6h13.1l-16.2,62h-12.8l-11.1-39.6c-0.5-1.8-1-3.6-1.3-5.5c-0.3-1.8-0.5-3.7-0.6-5.7
		c-0.1,2.1-0.4,4.1-0.7,5.9c-0.3,1.9-0.7,3.6-1.2,5.3l-11.2,39.6H560l-16.2-62H557l8.2,34.5c0.5,2,0.8,4.1,1.1,6.4
		c0.3,2.3,0.5,4.8,0.6,7.5c0.5-3.6,1.5-8.1,3-13.6l0.2-0.9l9.1-33.9H592.3z"/>
	<path class="st2" d="M703.3,133.9c0,4.4-0.8,8.6-2.5,12.6c-1.7,4-4,7.4-7.1,10.4c-3.2,3.1-6.9,5.4-10.9,7.1
		c-4,1.6-8.2,2.5-12.5,2.5c-3.8,0-7.5-0.6-11.1-1.9s-7-3.1-10-5.5c-3.9-3.1-6.9-6.8-9-11.1c-2.1-4.3-3.1-9-3.1-13.9
		c0-4.5,0.8-8.7,2.5-12.6c1.6-3.9,4-7.4,7.2-10.4c3.1-3,6.7-5.4,10.8-7c4.1-1.7,8.3-2.5,12.7-2.5c4.3,0,8.5,0.8,12.6,2.5
		c4.1,1.7,7.7,4,10.8,7c3.1,3.1,5.5,6.5,7.2,10.5C702.5,125.3,703.3,129.4,703.3,133.9z M670.3,154.6c5.6,0,10.3-2,13.9-5.9
		c3.7-3.9,5.5-8.9,5.5-14.8c0-5.9-1.9-10.8-5.6-14.8c-3.7-4-8.3-6-13.9-6c-5.6,0-10.3,2-14,6c-3.7,4-5.6,8.9-5.6,14.9
		c0,6,1.8,10.9,5.5,14.9C659.9,152.6,664.6,154.6,670.3,154.6z"/>
	<path class="st2" d="M762.9,164.8h-15.3l-16.3-29v29H718v-62h19c7.5,0,13.2,1.5,17,4.4c3.8,2.9,5.6,7.3,5.6,13.2
		c0,4.3-1.3,7.9-3.9,10.9s-5.9,4.8-10,5.3L762.9,164.8z M731.3,129.2h2c5.4,0,8.9-0.6,10.6-1.8c1.7-1.2,2.6-3.2,2.6-6.1
		c0-3.1-0.9-5.2-2.8-6.5c-1.9-1.3-5.3-1.9-10.4-1.9h-2V129.2z"/>
	<path class="st2" d="M774.1,164.8v-62h13.3v28.1l20.7-28.1h15.3L801.1,131l23,33.8h-16l-20.8-32.5v32.5H774.1z"/>
</g>
<rect x="362.8" y="-889.9" class="st3" width="1051.2" height="1134.8"/>
<text transform="matrix(1 0 0 1 362.8339 -824.2279)"><tspan x="0" y="0" class="st2 st4 st5 st6">INNOVATION  </tspan><tspan x="0" y="93" class="st2 st4 st5 st6">NETWORK</tspan></text>
</svg>
