<svg xmlns="http://www.w3.org/2000/svg" width="20" height="20" viewBox="0 0 20 20">
    <g fill="#000" fill-rule="nonzero">
        <path d="M5.719 16.468c0 .224.12.406.268.406h9.464c.148 0 .268-.182.268-.406 0-.225-.12-.406-.268-.406H5.987c-.148 0-.268.181-.268.406zM10.719 14.36a.406.406 0 0 0 .406-.407V5.361l3.717 2.892a.407.407 0 0 0 .5-.641l-4.373-3.409a.406.406 0 0 0-.104-.055h-.02a.368.368 0 0 0-.236 0h-.02a.406.406 0 0 0-.104.055L6.098 7.612a.407.407 0 0 0 .5.641l3.715-2.892v8.592c0 .224.181.406.406.406z"/>
    </g>
</svg>
