<svg width="33" height="33" viewBox="0 0 33 33" fill="none" xmlns="http://www.w3.org/2000/svg">
<circle cx="16.7752" cy="16.1346" r="16.1346" fill="white"/>
<g clip-path="url(#clip0)">
<path d="M13.2589 22.8559L13.2579 22.8565C12.9345 23.0525 12.4661 22.8327 12.4661 22.3632L12.4661 10.5293C12.4661 10.0598 12.9345 9.84001 13.2579 10.036L13.2586 10.0364L23.4281 16.1815C23.4281 16.1815 23.4281 16.1815 23.4282 16.1815C23.4282 16.1816 23.4282 16.1816 23.4283 16.1816C23.5169 16.2353 23.5707 16.3317 23.5707 16.4496C23.5707 16.5675 23.517 16.6639 23.4284 16.7176C23.4283 16.7177 23.4282 16.7177 23.4281 16.7178L13.2589 22.8559Z" stroke="#15B54A" stroke-width="1.3"/>
</g>
<defs>
<clipPath id="clip0">
<rect width="14.2729" height="12.4112" fill="white" transform="translate(24.2207 9.30859) rotate(90)"/>
</clipPath>
</defs>
</svg>
