<?xml version="1.0" encoding="UTF-8"?>
<svg width="20px" height="20px" viewBox="0 0 20 20" version="1.1" xmlns="http://www.w3.org/2000/svg" xmlns:xlink="http://www.w3.org/1999/xlink">
    <!-- Generator: Sketch 60.1 (88133) - https://sketch.com -->
    <title>Icon/contact Copy</title>
    <desc>Created with Sketch.</desc>
    <g id="Projects" stroke="none" stroke-width="1" fill="none" fill-rule="evenodd">
        <g id="Projects_details" transform="translate(-560.000000, -479.000000)" fill="#01CE4B">
            <g id="Stacked-Group-4" transform="translate(401.000000, 456.000000)">
                <g transform="translate(0.000000, 20.000000)" id="Icon/weblink/green">
                    <g transform="translate(156.000000, 0.000000)">
                        <g id="noun_web-link_1471620" transform="translate(3.750000, 3.750000)">
                            <path d="M1.76850962,5.50817308 C1.51081731,5.25048077 1.51057692,4.83100962 1.76826923,4.57331731 L4.57307692,1.76850962 C4.83076923,1.51105769 5.25,1.51081731 5.50793269,1.76850962 L10.1401442,6.40048077 C10.4454327,6.70552885 10.9396635,6.70552885 11.2449519,6.40048077 C11.5502404,6.09543269 11.5502404,5.60072115 11.2449519,5.29567308 L6.61274038,0.663942308 C5.74615385,-0.202884615 4.33509615,-0.202884615 3.46850962,0.663942308 L0.663701923,3.46826923 C-0.203125,4.33509615 -0.203125,5.74567308 0.663701923,6.61298077 L5.29591346,11.2449519 C5.44855769,11.3973558 5.64831731,11.4737981 5.84831731,11.4737981 C6.04831731,11.4737981 6.24831731,11.3975962 6.40072115,11.2449519 C6.70600962,10.9399038 6.70600962,10.4451923 6.40072115,10.1401442 L1.76850962,5.50817308 Z M18.0862981,12.1372596 L13.5391827,7.59038462 C13.2338942,7.28533654 12.7396635,7.28533654 12.434375,7.59038462 C12.1290865,7.89543269 12.1290865,8.39014423 12.434375,8.69519231 L16.9814904,13.2420673 C17.2391827,13.4997596 17.2389423,13.9192308 16.9814904,14.1769231 L14.1769231,16.9817308 C13.9271635,17.23125 13.4918269,17.2314904 13.2420673,16.9817308 L8.69495192,12.4346154 C8.38966346,12.1295673 7.89543269,12.1295673 7.59014423,12.4346154 C7.28485577,12.7396635 7.28485577,13.234375 7.59014423,13.5394231 L12.1370192,18.0862981 C12.5569712,18.50625 13.1151442,18.7375 13.709375,18.7375 C14.3033654,18.7375 14.8615385,18.50625 15.2814904,18.0865385 L18.0865385,15.2817308 C18.9533654,14.4146635 18.9533654,13.0040865 18.0862981,12.1372596 Z M5.44423077,5.44423077 C5.13894231,5.74951923 5.13894231,6.24399038 5.44423077,6.54927885 L12.2007212,13.3057692 C12.3533654,13.4581731 12.553125,13.5346154 12.753125,13.5346154 C12.953125,13.5346154 13.1528846,13.4584135 13.3055288,13.3057692 C13.6108173,13.0004808 13.6108173,12.5060096 13.3055288,12.2007212 L6.54903846,5.44423077 C6.24399038,5.13918269 5.74951923,5.13918269 5.44423077,5.44423077 Z" id="Shape" fill-rule="nonzero"></path>
                        </g>
                    </g>
                </g>
            </g>
        </g>
    </g>
</svg>