<svg width="64" height="64" viewBox="0 0 64 64" fill="none" xmlns="http://www.w3.org/2000/svg">
<path d="M43.0974 31.6209C43.0974 44.8626 32.2633 49.2586 32.2633 49.2586C32.2633 49.2586 21.4292 45.5046 21.4292 31.6209C21.4292 21.9103 26.28 14.0366 32.2633 14.0366C38.2466 14.0366 43.0974 21.9103 43.0974 31.6209Z" fill="#D7FFE4" stroke="#15B54A" stroke-width="1.6" stroke-miterlimit="10"/>
<path d="M27.5814 35.8118C27.5814 35.8118 26.4133 31.6476 27.0643 25.5484C27.7509 19.0658 31.8705 11.8074 37.8716 16.5958" fill="#D7FFE4"/>
<path d="M27.5814 35.8118C27.5814 35.8118 26.4133 31.6476 27.0643 25.5484C27.7509 19.0658 31.8705 11.8074 37.8716 16.5958" stroke="#15B54A" stroke-width="1.6" stroke-miterlimit="10"/>
<path d="M32.263 62.7054C49.3024 62.7054 63.1157 48.8922 63.1157 31.8527C63.1157 14.8132 49.3024 1 32.263 1C15.2235 1 1.41028 14.8132 1.41028 31.8527C1.41028 48.8922 15.2235 62.7054 32.263 62.7054Z" stroke="#15B54A" stroke-miterlimit="10"/>
<path d="M43.5072 31.8706C50.2395 32.584 56.7489 35.0183 62.2952 38.9061" stroke="#15B54A" stroke-miterlimit="10"/>
<path d="M6.40381 48.6789C10.3184 43.1326 15.5972 38.6295 21.7499 35.6423" stroke="#15B54A" stroke-miterlimit="10"/>
<path d="M41.3132 40.083C48.0366 40.511 54.1893 43.0345 59.1382 46.9937" stroke="#15B54A" stroke-miterlimit="10"/>
<path d="M12.1193 55.2063C15.2045 50.1772 19.6452 46.0754 24.9329 43.4092" stroke="#15B54A" stroke-miterlimit="10"/>
<path d="M42.6155 36.2488C44.7466 36.4271 46.86 36.7927 48.9554 37.3634C53.1464 38.5048 57.1145 40.4219 60.601 43.0168" stroke="#15B54A" stroke-miterlimit="10"/>
<path d="M9.3374 52.2548C12.7704 46.967 17.5678 42.8296 23.0517 40.0742" stroke="#15B54A" stroke-miterlimit="10"/>
<path d="M19.7882 60.0749C23.7741 53.4942 30.9968 49.0981 39.245 49.0981C44.6665 49.0981 49.6422 50.9975 53.5478 54.163" stroke="#15B54A" stroke-miterlimit="10"/>
<path d="M24.4338 61.9029C29.7929 53.0484 41.8576 50.4 50.4179 56.2763" stroke="#15B54A" stroke-miterlimit="10"/>
<path d="M38.6476 44.3364C38.9686 44.3275 39.2896 44.3186 39.6195 44.3186C46.1378 44.3186 52.13 46.6013 56.8293 50.4089" stroke="#15B54A" stroke-miterlimit="10"/>
<path d="M15.5342 57.7744C18.3965 53.0484 22.8818 49.1784 28.1428 46.8154" stroke="#15B54A" stroke-miterlimit="10"/>
<path d="M29.1061 62.536C31.7366 59.4418 35.6511 57.489 40.0294 57.489C42.428 57.489 44.6929 58.0775 46.6814 59.1208" stroke="#15B54A" stroke-miterlimit="10"/>
<path d="M1.7489 35.3215C6.43922 35.2858 11.085 36.7036 14.9103 39.4143" stroke="#15B54A" stroke-miterlimit="10"/>
<path d="M2.37305 39.325C5.82391 39.2448 9.27478 40.1365 12.2174 41.9466" stroke="#15B54A" stroke-miterlimit="10"/>
<path d="M1 30.738C1.32101 30.7291 1.64202 30.7202 1.97195 30.7202C8.49025 30.7202 14.4824 33.003 19.1817 36.8105" stroke="#15B54A" stroke-miterlimit="10"/>
<path d="M3.63953 43.6765C5.57451 43.8192 7.47382 44.372 9.19479 45.2727" stroke="#15B54A" stroke-miterlimit="10"/>
<path d="M32.2628 14.0366V1" stroke="#15B54A" stroke-miterlimit="10"/>
<path d="M42.2146 25.0313V2.78345" stroke="#15B54A" stroke-miterlimit="10"/>
<path d="M51.5952 33.7699V7.51831" stroke="#15B54A" stroke-miterlimit="10"/>
<path d="M51.3367 19.0747H60.3785" stroke="#15B54A" stroke-miterlimit="10"/>
<path d="M51.3367 28.2949H63.1071" stroke="#15B54A" stroke-miterlimit="10"/>
<path d="M22.6857 2.51587C22.9086 2.99739 23.0335 3.5324 23.0335 4.09417C23.0335 6.16291 21.3571 7.84821 19.2794 7.84821C17.7814 7.84821 16.4884 6.96543 15.8821 5.69923" stroke="#15B54A" stroke-miterlimit="10"/>
<path d="M5.27119 16.8901C5.80621 17.5411 6.1183 18.3614 6.1183 19.271C6.1183 21.3397 4.44191 23.025 2.36426 23.025" stroke="#15B54A" stroke-miterlimit="10"/>
<path d="M32.3703 6.8763C30.3015 6.8763 28.6162 5.19991 28.6162 3.12226C28.6162 2.39999 28.8213 1.7223 29.178 1.15161" stroke="#15B54A" stroke-miterlimit="10"/>
<path d="M14.8124 20.1626C16.8857 20.1626 18.5664 18.4819 18.5664 16.4086C18.5664 14.3353 16.8857 12.6545 14.8124 12.6545C12.7391 12.6545 11.0583 14.3353 11.0583 16.4086C11.0583 18.4819 12.7391 20.1626 14.8124 20.1626Z" stroke="#15B54A" stroke-miterlimit="10"/>
<path d="M25.6999 17.6302C24.6655 16.9615 23.9878 15.8023 23.9878 14.4826C23.9878 12.4138 25.6642 10.7285 27.7418 10.7285C29.6768 10.7285 31.273 12.1998 31.4691 14.0813" stroke="#15B54A" stroke-miterlimit="10"/>
<path d="M21.4377 31.0592C19.7257 30.7114 18.4417 29.1955 18.4417 27.3854C18.4417 25.3167 20.118 23.6313 22.1957 23.6313C22.3294 23.6313 22.4632 23.6403 22.597 23.6492" stroke="#15B54A" stroke-miterlimit="10"/>
<path d="M5.80625 30.729C5.59224 30.2564 5.47632 29.7393 5.47632 29.1864C5.47632 27.1177 7.15271 25.4324 9.23036 25.4324C11.308 25.4324 12.9844 27.1088 12.9844 29.1864C12.9844 30.4615 12.3424 31.594 11.3704 32.2717" stroke="#15B54A" stroke-miterlimit="10"/>
</svg>
