<svg width="64" height="64" viewBox="0 0 64 64" fill="none" xmlns="http://www.w3.org/2000/svg">
<path d="M62.7143 31.8438C62.7143 36.4271 61.7156 40.7786 59.9144 44.6931C59.522 45.5492 59.094 46.3784 58.6214 47.1899C58.1221 48.0548 57.5871 48.8841 57.0164 49.6955C56.3744 50.5962 55.6877 51.4611 54.9655 52.2815C53.9757 53.3961 52.9146 54.4394 51.7732 55.4024C47.288 59.201 41.7059 61.7334 35.5711 62.4736C34.3495 62.6162 33.11 62.6965 31.8527 62.6965C18.3703 62.6965 6.91196 54.047 2.71207 42.0002C1.60637 38.8169 1 35.4017 1 31.8438C1 14.8035 14.8124 0.991087 31.8527 1C48.893 1.00892 62.7143 14.8035 62.7143 31.8438Z" stroke="#15B54A" stroke-miterlimit="10"/>
<path d="M7.5094 13.3143C10.7463 18.4415 16.4531 21.8478 22.9625 21.8478C33.0476 21.8478 41.2244 13.671 41.2244 3.58588C41.2244 3.23812 41.2155 2.89036 41.1977 2.55151" stroke="#15B54A" stroke-miterlimit="10"/>
<path d="M41.2332 3.22925H43.2484" stroke="#15B54A" stroke-miterlimit="10"/>
<path d="M9.88116 16.3193L1.95398 24.2465" stroke="#15B54A" stroke-miterlimit="10"/>
<path d="M36.1326 16.3997L60.9841 41.2512" stroke="#15B54A" stroke-miterlimit="10"/>
<path d="M16.1053 20.5103L7.35779 42.6065" stroke="#15B54A" stroke-miterlimit="10"/>
<path d="M40.0476 10.0417L59.3528 17.6836" stroke="#15B54A" stroke-miterlimit="10"/>
<path d="M12.6189 18.6289L1.3479 35.2858" stroke="#15B54A" stroke-miterlimit="10"/>
<path d="M38.2373 13.5996L62.8214 30.2387" stroke="#15B54A" stroke-miterlimit="10"/>
<path d="M43.4625 34.064L45.6739 37.39" stroke="#15B54A" stroke-miterlimit="10"/>
<path d="M33.3149 18.7983L47.3057 39.8335" stroke="#15B54A" stroke-miterlimit="10"/>
<path d="M19.5384 21.5269L18.8874 24.9956L16.1053 39.7264" stroke="#15B54A" stroke-miterlimit="10"/>
<path d="M23.5869 21.9192L23.7474 25.7713L24.434 42.1518" stroke="#15B54A" stroke-miterlimit="10"/>
<path d="M29.1149 20.8669L30.2384 24.5586L35.0179 40.2435" stroke="#15B54A" stroke-miterlimit="10"/>
<path d="M40.9569 6.71582L52.4419 8.88264" stroke="#15B54A" stroke-miterlimit="10"/>
<path d="M2.08838 39.9403C2.15971 39.9581 2.23105 39.967 2.3113 39.9849C3.10491 40.1632 3.81827 40.4753 4.48704 40.9033C5.01315 41.2421 5.50358 41.6077 6.04751 41.9288C7.60798 42.8472 9.6143 42.8294 11.1659 41.8931C11.6385 41.6077 12.0754 41.2867 12.5391 40.9836C14.9734 39.3963 18.1567 39.3785 20.6178 40.939C21.1261 41.26 21.5987 41.6167 22.1159 41.9288C23.6229 42.8294 25.6559 42.8294 27.1629 41.9377C27.8317 41.5364 28.438 41.0727 29.1246 40.6893C31.229 39.4944 34.0914 39.4944 36.2136 40.6804C36.7486 40.9746 37.2212 41.3313 37.7206 41.6612C39.6645 42.9364 41.7421 42.9453 43.6682 41.6702C44.1051 41.3848 44.5242 41.0727 44.979 40.8052C47.3152 39.432 50.3024 39.4588 52.603 40.8676C53.138 41.1976 53.6284 41.5632 54.1635 41.8931C55.7328 42.8472 57.757 42.8561 59.3442 41.9109C59.9595 41.5453 60.7531 40.9836 61.4308 40.6536C61.4664 40.6358 61.511 40.618 61.5467 40.6001" stroke="#15B54A" stroke-miterlimit="10"/>
<path d="M4.20984 45.781C4.29901 45.8345 4.39709 45.888 4.48626 45.9504C5.01236 46.2893 5.5028 46.6549 6.04673 46.9759C7.6072 47.8943 9.61352 47.8765 11.1651 46.9402C11.6377 46.6549 12.0746 46.3339 12.5383 46.0307C14.9726 44.4435 18.156 44.4256 20.617 45.9861C21.1253 46.3071 21.5979 46.6638 22.1151 46.9759C23.6221 47.8765 25.6551 47.8765 27.1621 46.9848C27.8309 46.5835 28.4372 46.1198 29.1238 45.7364C31.2282 44.5415 34.0906 44.5415 36.2128 45.7275C36.7478 46.0218 37.2204 46.3784 37.7198 46.7084C39.6637 47.9835 41.7413 47.9924 43.6674 46.7173C44.1043 46.4319 44.5234 46.1198 44.9782 45.8523C47.3144 44.4791 50.3016 44.5059 52.6022 45.9148C53.1372 46.2447 53.6277 46.6103 54.1627 46.9402C55.4824 47.7427 57.1142 47.8765 58.5409 47.3415" stroke="#15B54A" stroke-miterlimit="10"/>
<path d="M12.5295 56.1157C12.583 56.08 12.6365 56.0444 12.69 56.0087C15.0976 54.5285 18.2007 54.5463 20.5994 56.0711C21.1077 56.3921 21.5803 56.7488 22.0974 57.0609C23.6044 57.9615 25.6375 57.9615 27.1444 57.0698C27.8132 56.6686 28.4196 56.2049 29.1062 55.8215C31.2106 54.6266 34.0729 54.6266 36.1952 55.8125C36.7302 56.1068 37.2028 56.4635 37.7021 56.7934C39.646 58.0685 41.7237 58.0775 43.6497 56.8023C44.0867 56.517 44.5058 56.2049 44.9605 55.9374C46.9847 54.7514 49.4993 54.6088 51.6304 55.5094" stroke="#15B54A" stroke-miterlimit="10"/>
<path d="M26.9929 62.4291C27.6706 62.0456 28.4375 61.2431 29.1152 60.8597C31.2196 59.6648 34.0819 59.6648 36.2041 60.8508C36.7392 61.145 37.2118 61.5017 37.7111 61.8316C37.836 61.9119 37.9608 61.9921 38.0945 62.0635" stroke="#15B54A" stroke-miterlimit="10"/>
<path d="M24.0055 52.3884C25.7354 49.6152 32.3964 39.3875 32.6104 28.705L33.1186 28.1521C33.1186 28.1521 38.1656 38.1837 35.018 50.2394" fill="#15B54A"/>
<path d="M32.8246 29.3023C32.8246 29.3023 27.1178 35.2142 21.0988 33.9391C15.0799 32.664 10.8443 28.58 11.6379 24.8171C12.4316 21.0541 17.9601 19.0299 23.979 20.3051C29.998 21.5802 32.8246 29.3023 32.8246 29.3023Z" fill="#F2F2F2" stroke="#15B54A" stroke-width="1.6" stroke-miterlimit="10"/>
<path d="M33.2085 28.9814C33.2085 28.9814 33.0569 20.9739 38.0772 17.6925C43.0974 14.4111 48.8399 14.2951 50.8908 17.4428C52.9417 20.5905 50.5342 25.7891 45.505 29.0705C40.4758 32.3431 33.2085 28.9814 33.2085 28.9814Z" fill="#F2F2F2" stroke="#15B54A" stroke-width="1.6" stroke-miterlimit="10"/>
<path d="M24.006 52.3884C25.7359 49.6152 32.3969 39.3875 32.6109 28.705L33.1191 28.1521C33.1191 28.1521 38.1661 38.1837 35.0184 50.2394" fill="#F2F2F2"/>
<path d="M24.006 52.3884C25.7359 49.6152 32.3969 39.3875 32.6109 28.705L33.1191 28.1521C33.1191 28.1521 38.1661 38.1837 35.0184 50.2394" stroke="#15B54A" stroke-width="1.6" stroke-miterlimit="10"/>
<path d="M9.10522 52.6649C9.19439 52.656 9.28357 52.6471 9.37274 52.6292C10.0058 52.5311 10.6122 52.3171 11.165 51.9783C11.6376 51.6929 12.0746 51.3719 12.5382 51.0688C14.9726 49.4815 18.1559 49.4637 20.617 51.0242C21.1253 51.3452 21.5979 51.7019 22.1151 52.014C23.622 52.9146 25.6551 52.9146 27.1621 52.0229C27.8309 51.6216 28.4372 51.1579 29.1238 50.7745C31.2282 49.5796 34.0906 49.5796 36.2128 50.7656C36.7478 51.0598 37.2204 51.4165 37.7198 51.7464C39.6637 53.0216 41.7413 53.0305 43.6674 51.7554C44.1043 51.47 44.5234 51.1579 44.9782 50.8904C47.3144 49.5172 50.3016 49.544 52.6022 50.9528C53.1372 51.2828 53.6276 51.6484 54.1626 51.9783C54.3588 52.0942 54.5639 52.2012 54.769 52.2904C54.8136 52.3082 54.8582 52.3261 54.9028 52.3439" stroke="#15B54A" stroke-miterlimit="10"/>
</svg>
