<svg width="64" height="64" viewBox="0 0 64 64" fill="none" xmlns="http://www.w3.org/2000/svg">
<path d="M31.4962 32.0757C31.4962 32.0757 29.3918 24.416 33.4134 20.0378C37.4438 15.6596 42.9278 14.1526 45.6653 16.6672C48.4028 19.1818 47.3595 24.7727 43.329 29.1509C39.3075 33.5381 31.4962 32.0757 31.4962 32.0757Z" fill="#F2F2F2" stroke="#15B54A" stroke-width="1.6" stroke-miterlimit="10"/>
<path d="M32.236 32.5482C32.236 32.5482 34.3404 40.2079 30.3189 44.5861C26.2884 48.9643 20.8045 50.4713 18.067 47.9567C15.3295 45.4421 16.3727 39.8512 20.4032 35.473C24.4337 31.0858 32.236 32.5482 32.236 32.5482Z" fill="#F2F2F2" stroke="#15B54A" stroke-width="1.6" stroke-miterlimit="10"/>
<path d="M32.1025 31.9419C32.1025 31.9419 39.7622 29.8375 44.1404 33.8591C48.5186 37.8806 50.0256 43.3735 47.511 46.111C44.9964 48.8485 39.4055 47.8052 35.0273 43.7747C30.6401 39.7443 32.1025 31.9419 32.1025 31.9419Z" fill="#F2F2F2" stroke="#15B54A" stroke-width="1.6" stroke-miterlimit="10"/>
<path d="M31.6296 32.6819C31.6296 32.6819 23.97 34.7864 19.5917 30.7648C15.2135 26.7343 13.7065 21.2504 16.2211 18.5129C18.7357 15.7754 24.3266 16.8187 28.7049 20.8491C33.0831 24.8796 31.6296 32.6819 31.6296 32.6819Z" fill="#F2F2F2" stroke="#15B54A" stroke-width="1.6" stroke-miterlimit="10"/>
<path d="M31.8704 31.817C31.8704 31.817 35.7938 24.9153 41.7414 24.6656C47.6891 24.4159 52.6291 27.2248 52.7807 30.9431C52.9322 34.6615 48.2419 37.8716 42.3032 38.1213C36.3556 38.371 31.8704 31.817 31.8704 31.817Z" fill="#F2F2F2" stroke="#15B54A" stroke-width="1.6" stroke-miterlimit="10"/>
<path d="M31.8705 31.8794C31.8705 31.8794 27.9471 38.7811 21.9994 39.0308C16.0518 39.2804 11.1118 36.4716 10.9602 32.7532C10.8086 29.0349 15.499 25.8247 21.4377 25.5751C27.3764 25.3254 31.8705 31.8794 31.8705 31.8794Z" fill="#F2F2F2" stroke="#15B54A" stroke-width="1.6" stroke-miterlimit="10"/>
<path d="M31.8972 32.3074C31.8972 32.3074 38.7989 36.2308 39.0486 42.1785C39.0754 42.8561 39.0664 43.5249 39.0129 44.1669C39.004 44.3007 38.9951 44.4255 38.9773 44.5593C38.5047 49.3834 35.9722 53.0839 32.7621 53.2177C29.0438 53.3692 25.8337 48.6789 25.584 42.7402C25.3432 36.8015 31.8972 32.3074 31.8972 32.3074Z" fill="#F2F2F2" stroke="#15B54A" stroke-width="1.6" stroke-miterlimit="10"/>
<path d="M31.8346 31.3711C31.8346 31.3711 24.9328 27.4477 24.6832 21.5001C24.4335 15.5524 27.2423 10.6124 30.9607 10.4608C34.6791 10.3093 37.8892 14.9996 38.1389 20.9383C38.3885 26.877 31.8346 31.3711 31.8346 31.3711Z" fill="#F2F2F2" stroke="#15B54A" stroke-width="1.6" stroke-miterlimit="10"/>
<path d="M32.2543 39.0219C36.0168 39.0219 39.0669 35.9718 39.0669 32.2093C39.0669 28.4468 36.0168 25.3967 32.2543 25.3967C28.4919 25.3967 25.4418 28.4468 25.4418 32.2093C25.4418 35.9718 28.4919 39.0219 32.2543 39.0219Z" fill="#F2F2F2" stroke="#15B54A" stroke-width="1.6" stroke-miterlimit="10"/>
<path d="M44.6575 47.2881C47.4306 49.8918 49.6688 52.9414 51.3274 56.2764" stroke="#15B54A" stroke-miterlimit="10"/>
<path d="M35.1075 52.4419C38.3712 54.689 40.9036 57.694 42.58 61.1092" stroke="#15B54A" stroke-miterlimit="10"/>
<path d="M8.90015 52.4419C11.8784 50.4624 15.2758 49.1694 18.8336 48.6611" stroke="#15B54A" stroke-miterlimit="10"/>
<path d="M12.7704 55.6253C21.2415 50.7478 32.6374 53.6725 37.6398 62.0812" stroke="#15B54A" stroke-miterlimit="10"/>
<path d="M38.1484 48.6611C42.063 51.363 45.1126 54.9833 47.1278 59.0761" stroke="#15B54A" stroke-miterlimit="10"/>
<path d="M17.3804 39.45C12.369 40.199 7.70549 42.134 3.7196 44.9606" stroke="#15B54A" stroke-miterlimit="10"/>
<path d="M16.5513 44.5771C12.6279 45.3351 8.98082 46.9401 5.82422 49.2051" stroke="#15B54A" stroke-miterlimit="10"/>
<path d="M16.8188 58.6304C22.3384 56.526 28.8211 58.0954 32.7535 62.5093" stroke="#15B54A" stroke-miterlimit="10"/>
<path d="M62.7143 31.8438C62.7143 36.4271 61.7156 40.7786 59.9144 44.6931C59.522 45.5492 59.094 46.3784 58.6214 47.1899C58.1221 48.0548 57.5871 48.8841 57.0164 49.6955C56.3744 50.5962 55.6878 51.4611 54.9655 52.2815C53.9757 53.3961 52.9146 54.4394 51.7732 55.4024C47.288 59.201 41.706 61.7334 35.5711 62.4736C34.3495 62.6162 33.11 62.6965 31.8527 62.6965C18.3703 62.6965 6.91196 54.047 2.71207 42.0002C1.60637 38.8169 1 35.4017 1 31.8438C1 14.8035 14.8124 0.991087 31.8527 1C48.9109 0.991087 62.7232 14.8035 62.7143 31.8438Z" stroke="#15B54A" stroke-miterlimit="10"/>
<path d="M26.422 13.6531C25.8781 13.6531 25.3163 13.7334 24.7367 13.8939C24.2374 14.0366 23.7469 14.206 23.2297 14.3308C20.5903 14.9461 17.7458 14.0366 15.9713 12.0035C15.5612 11.5309 15.1956 11.0316 14.7854 10.559C13.9293 9.58701 12.7166 8.99849 11.4504 8.88257" stroke="#15B54A" stroke-miterlimit="10"/>
<path d="M62.1526 26.5025C62.0813 26.4223 62.0099 26.342 61.9386 26.2618C61.5373 25.7802 61.1717 25.2809 60.7526 24.8172C59.531 23.4797 57.605 22.9001 55.8572 23.337C55.3222 23.4707 54.805 23.6491 54.2789 23.8007C51.7822 24.5051 49.0892 23.8363 47.1989 22.1064" stroke="#15B54A" stroke-miterlimit="10"/>
<path d="M57.2755 14.1613C57.213 14.1792 57.1506 14.197 57.0882 14.2148C54.3507 14.9104 51.3903 13.9741 49.5534 11.8073C49.161 11.3525 48.8222 10.871 48.412 10.4162C47.2439 9.11433 45.3 8.49906 43.5968 8.90924C42.8389 9.08758 42.1166 9.35509 41.3497 9.52451C38.9778 10.0417 36.2492 9.19458 34.5818 7.42902C34.1627 6.98317 33.806 6.51057 33.4315 6.04689C31.9513 4.25458 29.9717 3.6304 27.7514 4.2635C27.252 4.40617 26.7616 4.57559 26.2444 4.70043C23.9438 5.23545 21.6254 4.71826 19.851 3.22021" stroke="#15B54A" stroke-miterlimit="10"/>
<path d="M45.1392 3.98718C44.3813 4.30819 43.6144 4.54003 42.8476 4.70946C40.4757 5.22664 37.7471 4.37953 36.0796 2.61397C35.6605 2.16812 35.3038 1.69552 34.9293 1.23184C34.8312 1.11592 34.8402 1.107 34.7332 1" stroke="#15B54A" stroke-miterlimit="10"/>
<path d="M31.4068 10.6572C29.9979 9.30178 28.2145 8.51709 26.2438 9.07885C25.7445 9.22153 25.254 9.39095 24.7369 9.51579C22.0974 10.1311 19.2529 9.22153 17.4785 7.18846C17.0683 6.71586 16.7027 6.21651 16.2925 5.74391C16.1409 5.57449 16.0696 5.49423 15.9001 5.34265C15.8645 5.30698 15.7307 5.19997 15.6951 5.16431" stroke="#15B54A" stroke-miterlimit="10"/>
<path d="M59.5224 18.4772C59.4333 18.4593 59.3441 18.4415 59.2549 18.4326C58.6218 18.3434 57.9798 18.3612 57.3467 18.5217C56.8117 18.6555 56.2945 18.8338 55.7684 18.9854C52.9774 19.779 49.9278 18.8428 48.0463 16.6313C47.654 16.1766 47.3151 15.6951 46.9049 15.2403C45.7368 13.9384 43.7929 13.3232 42.0898 13.7333C41.3318 13.9117 40.6095 14.1792 39.8427 14.3486C38.737 14.5894 37.551 14.5359 36.4364 14.2238" stroke="#15B54A" stroke-miterlimit="10"/>
<path d="M6.4126 14.4111V43.2129" stroke="#15B54A" stroke-miterlimit="10"/>
<path d="M12.6992 36.2131V40.743" stroke="#15B54A" stroke-miterlimit="10"/>
<path d="M12.6992 9.2124V28.8119" stroke="#15B54A" stroke-miterlimit="10"/>
<path d="M18.8342 13.894V16.9882" stroke="#15B54A" stroke-miterlimit="10"/>
<path d="M24.4426 13.894V18.2009" stroke="#15B54A" stroke-miterlimit="10"/>
<path d="M52.3082 28.812H62.2328" stroke="#15B54A" stroke-miterlimit="10"/>
<path d="M50.3018 35.4819H62.7142" stroke="#15B54A" stroke-miterlimit="10"/>
<path d="M48.7235 41.1978H61.2697" stroke="#15B54A" stroke-miterlimit="10"/>
<path d="M46.5388 46.8867H58.9423" stroke="#15B54A" stroke-miterlimit="10"/>
<path d="M49.0715 52.4419H54.6714" stroke="#15B54A" stroke-miterlimit="10"/>
</svg>
