<?xml version="1.0" encoding="utf-8"?>
<!-- Generator: Adobe Illustrator 25.2.1, SVG Export Plug-In . SVG Version: 6.00 Build 0)  -->
<svg version="1.1" xmlns="http://www.w3.org/2000/svg" xmlns:xlink="http://www.w3.org/1999/xlink" x="0px" y="0px"
	 viewBox="0 0 62.7 62.7" style="enable-background:new 0 0 62.7 62.7;" xml:space="preserve">
<style type="text/css">
	.st0{clip-path:url(#SVGID_2_);}
	.st1{fill:none;stroke:#BCBEBE;stroke-miterlimit:10;}
	.st2{fill:#BCBEBE;}
	.st3{fill:#F2F2F2;stroke:#BCBEBE;stroke-width:3;stroke-miterlimit:10;}
	.st4{fill:none;stroke:#BCBEBE;stroke-width:2;stroke-linecap:round;stroke-miterlimit:10;}
	.st5{fill:none;stroke:#BCBEBE;stroke-width:3;stroke-miterlimit:10;}
	.st6{fill:none;stroke:#15B54A;stroke-width:0.1821;stroke-miterlimit:10;}
	.st7{fill:#15B54A;}
	.st8{fill:none;stroke:#15B54A;stroke-width:0.3641;stroke-miterlimit:10;}
	.st9{clip-path:url(#SVGID_4_);}
	.st10{fill:#F2F2F2;stroke:#BCBEBE;stroke-width:3;stroke-linejoin:round;stroke-miterlimit:10;}
	.st11{clip-path:url(#SVGID_6_);}
	.st12{clip-path:url(#SVGID_6_);fill:none;stroke:#BCBEBE;stroke-miterlimit:10;}
	.st13{clip-path:url(#SVGID_8_);}
	.st14{fill:#F2F2F2;stroke:#BCBEBE;stroke-miterlimit:10;}
	.st15{fill:none;stroke:#15B54A;stroke-width:0.3643;stroke-miterlimit:10;}
	.st16{clip-path:url(#SVGID_10_);}
	
		.st17{fill-rule:evenodd;clip-rule:evenodd;fill:#F2F2F2;stroke:#BCBEBE;stroke-width:3;stroke-linejoin:round;stroke-miterlimit:10;}
	.st18{fill:none;stroke:#BCBEBE;stroke-width:2;stroke-linejoin:round;stroke-miterlimit:10;}
	.st19{fill:none;stroke:#BCBEBE;stroke-width:3;stroke-linecap:round;stroke-linejoin:round;stroke-miterlimit:10;}
	.st20{fill:#F2F2F2;}
	.st21{fill:none;stroke:#BCBEBE;stroke-width:3;stroke-linejoin:round;stroke-miterlimit:10;}
	.st22{fill:none;stroke:#15B54A;stroke-miterlimit:10;}
	.st23{clip-path:url(#SVGID_12_);}
	.st24{clip-path:url(#SVGID_14_);}
	.st25{fill:#D7FFE4;stroke:#15B54A;stroke-width:3;stroke-miterlimit:10;}
	.st26{fill:none;stroke:#15B54A;stroke-width:2;stroke-linecap:round;stroke-miterlimit:10;}
	.st27{fill:none;stroke:#15B54A;stroke-width:3;stroke-miterlimit:10;}
	.st28{clip-path:url(#SVGID_16_);}
	.st29{clip-path:url(#SVGID_18_);}
	.st30{fill:#D7FFE4;stroke:#15B54A;stroke-width:3;stroke-linejoin:round;stroke-miterlimit:10;}
	.st31{clip-path:url(#SVGID_20_);}
	.st32{clip-path:url(#SVGID_20_);fill:none;stroke:#BCBEBE;stroke-miterlimit:10;}
	.st33{clip-path:url(#SVGID_22_);}
	.st34{clip-path:url(#SVGID_24_);}
	.st35{clip-path:url(#SVGID_24_);fill:none;stroke:#15B54A;stroke-miterlimit:10;}
	.st36{clip-path:url(#SVGID_26_);}
	.st37{fill:#D7FFE4;}
	.st38{clip-path:url(#SVGID_28_);}
	.st39{clip-path:url(#SVGID_30_);}
	
		.st40{fill-rule:evenodd;clip-rule:evenodd;fill:#D7FFE4;stroke:#15B54A;stroke-width:3;stroke-linejoin:round;stroke-miterlimit:10;}
	.st41{fill:none;stroke:#15B54A;stroke-width:2;stroke-linejoin:round;stroke-miterlimit:10;}
	.st42{fill:none;stroke:#15B54A;stroke-width:3;stroke-linecap:round;stroke-linejoin:round;stroke-miterlimit:10;}
	.st43{fill:none;stroke:#15B54A;stroke-width:3;stroke-linejoin:round;stroke-miterlimit:10;}
	.st44{fill:none;stroke:#15B54A;stroke-width:0.182;stroke-miterlimit:10;}
	.st45{fill:none;stroke:#15B54A;stroke-width:0.5032;stroke-miterlimit:10;}
	
		.st46{fill-rule:evenodd;clip-rule:evenodd;fill:#D7FFE4;stroke:#15B54A;stroke-width:0.7548;stroke-linejoin:round;stroke-miterlimit:10;}
	.st47{fill:none;stroke:#15B54A;stroke-width:0.7548;stroke-miterlimit:10;}
	.st48{fill:none;stroke:#15B54A;stroke-width:0.75;stroke-linecap:round;stroke-linejoin:round;stroke-miterlimit:10;}
	.st49{fill:none;stroke:#15B54A;stroke-width:0.7548;stroke-linejoin:round;stroke-miterlimit:10;}
	.st50{fill:none;stroke:#15B54A;stroke-width:0.5;stroke-miterlimit:10;}
	.st51{fill:#D7FFE4;stroke:#15B54A;stroke-width:0.75;stroke-miterlimit:10;}
	.st52{fill:#D7FFE4;stroke:#15B54A;stroke-width:0.75;stroke-linejoin:round;stroke-miterlimit:10;}
	.st53{fill:#F2F2F2;stroke:#BCBEBE;stroke-width:1.6;stroke-miterlimit:10;}
	.st54{clip-path:url(#SVGID_32_);}
	.st55{fill:#D7FFE4;stroke:#15B54A;stroke-width:0.1821;stroke-miterlimit:10;}
	.st56{fill:#D7FFE4;stroke:#15B54A;stroke-width:0.5464;stroke-miterlimit:10;}
	.st57{fill:#D7FFE4;stroke:#15B54A;stroke-width:0.5462;stroke-miterlimit:10;}
	.st58{fill:#D7FFE4;stroke:#15B54A;stroke-width:0.5462;stroke-linejoin:round;stroke-miterlimit:10;}
	
		.st59{fill-rule:evenodd;clip-rule:evenodd;fill:#D7FFE4;stroke:#15B54A;stroke-width:0.5462;stroke-linejoin:round;stroke-miterlimit:10;}
	.st60{fill:none;stroke:#15B54A;stroke-width:0.5462;stroke-miterlimit:10;}
	.st61{fill:none;stroke:#15B54A;stroke-width:0.3641;stroke-linejoin:round;stroke-miterlimit:10;}
	.st62{fill:none;stroke:#15B54A;stroke-width:0.5462;stroke-linecap:round;stroke-linejoin:round;stroke-miterlimit:10;}
	.st63{fill:none;stroke:#15B54A;stroke-width:0.5462;stroke-linejoin:round;stroke-miterlimit:10;}
	.st64{fill:none;stroke:#15B54A;stroke-width:0.3641;stroke-linecap:round;stroke-miterlimit:10;}
	.st65{clip-path:url(#SVGID_34_);fill:#D7FFE4;stroke:#15B54A;stroke-miterlimit:10;}
	.st66{fill:#D7FFE4;stroke:#15B54A;stroke-width:1.6;stroke-miterlimit:10;}
	.st67{fill:none;stroke:#15B54A;stroke-linecap:round;stroke-miterlimit:10;}
	.st68{fill:#D7FFE4;stroke:#15B54A;stroke-width:1.6;stroke-linejoin:round;stroke-miterlimit:10;}
	
		.st69{fill-rule:evenodd;clip-rule:evenodd;fill:#D7FFE4;stroke:#15B54A;stroke-width:1.6;stroke-linejoin:round;stroke-miterlimit:10;}
	.st70{fill:none;stroke:#15B54A;stroke-width:1.6;stroke-miterlimit:10;}
	.st71{fill:none;stroke:#15B54A;stroke-width:1.6;stroke-linejoin:round;stroke-miterlimit:10;}
	.st72{fill:none;stroke:#15B54A;stroke-width:1.6;stroke-linecap:round;stroke-linejoin:round;stroke-miterlimit:10;}
	.st73{clip-path:url(#SVGID_36_);}
	.st74{fill:none;stroke:#D7FFE4;stroke-linecap:round;stroke-miterlimit:10;}
	.st75{fill:#F2F2F2;stroke:#BCBEBE;stroke-width:1.6;stroke-linejoin:round;stroke-miterlimit:10;}
	
		.st76{fill-rule:evenodd;clip-rule:evenodd;fill:#F2F2F2;stroke:#BCBEBE;stroke-width:1.8071;stroke-linejoin:round;stroke-miterlimit:10;}
	.st77{fill:none;stroke:#BCBEBE;stroke-width:1.8071;stroke-miterlimit:10;}
	.st78{fill:none;stroke:#BCBEBE;stroke-width:1.8071;stroke-linejoin:round;stroke-miterlimit:10;}
	.st79{fill:none;stroke:#BCBEBE;stroke-width:1.8071;stroke-linecap:round;stroke-linejoin:round;stroke-miterlimit:10;}
	.st80{fill:#F2F2F2;stroke:#BCBEBE;stroke-width:1.6148;stroke-miterlimit:10;}
	.st81{fill:none;stroke:#BCBEBE;stroke-width:1.6148;stroke-miterlimit:10;}
	.st82{fill:#F2F2F2;stroke:#BCBEBE;stroke-width:1.173;stroke-miterlimit:10;}
	.st83{fill:none;stroke:#BCBEBE;stroke-width:1.0674;stroke-miterlimit:10;}
	.st84{fill:#FFFFFF;stroke:#BCBEBE;stroke-width:1.0674;stroke-miterlimit:10;}
	
		.st85{fill-rule:evenodd;clip-rule:evenodd;fill:#D7FFE4;stroke:#15B54A;stroke-width:1.8071;stroke-linejoin:round;stroke-miterlimit:10;}
	.st86{fill:none;stroke:#15B54A;stroke-width:1.8071;stroke-miterlimit:10;}
	.st87{fill:none;stroke:#15B54A;stroke-width:1.8071;stroke-linejoin:round;stroke-miterlimit:10;}
	.st88{fill:none;stroke:#15B54A;stroke-width:1.8071;stroke-linecap:round;stroke-linejoin:round;stroke-miterlimit:10;}
	.st89{fill:#D7FFE4;stroke:#15B54A;stroke-width:1.6148;stroke-miterlimit:10;}
	.st90{fill:none;stroke:#15B54A;stroke-width:1.6148;stroke-miterlimit:10;}
	.st91{fill:#D7FFE4;stroke:#15B54A;stroke-width:1.173;stroke-miterlimit:10;}
	.st92{fill:none;stroke:#15B54A;stroke-width:1.0674;stroke-miterlimit:10;}
	.st93{fill:#FFFFFF;stroke:#15B54A;stroke-width:1.0674;stroke-miterlimit:10;}
</style>
<g id="Layer_1">
	<g>
		<g>
			<defs>
				<circle id="SVGID_3_" cx="246.1" cy="-385.3" r="169.5"/>
			</defs>
			<clipPath id="SVGID_2_">
				<use xlink:href="#SVGID_3_"  style="overflow:visible;"/>
			</clipPath>
			<g class="st0">
				<path class="st1" d="M39.8,14.4c0,57,46.2,103.2,103.2,103.2S246.1,71.4,246.1,14.4"/>
				<path class="st1" d="M39.8-5.4c-45.3,0-81.9-36.7-81.9-81.9s36.7-81.9,81.9-81.9s81.9,36.7,81.9,81.9l3,101.8
					c0,10.1,8.2,18.2,18.2,18.2c10.1,0,18.2-8.2,18.2-18.2v-43.3"/>
				<path class="st1" d="M39.8-26.7c-33.5,0-60.7-27.2-60.7-60.7s27.2-60.7,60.7-60.7s60.7,27.2,60.7,60.7l3,101.8
					c0,21.8,17.7,39.5,39.5,39.5s39.5-17.7,39.5-39.5V-6.2"/>
				<path class="st1" d="M39.8-47.9C18-47.9,0.3-65.6,0.3-87.4s17.7-39.5,39.5-39.5s39.5,17.7,39.5,39.5l3,101.8
					c0,33.5,27.2,60.7,60.7,60.7s60.7-27.2,60.7-60.7V6.7"/>
				<path class="st1" d="M39.8-69.2c-10.1,0-18.2-8.2-18.2-18.2s8.2-18.2,18.2-18.2S58-97.4,58-87.4l3,101.8
					c0,45.3,36.7,81.9,81.9,81.9s81.9-36.7,81.9-81.9"/>
				<path class="st1" d="M39.8-87.4V15.8c-57,0-103.2-46.2-103.2-103.2s46.2-103.2,103.2-103.2S143-144.4,143-87.4"/>
			</g>
			<use xlink:href="#SVGID_3_"  style="overflow:visible;fill:none;stroke:#BCBEBE;stroke-width:2;stroke-miterlimit:10;"/>
		</g>
	</g>
	<g>
		<path class="st22" d="M50.1,7L50.1,7c-1.1-0.9-2.2-1.6-3.3-2.3c0,1.4,0,2.5,0,2.5c0,1.8,1.5,3.3,3.3,3.3c1.1,0,2-0.5,2.6-1.3
			C52,8.4,51.1,7.6,50.1,7L50.1,7z"/>
		<path class="st22" d="M12.6,51.9c-1.3,0-2.6,0.2-3.8,0.5c1.1,1.2,2.4,2.3,3.7,3.4c0,0,0,0,0.1,0c3.8,0,7.2,2,9.2,4.9
			c1.6,0.5,3.2,0.9,4.9,1.2C24.6,56.1,19.1,51.9,12.6,51.9z"/>
		<path class="st22" d="M41.2,60.6c3.2-1.1,6.1-2.6,8.7-4.6C46.3,56.1,43.2,57.9,41.2,60.6z"/>
		<path class="st22" d="M36.2,61.8c1.7-0.3,3.4-0.7,5-1.2c2-2.7,5.1-4.5,8.7-4.6c1.4-1,2.7-2.2,3.8-3.4c-1.1-0.3-2.3-0.5-3.6-0.5
			C43.7,52.2,38.3,56.2,36.2,61.8z"/>
		<path class="st22" d="M50.1,48c0-1.9-0.3-3.7-0.8-5.4c0,0,0,0,0,0c0,0,0,0,0,0c-2.3-7.7-9.5-13.3-18-13.3c-3.1,0-6,0.8-8.5,2.1
			c0,0,0,0,0,0c0,0,0,0,0,0c-4.5,2.3-8,6.4-9.5,11.3c0,0,0,0,0,0c0,0,0,0,0,0c-0.5,1.7-0.8,3.5-0.8,5.4c0-1.9,0.3-3.7,0.8-5.4
			c-3.8,0-7.5,0-10.8,0c0.9,2.3,2.1,4.6,3.6,6.6c2-0.7,4.1-1.1,6.4-1.1c8.8,0,16.1,6,18.2,14.2c0.2,0,0.4,0,0.6,0l0,0V48v14.2
			c0.2,0,0.4,0,0.7,0c1.5-5.5,5.3-9.9,10.4-12.2V48c0-6.1-4.9-11.1-11.1-11.1c-6.1,0-11.1,4.9-11.1,11.1v1.7V48
			c0-6.1,4.9-11.1,11.1-11.1c6.1,0,11.1,4.9,11.1,11.1V50c2.4-1.1,5-1.7,7.7-1.7c2.2,0,4.3,0.4,6.3,1.1c1.5-2.1,2.7-4.4,3.7-6.8
			c-3.5,0-7.1,0-10.8,0C49.9,44.3,50.1,46.1,50.1,48z M34.7,56.4V48c0-1.8-1.5-3.3-3.3-3.3S28,46.2,28,48v8.1V48
			c0-1.8,1.5-3.3,3.3-3.3s3.3,1.5,3.3,3.3V56.4z M24.2,48c0-4,3.2-7.2,7.2-7.2c4,0,7.2,3.2,7.2,7.2v4.3V48c0-4-3.2-7.2-7.2-7.2
			C27.4,40.9,24.2,44.1,24.2,48v4V48z M46.3,48.7V48c0-8.2-6.7-14.9-14.9-14.9S16.4,39.8,16.4,48v0.4V48c0-8.2,6.7-14.9,14.9-14.9
			S46.3,39.8,46.3,48V48.7z"/>
		<path class="st22" d="M50.1,26c-10.3,0-18.6-8.3-18.8-18.5c0,0,0,0,0,0s0,0,0,0c0,2.5-0.5,4.8-1.4,6.9c0.9,0,1.8,0,2.7,0
			c-0.9,0-1.8,0-2.7,0c-0.9,2.1-2.1,4-3.7,5.6c3.3,0,6.7,0,10.1,0c-3.4,0-6.8,0-10.1,0c-3.4,3.7-8.3,6-13.7,6c-4,0-7.7-1.3-10.8-3.4
			c-0.3,1-0.6,2.1-0.7,3.1c2.5,0,5.2,0,8.1,0c-2.9,0-5.6,0-8.1,0c-0.3,1.8-0.5,3.7-0.5,5.6c6.3,0,14,0,22.3,0
			c2.6-1.3,5.4-2.1,8.5-2.1c8.5,0,15.6,5.6,18,13.3c3.6,0,7.2,0,10.8,0c0.7-1.8,1.2-3.7,1.6-5.6c-4.9,0-10,0-15.2,0
			c5.2,0,10.3,0,15.2,0c0.3-1.8,0.5-3.7,0.5-5.6c0,0,0,0,0-0.1c-7.2,0-14.7,0-22.3,0c7.5,0,15.1,0,22.3,0c0-1.9-0.2-3.8-0.5-5.6
			c-2.7,0-5.4,0-8.2,0c2.8,0,5.5,0,8.2,0c-0.2-1.1-0.4-2.1-0.7-3.1C57.9,24.7,54.2,26,50.1,26z M16,25.7c9.5,0,20.2,0,30.7,0
			C36.2,25.7,25.5,25.7,16,25.7z"/>
		<path class="st22" d="M42.4,50L42.4,50L42.4,50c-5.1,2.3-8.9,6.8-10.4,12.2c1.4,0,2.8-0.1,4.2-0.4c2.1-5.7,7.6-9.7,14-9.7
			c1.2,0,2.4,0.2,3.6,0.5c1-1,1.9-2.1,2.7-3.2c-2-0.7-4.1-1.1-6.3-1.1C47.4,48.3,44.8,48.9,42.4,50z"/>
		<path class="st22" d="M31.3,7.4C31.3,7.4,31.4,7.4,31.3,7.4C31.4,7.4,31.4,7.4,31.3,7.4c0-0.1,0-0.2,0-0.3
			C31.4,7.3,31.3,7.4,31.3,7.4z"/>
		<path class="st22" d="M22.8,31.3c-8.3,0-16,0-22.3,0c0,0,0,0,0,0.1c0,1.9,0.2,3.8,0.5,5.6c4.5,0,9.6,0,15.2,0
			c-5.6,0-10.7,0-15.2,0c0.4,2,0.9,3.8,1.6,5.6c3.3,0,6.9,0,10.8,0C14.9,37.7,18.3,33.6,22.8,31.3z"/>
		<path class="st22" d="M12.6,10.5c1.8,0,3.3-1.5,3.3-3.3V4.7c-2.2,1.3-4.2,2.8-6,4.5C10.5,10,11.5,10.5,12.6,10.5z"/>
		<path class="st22" d="M12.6,55.8C12.5,55.8,12.5,55.8,12.6,55.8c2.7,2.1,5.8,3.8,9.2,4.9C19.8,57.7,16.4,55.8,12.6,55.8z"/>
		<path class="st22" d="M31.4,7.2c0,0.1,0,0.2,0,0.3c4.6,0,8.9-1.7,12.1-4.5C42,2.4,40.5,1.8,39,1.5c-2.2,1.3-4.8,2.1-7.6,2.1
			S26,2.8,23.7,1.5c-1.6,0.4-3.1,0.9-4.5,1.5c3.3,2.8,7.5,4.5,12.1,4.5C31.3,7.4,31.4,7.3,31.4,7.2z"/>
		<path class="st22" d="M26.3,20C26.3,20,26.3,20,26.3,20C26.3,20,26.3,20,26.3,20c1.5-1.6,2.8-3.5,3.7-5.6c0,0,0,0,0,0c0,0,0,0,0,0
			c0.9-2.1,1.4-4.5,1.4-6.9c-4.6,0-8.9-1.7-12.1-4.5C18.1,3.5,17,4,15.9,4.7v2.5c0,1.8-1.5,3.3-3.3,3.3c-1.1,0-2-0.5-2.6-1.3
			C9,10.1,8.1,11,7.3,12c1.3,1.4,3.2,2.3,5.3,2.3c4,0,7.2-3.2,7.2-7.2V3.4v3.8c0,4-3.2,7.2-7.2,7.2c-2.1,0-4-0.9-5.3-2.3
			c-0.6,0.7-1.2,1.5-1.7,2.3c0.1,0,0.2,0,0.3,0c-0.1,0-0.2,0-0.3,0C5.4,14.7,5.2,15,5,15.3c2,1.8,4.6,3,7.5,3
			c6.1,0,11.1-4.9,11.1-11.1V5.8v1.4c0,6.1-4.9,11.1-11.1,11.1c-2.9,0-5.6-1.1-7.5-3c-0.7,1.1-1.3,2.3-1.9,3.5
			c2.6,2.1,5.8,3.3,9.4,3.3c8.2,0,14.9-6.7,14.9-14.9c0,8.2-6.7,14.9-14.9,14.9c-3.6,0-6.8-1.3-9.4-3.3C3,19.2,2.8,19.6,2.7,20
			c0,0,0,0,0,0c0,0,0,0,0,0c-0.3,0.8-0.6,1.7-0.9,2.5C4.8,24.7,8.6,26,12.6,26C18,26,22.8,23.7,26.3,20z"/>
		<path class="st22" d="M26.6,61.9c1.4,0.2,2.7,0.3,4.1,0.3C28.7,54.1,21.3,48,12.6,48c-2.3,0-4.4,0.4-6.4,1.1
			c0.8,1.1,1.7,2.2,2.6,3.2c1.2-0.3,2.5-0.5,3.8-0.5C19.1,51.9,24.6,56.1,26.6,61.9z"/>
		<path class="st22" d="M50.1,26c4,0,7.7-1.3,10.8-3.4c-0.4-1.3-0.9-2.6-1.4-3.8c-2.6,2.1-5.8,3.3-9.4,3.3
			c-8.2,0-14.9-6.7-14.9-14.9c0,8.2,6.7,14.9,14.9,14.9c3.6,0,6.8-1.3,9.4-3.3c-0.5-1.2-1.2-2.4-1.9-3.5c-2,1.8-4.6,3-7.5,3
			c-6.1,0-11.1-4.9-11.1-11.1V5.8v1.4c0,6.1,4.9,11.1,11.1,11.1c2.9,0,5.6-1.1,7.5-3c-0.2-0.3-0.4-0.6-0.6-0.9c0,0-0.1,0-0.1,0
			c0,0,0.1,0,0.1,0c-0.5-0.8-1.1-1.6-1.7-2.3c-1.3,1.4-3.2,2.3-5.3,2.3c-4,0-7.2-3.2-7.2-7.2V3.4v3.8c0,4,3.2,7.2,7.2,7.2
			c2.1,0,4-0.9,5.3-2.3c-0.8-1-1.7-2-2.6-2.9c-0.6,0.8-1.6,1.3-2.6,1.3c-1.8,0-3.3-1.5-3.3-3.3c0,0,0-1.1,0-2.5
			C45.8,4,44.6,3.5,43.5,3C40.2,5.8,36,7.4,31.4,7.4C31.5,17.7,39.9,26,50.1,26z"/>
		<path class="st22" d="M39,1.5c-2.4-0.6-5-1-7.6-1c-2.6,0-5.2,0.3-7.6,1c2.2,1.3,4.8,2.1,7.6,2.1S36.8,2.8,39,1.5z"/>
	</g>
</g>
<g id="Layer_2">
	<g>
		<g>
			<path class="st7" d="M22.3,27.2h-1.6c-0.2,0-0.3,0.1-0.3,0.3c0,0.2,0.1,0.3,0.3,0.3h1.6c0.2,0,0.3-0.1,0.3-0.3
				C22.7,27.4,22.5,27.2,22.3,27.2z"/>
			<path class="st7" d="M20.7,26.6h1.6c0.2,0,0.3-0.1,0.3-0.3c0-0.2-0.1-0.3-0.3-0.3h-1.6c-0.2,0-0.3,0.1-0.3,0.3
				C20.4,26.5,20.5,26.6,20.7,26.6z"/>
			<path class="st7" d="M41.4,27.2h-1.6c-0.2,0-0.3,0.1-0.3,0.3c0,0.2,0.1,0.3,0.3,0.3h1.6c0.2,0,0.3-0.1,0.3-0.3
				C41.7,27.4,41.6,27.2,41.4,27.2z"/>
			<path class="st7" d="M39.8,26.6h1.6c0.2,0,0.3-0.1,0.3-0.3c0-0.2-0.1-0.3-0.3-0.3h-1.6c-0.2,0-0.3,0.1-0.3,0.3
				C39.4,26.5,39.6,26.6,39.8,26.6z"/>
			<rect x="17.9" y="30.1" class="st66" width="26.5" height="3.3"/>
			<polyline class="st66" points="19.5,30.1 19.6,14.2 23.4,14.2 23.4,30.1 23.4,12.5 27.7,12.5 27.7,30.1 27.7,9.9 34.2,9.9 
				34.2,30.1 34.2,12.5 38.5,12.5 38.5,30.1 38.5,14.5 42.5,14.5 42.5,30.1 			"/>
		</g>
		<g>
			<polygon class="st68" points="8.3,48.2 53.9,48.2 50.6,36.4 10.9,36.4 			"/>
			<g>
				<path class="st68" d="M31,47.8c0.1,0,0.1-0.1,0.1-0.1c0.3-0.2,0.6-0.4,0.9-0.6c1-0.6,2.1-1.1,3.2-1.4c1.3-0.4,2.7-0.5,4-0.5
					c1.4,0,2.7,0,4.1-0.1c1.2,0,2.3-0.1,3.5-0.1c0,0,5,0.3,9-2.3l-3.4-8.4l-21.7,5.8l0,7.6c0,0,0,0.2,0,0.2L31,47.8z"/>
				<path class="st68" d="M36.9,25.1c1.9-0.5,3.8-0.4,5.7-0.8c1.9-0.3,3.9-1.1,5.1-2.9l7.9,17.4c-1.8,1.8-4.7,2.7-7.4,3.2
					c-2.7,0.4-5.5,0.6-8.2,1.1c-5,0.9-7.7,2.5-9.1,4.5V30.6C32.4,27.2,35,25.6,36.9,25.1z"/>
			</g>
			<g>
				<path class="st68" d="M30.6,47.8c-0.1,0-0.1-0.1-0.1-0.1c-0.3-0.2-0.6-0.4-0.9-0.6c-1-0.6-2.1-1.1-3.2-1.4
					c-1.3-0.4-2.7-0.5-4-0.5c-1.4,0-2.7,0-4.1-0.1c-1.2,0-2.3-0.1-3.5-0.1c0,0-5,0.3-9-2.3l3.4-8.4l21.7,5.8l0,7.6c0,0,0,0.2,0,0.2
					L30.6,47.8z"/>
				<path class="st68" d="M24.7,25.1c-1.9-0.5-3.8-0.4-5.7-0.8c-1.9-0.3-3.9-1.1-5.1-2.9L6.1,38.8c1.8,1.8,4.7,2.7,7.4,3.2
					c2.7,0.4,5.5,0.6,8.2,1.1c5,0.9,7.7,2.5,9.1,4.5V30.6C29.3,27.2,26.6,25.6,24.7,25.1z"/>
			</g>
		</g>
	</g>
</g>
</svg>
