<?xml version="1.0" encoding="utf-8"?>
<!-- Generator: Adobe Illustrator 25.2.1, SVG Export Plug-In . SVG Version: 6.00 Build 0)  -->
<svg version="1.1" xmlns="http://www.w3.org/2000/svg" xmlns:xlink="http://www.w3.org/1999/xlink" x="0px" y="0px"
	 viewBox="0 0 62.7 62.7" style="enable-background:new 0 0 62.7 62.7;" xml:space="preserve">
<style type="text/css">
	.st0{clip-path:url(#SVGID_2_);}
	.st1{fill:none;stroke:#BCBEBE;stroke-miterlimit:10;}
	.st2{fill:#BCBEBE;}
	.st3{fill:#F2F2F2;stroke:#BCBEBE;stroke-width:3;stroke-miterlimit:10;}
	.st4{fill:none;stroke:#BCBEBE;stroke-width:2;stroke-linecap:round;stroke-miterlimit:10;}
	.st5{fill:none;stroke:#BCBEBE;stroke-width:3;stroke-miterlimit:10;}
	.st6{fill:none;stroke:#15B54A;stroke-width:0.1821;stroke-miterlimit:10;}
	.st7{fill:#15B54A;}
	.st8{fill:none;stroke:#15B54A;stroke-width:0.3641;stroke-miterlimit:10;}
	.st9{clip-path:url(#SVGID_4_);}
	.st10{fill:#F2F2F2;stroke:#BCBEBE;stroke-width:3;stroke-linejoin:round;stroke-miterlimit:10;}
	.st11{clip-path:url(#SVGID_6_);}
	.st12{clip-path:url(#SVGID_6_);fill:none;stroke:#BCBEBE;stroke-miterlimit:10;}
	.st13{clip-path:url(#SVGID_8_);}
	.st14{fill:#F2F2F2;stroke:#BCBEBE;stroke-miterlimit:10;}
	.st15{fill:none;stroke:#15B54A;stroke-width:0.3643;stroke-miterlimit:10;}
	.st16{clip-path:url(#SVGID_10_);}
	
		.st17{fill-rule:evenodd;clip-rule:evenodd;fill:#F2F2F2;stroke:#BCBEBE;stroke-width:3;stroke-linejoin:round;stroke-miterlimit:10;}
	.st18{fill:none;stroke:#BCBEBE;stroke-width:2;stroke-linejoin:round;stroke-miterlimit:10;}
	.st19{fill:none;stroke:#BCBEBE;stroke-width:3;stroke-linecap:round;stroke-linejoin:round;stroke-miterlimit:10;}
	.st20{fill:#F2F2F2;}
	.st21{fill:none;stroke:#BCBEBE;stroke-width:3;stroke-linejoin:round;stroke-miterlimit:10;}
	.st22{fill:none;stroke:#15B54A;stroke-miterlimit:10;}
	.st23{clip-path:url(#SVGID_12_);}
	.st24{clip-path:url(#SVGID_14_);}
	.st25{fill:#D7FFE4;stroke:#15B54A;stroke-width:3;stroke-miterlimit:10;}
	.st26{fill:none;stroke:#15B54A;stroke-width:2;stroke-linecap:round;stroke-miterlimit:10;}
	.st27{fill:none;stroke:#15B54A;stroke-width:3;stroke-miterlimit:10;}
	.st28{clip-path:url(#SVGID_16_);}
	.st29{clip-path:url(#SVGID_18_);}
	.st30{fill:#D7FFE4;stroke:#15B54A;stroke-width:3;stroke-linejoin:round;stroke-miterlimit:10;}
	.st31{clip-path:url(#SVGID_20_);}
	.st32{clip-path:url(#SVGID_20_);fill:none;stroke:#BCBEBE;stroke-miterlimit:10;}
	.st33{clip-path:url(#SVGID_22_);}
	.st34{clip-path:url(#SVGID_24_);}
	.st35{clip-path:url(#SVGID_24_);fill:none;stroke:#15B54A;stroke-miterlimit:10;}
	.st36{clip-path:url(#SVGID_26_);}
	.st37{fill:#D7FFE4;}
	.st38{clip-path:url(#SVGID_28_);}
	.st39{clip-path:url(#SVGID_30_);}
	
		.st40{fill-rule:evenodd;clip-rule:evenodd;fill:#D7FFE4;stroke:#15B54A;stroke-width:3;stroke-linejoin:round;stroke-miterlimit:10;}
	.st41{fill:none;stroke:#15B54A;stroke-width:2;stroke-linejoin:round;stroke-miterlimit:10;}
	.st42{fill:none;stroke:#15B54A;stroke-width:3;stroke-linecap:round;stroke-linejoin:round;stroke-miterlimit:10;}
	.st43{fill:none;stroke:#15B54A;stroke-width:3;stroke-linejoin:round;stroke-miterlimit:10;}
	.st44{fill:none;stroke:#15B54A;stroke-width:0.182;stroke-miterlimit:10;}
	.st45{fill:none;stroke:#15B54A;stroke-width:0.5032;stroke-miterlimit:10;}
	
		.st46{fill-rule:evenodd;clip-rule:evenodd;fill:#D7FFE4;stroke:#15B54A;stroke-width:0.7548;stroke-linejoin:round;stroke-miterlimit:10;}
	.st47{fill:none;stroke:#15B54A;stroke-width:0.7548;stroke-miterlimit:10;}
	.st48{fill:none;stroke:#15B54A;stroke-width:0.75;stroke-linecap:round;stroke-linejoin:round;stroke-miterlimit:10;}
	.st49{fill:none;stroke:#15B54A;stroke-width:0.7548;stroke-linejoin:round;stroke-miterlimit:10;}
	.st50{fill:none;stroke:#15B54A;stroke-width:0.5;stroke-miterlimit:10;}
	.st51{fill:#D7FFE4;stroke:#15B54A;stroke-width:0.75;stroke-miterlimit:10;}
	.st52{fill:#D7FFE4;stroke:#15B54A;stroke-width:0.75;stroke-linejoin:round;stroke-miterlimit:10;}
	.st53{fill:#F2F2F2;stroke:#BCBEBE;stroke-width:1.6;stroke-miterlimit:10;}
	.st54{clip-path:url(#SVGID_32_);}
	.st55{fill:#D7FFE4;stroke:#15B54A;stroke-width:0.1821;stroke-miterlimit:10;}
	.st56{fill:#D7FFE4;stroke:#15B54A;stroke-width:0.5464;stroke-miterlimit:10;}
	.st57{fill:#D7FFE4;stroke:#15B54A;stroke-width:0.5462;stroke-miterlimit:10;}
	.st58{fill:#D7FFE4;stroke:#15B54A;stroke-width:0.5462;stroke-linejoin:round;stroke-miterlimit:10;}
	
		.st59{fill-rule:evenodd;clip-rule:evenodd;fill:#D7FFE4;stroke:#15B54A;stroke-width:0.5462;stroke-linejoin:round;stroke-miterlimit:10;}
	.st60{fill:none;stroke:#15B54A;stroke-width:0.5462;stroke-miterlimit:10;}
	.st61{fill:none;stroke:#15B54A;stroke-width:0.3641;stroke-linejoin:round;stroke-miterlimit:10;}
	.st62{fill:none;stroke:#15B54A;stroke-width:0.5462;stroke-linecap:round;stroke-linejoin:round;stroke-miterlimit:10;}
	.st63{fill:none;stroke:#15B54A;stroke-width:0.5462;stroke-linejoin:round;stroke-miterlimit:10;}
	.st64{fill:none;stroke:#15B54A;stroke-width:0.3641;stroke-linecap:round;stroke-miterlimit:10;}
	.st65{clip-path:url(#SVGID_34_);fill:#D7FFE4;stroke:#15B54A;stroke-miterlimit:10;}
	.st66{fill:#D7FFE4;stroke:#15B54A;stroke-width:1.6;stroke-miterlimit:10;}
	.st67{fill:none;stroke:#15B54A;stroke-linecap:round;stroke-miterlimit:10;}
	.st68{fill:#D7FFE4;stroke:#15B54A;stroke-width:1.6;stroke-linejoin:round;stroke-miterlimit:10;}
	
		.st69{fill-rule:evenodd;clip-rule:evenodd;fill:#D7FFE4;stroke:#15B54A;stroke-width:1.6;stroke-linejoin:round;stroke-miterlimit:10;}
	.st70{fill:none;stroke:#15B54A;stroke-width:1.6;stroke-miterlimit:10;}
	.st71{fill:none;stroke:#15B54A;stroke-width:1.6;stroke-linejoin:round;stroke-miterlimit:10;}
	.st72{fill:none;stroke:#15B54A;stroke-width:1.6;stroke-linecap:round;stroke-linejoin:round;stroke-miterlimit:10;}
	.st73{clip-path:url(#SVGID_36_);}
	.st74{fill:none;stroke:#D7FFE4;stroke-linecap:round;stroke-miterlimit:10;}
	.st75{fill:#F2F2F2;stroke:#BCBEBE;stroke-width:1.6;stroke-linejoin:round;stroke-miterlimit:10;}
	
		.st76{fill-rule:evenodd;clip-rule:evenodd;fill:#F2F2F2;stroke:#BCBEBE;stroke-width:1.8071;stroke-linejoin:round;stroke-miterlimit:10;}
	.st77{fill:none;stroke:#BCBEBE;stroke-width:1.8071;stroke-miterlimit:10;}
	.st78{fill:none;stroke:#BCBEBE;stroke-width:1.8071;stroke-linejoin:round;stroke-miterlimit:10;}
	.st79{fill:none;stroke:#BCBEBE;stroke-width:1.8071;stroke-linecap:round;stroke-linejoin:round;stroke-miterlimit:10;}
	.st80{fill:#F2F2F2;stroke:#BCBEBE;stroke-width:1.6148;stroke-miterlimit:10;}
	.st81{fill:none;stroke:#BCBEBE;stroke-width:1.6148;stroke-miterlimit:10;}
	.st82{fill:#F2F2F2;stroke:#BCBEBE;stroke-width:1.173;stroke-miterlimit:10;}
	.st83{fill:none;stroke:#BCBEBE;stroke-width:1.0674;stroke-miterlimit:10;}
	.st84{fill:#FFFFFF;stroke:#BCBEBE;stroke-width:1.0674;stroke-miterlimit:10;}
	
		.st85{fill-rule:evenodd;clip-rule:evenodd;fill:#D7FFE4;stroke:#15B54A;stroke-width:1.8071;stroke-linejoin:round;stroke-miterlimit:10;}
	.st86{fill:none;stroke:#15B54A;stroke-width:1.8071;stroke-miterlimit:10;}
	.st87{fill:none;stroke:#15B54A;stroke-width:1.8071;stroke-linejoin:round;stroke-miterlimit:10;}
	.st88{fill:none;stroke:#15B54A;stroke-width:1.8071;stroke-linecap:round;stroke-linejoin:round;stroke-miterlimit:10;}
	.st89{fill:#D7FFE4;stroke:#15B54A;stroke-width:1.6148;stroke-miterlimit:10;}
	.st90{fill:none;stroke:#15B54A;stroke-width:1.6148;stroke-miterlimit:10;}
	.st91{fill:#D7FFE4;stroke:#15B54A;stroke-width:1.173;stroke-miterlimit:10;}
	.st92{fill:none;stroke:#15B54A;stroke-width:1.0674;stroke-miterlimit:10;}
	.st93{fill:#FFFFFF;stroke:#15B54A;stroke-width:1.0674;stroke-miterlimit:10;}
</style>
<g id="Layer_1">
	<g>
		<g>
			<defs>
				<circle id="SVGID_3_" cx="363.9" cy="-385.3" r="169.5"/>
			</defs>
			<clipPath id="SVGID_2_">
				<use xlink:href="#SVGID_3_"  style="overflow:visible;"/>
			</clipPath>
			<g class="st0">
				<path class="st1" d="M157.5-87.4V15.8c-57,0-103.2-46.2-103.2-103.2s46.2-103.2,103.2-103.2s103.2,46.2,103.2,103.2"/>
			</g>
			<use xlink:href="#SVGID_3_"  style="overflow:visible;fill:none;stroke:#BCBEBE;stroke-width:2;stroke-miterlimit:10;"/>
		</g>
	</g>
	<g>
		<path class="st22" d="M30.6,0.5c-1.3,0-2.6,0.1-3.9,0.3c0.3,5.8,5.1,10.4,11,10.4V7.4C33.9,7.4,30.8,4.4,30.6,0.5z"/>
		<path class="st22" d="M49.4,18.8L49,6.1c-1.2-0.9-2.6-1.7-3.9-2.3l0.4,15c0,6.1,4.9,11.1,11.1,11.1c2,0,3.9-0.5,5.5-1.5
			c-0.1-1.4-0.4-2.9-0.7-4.2c-1.3,1.1-2.9,1.8-4.8,1.8C52.6,26,49.4,22.7,49.4,18.8z"/>
		<path class="st22" d="M56.6,22.1c-1.8,0-3.3-1.5-3.3-3.3L53,9.4c-1.2-1.2-2.6-2.3-4-3.3l0.4,12.7c0,4,3.2,7.2,7.2,7.2
			c1.8,0,3.5-0.7,4.8-1.8c-0.4-1.6-0.9-3.2-1.5-4.7C59.5,21,58.2,22.1,56.6,22.1z"/>
		<path class="st22" d="M45.5,18.8l-0.4-15c-1.3-0.6-2.6-1.2-3.9-1.6l0.5,16.7c0,8.2,6.7,14.9,14.9,14.9c2,0,3.9-0.4,5.6-1.1
			c0-0.4,0-0.8,0-1.2c0-1-0.1-2-0.1-3c-1.6,0.9-3.5,1.5-5.5,1.5C50.5,29.8,45.5,24.9,45.5,18.8z"/>
		<path class="st22" d="M34.5,0.7c-1-0.1-2.1-0.2-3.2-0.2c-0.2,0-0.5,0-0.7,0c0.1,3.8,3.3,6.9,7.2,6.9V3.6
			C36.1,3.6,34.7,2.3,34.5,0.7z"/>
		<path class="st22" d="M37.8,3.6V1.2c-1.1-0.2-2.2-0.4-3.3-0.5C34.7,2.3,36.1,3.6,37.8,3.6z"/>
		<path class="st22" d="M26.8,0.8C25.5,1,24.2,1.3,23,1.7c0.7,7.6,7.1,13.5,14.8,13.5v-3.9C31.9,11.3,27.1,6.7,26.8,0.8z"/>
		<path class="st22" d="M35,38.7c10.8,0,10.8,8.4,21.6,8.4c0.4,0,0.9,0,1.3,0c0.9-1.6,1.8-3.3,2.4-5.1c-1.1,0.2-2.3,0.4-3.7,0.4
			C45.8,42.4,45.8,34,35,34c-2.2,0-3.9,0.3-5.4,0.9c0,0,0,0,0,0c0,0,0,0,0,0c-2.3,0.8-3.9,2.1-5.6,3.4c0,0,0,0,0,0c0,0,0,0,0,0
			c-2.7,2.1-5.4,4.1-10.7,4.1C7,42.4,4.3,39.4,1,37c0.4,2.1,1,4.2,1.8,6.1c2.6,2,5.3,4,10.5,4C24.2,47.1,24.2,38.7,35,38.7z"/>
		<path class="st22" d="M24.7,61.5c2.2,0.5,4.4,0.7,6.7,0.7c4.2,0,8.1-0.8,11.8-2.3c-2-1.3-4.4-2.2-8.1-2.2
			C29.9,57.7,27.2,59.5,24.7,61.5z"/>
		<path class="st22" d="M13.6,56.6c1.9,1.4,4,2.5,6.3,3.4c5.1-2.4,7.1-7.1,15.2-7.1c6.2,0,8.8,2.7,12,5.1c1.3-0.8,2.5-1.6,3.7-2.5
			c-5.4-2.3-7.3-7.2-15.6-7.2C24.2,48.2,24.2,56.4,13.6,56.6z"/>
		<path class="st22" d="M19.8,60c1.6,0.6,3.2,1.1,4.8,1.5c2.6-2,5.3-3.8,10.4-3.8c3.7,0,6.1,1,8.1,2.2c1.3-0.5,2.6-1.2,3.8-1.9
			c-3.1-2.3-5.8-5.1-12-5.1C26.9,52.9,24.9,57.6,19.8,60z"/>
		<path class="st22" d="M13.4,51.8c-2.5,0-4.4-0.5-6.1-1.1c1.8,2.2,3.9,4.2,6.2,5.9c10.6-0.1,10.7-8.4,21.4-8.4
			c8.3,0,10.3,5,15.6,7.2c1.4-1.1,2.7-2.4,3.9-3.7c-8.8-1-9.5-8.3-19.5-8.3C24.2,43.5,24.2,51.8,13.4,51.8z"/>
		<path class="st22" d="M53,9.4l0.3,9.4c0,1.8,1.5,3.3,3.3,3.3c1.6,0,2.9-1.1,3.2-2.6c-0.9-2.1-2-4-3.2-5.9v4.8v-4.8
			C55.5,12.1,54.3,10.7,53,9.4z"/>
		<path class="st22" d="M56.6,47.1c-10.8,0-10.8-8.4-21.6-8.4s-10.8,8.4-21.6,8.4c-5.2,0-7.9-1.9-10.5-4c1.1,2.7,2.6,5.3,4.5,7.5
			c1.6,0.7,3.5,1.1,6.1,1.1c10.8,0,10.8-8.4,21.6-8.4c10.1,0,10.8,7.2,19.5,8.3c1.3-1.4,2.4-3,3.4-4.7
			C57.5,47.1,57.1,47.1,56.6,47.1z"/>
		<path class="st22" d="M37.8,19v-3.9C30,15.2,23.7,9.2,23,1.7C21.7,2,20.4,2.5,19.2,3C20.6,12,28.4,19,37.8,19z"/>
		<path class="st22" d="M35,34c10.8,0,10.8,8.4,21.6,8.4c1.4,0,2.6-0.1,3.7-0.4c0.6-1.7,1.1-3.4,1.4-5.1c-1.6,0.5-3.4,0.7-5.1,0.7
			c-10.4,0-18.8-8.4-18.8-18.8c0,10.4,8.4,18.8,18.8,18.8c1.8,0,3.5-0.3,5.1-0.7c0.2-1.4,0.4-2.8,0.5-4.2c-1.7,0.7-3.6,1.1-5.6,1.1
			c-8.2,0-14.9-6.7-14.9-14.9L41.2,2.1c-1.1-0.4-2.2-0.7-3.4-0.9v2.4v3.9v3.9v3.9V19C28.4,19,20.6,12,19.2,3c-1.9,0.8-3.7,1.8-5.4,3
			c2.5,1.4,5.3,3.1,8.5,4.9c-3.2-1.8-6-3.5-8.5-4.9c-1.7,1.2-3.2,2.5-4.6,3.9c8.5,4.9,19.4,11.1,30.8,17.7
			C28.5,21.1,17.6,14.8,9.2,9.9c-1.4,1.4-2.6,3-3.7,4.6c10.7,6.2,23.7,13.7,36.6,21c-12.8-7.4-25.9-14.9-36.6-21
			c-1,1.5-1.9,3.2-2.6,4.9c8.4,4.8,17.6,10.1,26.7,15.4C31.1,34.3,32.8,34,35,34z M36.4,19c0.5,0.3,1,0.6,1.4,0.8
			C37.4,19.5,36.9,19.2,36.4,19z"/>
		<path class="st22" d="M29.6,34.9c-9.2-5.3-18.4-10.6-26.7-15.4c-0.7,1.8-1.3,3.7-1.7,5.6c7.5,4.3,15.3,8.8,22.9,13.2
			C25.7,37,27.4,35.7,29.6,34.9z"/>
		<path class="st22" d="M24.1,38.3c-7.6-4.4-15.5-8.9-22.9-13.2c-0.4,2-0.6,4.1-0.6,6.2c6,3.4,12,6.9,17.9,10.3
			c-5.8-3.4-11.9-6.8-17.9-10.3c0,0,0,0,0,0c0,1.9,0.2,3.8,0.5,5.7c3.3,2.4,5.9,5.3,12.3,5.3C18.7,42.4,21.4,40.3,24.1,38.3z"/>
	</g>
</g>
<g id="Layer_2">
	<g>
		<g>
			<circle class="st85" cx="31.8" cy="30.9" r="22.4"/>
			<path class="st86" d="M13.4,18.1c0.7,0,1.3-0.1,2-0.4c0.9-0.4,2.1-0.9,3.1-0.5c0.8,0.3,1.3,1.2,1.7,2c0.3,0.5,0.6,1.2,0.5,1.8
				c0,0.6-0.4,1.2-0.7,1.7c-0.1,0.2-0.2,0.4-0.3,0.6c-0.4,0.8,0.1,1.7,0.4,2.5c0.1,0.3,0.1,0.8,0,1.1c-0.2,1.1-2.9,1.6-4.4,2
				c-2,0.5-6,0.9-6,0.9"/>
			<path class="st86" d="M44.5,12.5c0,0,0.3,2.8-2.2,4.4s-4.2,6.2-1.7,8.2s3.9,2,5.8,1c2-1.1,3.5-0.2,4.2,0.3
				c0.6,0.6,3.1,2.5,3.6,3.1"/>
			<g>
				<line class="st87" x1="23.7" y1="32.1" x2="23.7" y2="45"/>
				<polyline class="st88" points="41.7,34.6 31.3,25.1 21,34.6 				"/>
				<line class="st88" x1="39.3" y1="45.2" x2="39.3" y2="32.7"/>
			</g>
		</g>
		<g>
			<g>
				<path class="st37" d="M31.4,52c0-3.7,0.6-5,5-7.4c3.5-1.9,6.5-9.8,9.7-7.1c-0.7,1.4-3.9,9.3-2,8.3c5.3-2.7,5.5-8.7,6.7-12.6
					c1.4-4.3,4.3-3.6,4.2-3.4c-1.4,9.2-1.8,17.9-5.8,20.5c0,0-14.9,7.7-18.1,7.7"/>
				<path class="st88" d="M31.4,52c0-3.7,0.6-5,5-7.4c3.5-1.9,6.5-9.8,9.7-7.1c-0.7,1.4-3.9,9.3-2,8.3c5.3-2.7,5.5-8.7,6.7-12.6
					c1.4-4.3,4.3-3.6,4.2-3.4c-1.4,9.2-1.8,17.9-5.8,20.5c0,0-14.9,7.7-18.1,7.7"/>
			</g>
			<g>
				<path class="st37" d="M31.3,52c0-3.7-0.6-5-5-7.4c-3.5-1.9-6.5-9.8-9.7-7.1c0.7,1.4,3.9,9.3,2,8.3c-5.3-2.7-5.5-8.7-6.7-12.6
					c-1.4-4.3-4.3-3.6-4.2-3.4c1.4,9.2,1.8,17.9,5.8,20.5c0,0,14.9,7.7,18.1,7.7"/>
				<path class="st88" d="M31.3,52c0-3.7-0.6-5-5-7.4c-3.5-1.9-6.5-9.8-9.7-7.1c0.7,1.4,3.9,9.3,2,8.3c-5.3-2.7-5.5-8.7-6.7-12.6
					c-1.4-4.3-4.3-3.6-4.2-3.4c1.4,9.2,1.8,17.9,5.8,20.5c0,0,14.9,7.7,18.1,7.7"/>
			</g>
		</g>
	</g>
</g>
</svg>
