<?xml version="1.0" encoding="utf-8"?>
<!-- Generator: Adobe Illustrator 25.2.1, SVG Export Plug-In . SVG Version: 6.00 Build 0)  -->
<svg version="1.1" xmlns="http://www.w3.org/2000/svg" xmlns:xlink="http://www.w3.org/1999/xlink" x="0px" y="0px"
	 viewBox="0 0 62.8 62.7" style="enable-background:new 0 0 62.8 62.7;" xml:space="preserve">
<style type="text/css">
	.st0{clip-path:url(#SVGID_2_);}
	.st1{fill:none;stroke:#BCBEBE;stroke-miterlimit:10;}
	.st2{fill:#BCBEBE;}
	.st3{fill:#F2F2F2;stroke:#BCBEBE;stroke-width:3;stroke-miterlimit:10;}
	.st4{fill:none;stroke:#BCBEBE;stroke-width:2;stroke-linecap:round;stroke-miterlimit:10;}
	.st5{fill:none;stroke:#BCBEBE;stroke-width:3;stroke-miterlimit:10;}
	.st6{fill:none;stroke:#15B54A;stroke-width:0.1821;stroke-miterlimit:10;}
	.st7{fill:#15B54A;}
	.st8{fill:none;stroke:#15B54A;stroke-width:0.3641;stroke-miterlimit:10;}
	.st9{clip-path:url(#SVGID_4_);}
	.st10{fill:#F2F2F2;stroke:#BCBEBE;stroke-width:3;stroke-linejoin:round;stroke-miterlimit:10;}
	.st11{clip-path:url(#SVGID_6_);}
	.st12{clip-path:url(#SVGID_6_);fill:none;stroke:#BCBEBE;stroke-miterlimit:10;}
	.st13{clip-path:url(#SVGID_8_);}
	.st14{fill:#F2F2F2;stroke:#BCBEBE;stroke-miterlimit:10;}
	.st15{fill:none;stroke:#15B54A;stroke-width:0.3643;stroke-miterlimit:10;}
	.st16{clip-path:url(#SVGID_10_);}
	
		.st17{fill-rule:evenodd;clip-rule:evenodd;fill:#F2F2F2;stroke:#BCBEBE;stroke-width:3;stroke-linejoin:round;stroke-miterlimit:10;}
	.st18{fill:none;stroke:#BCBEBE;stroke-width:2;stroke-linejoin:round;stroke-miterlimit:10;}
	.st19{fill:none;stroke:#BCBEBE;stroke-width:3;stroke-linecap:round;stroke-linejoin:round;stroke-miterlimit:10;}
	.st20{fill:#F2F2F2;}
	.st21{fill:none;stroke:#BCBEBE;stroke-width:3;stroke-linejoin:round;stroke-miterlimit:10;}
	.st22{fill:none;stroke:#15B54A;stroke-miterlimit:10;}
	.st23{clip-path:url(#SVGID_12_);}
	.st24{clip-path:url(#SVGID_14_);}
	.st25{fill:#D7FFE4;stroke:#15B54A;stroke-width:3;stroke-miterlimit:10;}
	.st26{fill:none;stroke:#15B54A;stroke-width:2;stroke-linecap:round;stroke-miterlimit:10;}
	.st27{fill:none;stroke:#15B54A;stroke-width:3;stroke-miterlimit:10;}
	.st28{clip-path:url(#SVGID_16_);}
	.st29{clip-path:url(#SVGID_18_);}
	.st30{fill:#D7FFE4;stroke:#15B54A;stroke-width:3;stroke-linejoin:round;stroke-miterlimit:10;}
	.st31{clip-path:url(#SVGID_20_);}
	.st32{clip-path:url(#SVGID_20_);fill:none;stroke:#BCBEBE;stroke-miterlimit:10;}
	.st33{clip-path:url(#SVGID_22_);}
	.st34{clip-path:url(#SVGID_24_);}
	.st35{clip-path:url(#SVGID_24_);fill:none;stroke:#15B54A;stroke-miterlimit:10;}
	.st36{clip-path:url(#SVGID_26_);}
	.st37{fill:#D7FFE4;}
	.st38{clip-path:url(#SVGID_28_);}
	.st39{clip-path:url(#SVGID_30_);}
	
		.st40{fill-rule:evenodd;clip-rule:evenodd;fill:#D7FFE4;stroke:#15B54A;stroke-width:3;stroke-linejoin:round;stroke-miterlimit:10;}
	.st41{fill:none;stroke:#15B54A;stroke-width:2;stroke-linejoin:round;stroke-miterlimit:10;}
	.st42{fill:none;stroke:#15B54A;stroke-width:3;stroke-linecap:round;stroke-linejoin:round;stroke-miterlimit:10;}
	.st43{fill:none;stroke:#15B54A;stroke-width:3;stroke-linejoin:round;stroke-miterlimit:10;}
	.st44{fill:none;stroke:#15B54A;stroke-width:0.182;stroke-miterlimit:10;}
	.st45{fill:none;stroke:#15B54A;stroke-width:0.5032;stroke-miterlimit:10;}
	
		.st46{fill-rule:evenodd;clip-rule:evenodd;fill:#D7FFE4;stroke:#15B54A;stroke-width:0.7548;stroke-linejoin:round;stroke-miterlimit:10;}
	.st47{fill:none;stroke:#15B54A;stroke-width:0.7548;stroke-miterlimit:10;}
	.st48{fill:none;stroke:#15B54A;stroke-width:0.75;stroke-linecap:round;stroke-linejoin:round;stroke-miterlimit:10;}
	.st49{fill:none;stroke:#15B54A;stroke-width:0.7548;stroke-linejoin:round;stroke-miterlimit:10;}
	.st50{fill:none;stroke:#15B54A;stroke-width:0.5;stroke-miterlimit:10;}
	.st51{fill:#D7FFE4;stroke:#15B54A;stroke-width:0.75;stroke-miterlimit:10;}
	.st52{fill:#D7FFE4;stroke:#15B54A;stroke-width:0.75;stroke-linejoin:round;stroke-miterlimit:10;}
	.st53{fill:#F2F2F2;stroke:#BCBEBE;stroke-width:1.6;stroke-miterlimit:10;}
	.st54{clip-path:url(#SVGID_32_);}
	.st55{fill:#D7FFE4;stroke:#15B54A;stroke-width:0.1821;stroke-miterlimit:10;}
	.st56{fill:#D7FFE4;stroke:#15B54A;stroke-width:0.5464;stroke-miterlimit:10;}
	.st57{fill:#D7FFE4;stroke:#15B54A;stroke-width:0.5462;stroke-miterlimit:10;}
	.st58{fill:#D7FFE4;stroke:#15B54A;stroke-width:0.5462;stroke-linejoin:round;stroke-miterlimit:10;}
	
		.st59{fill-rule:evenodd;clip-rule:evenodd;fill:#D7FFE4;stroke:#15B54A;stroke-width:0.5462;stroke-linejoin:round;stroke-miterlimit:10;}
	.st60{fill:none;stroke:#15B54A;stroke-width:0.5462;stroke-miterlimit:10;}
	.st61{fill:none;stroke:#15B54A;stroke-width:0.3641;stroke-linejoin:round;stroke-miterlimit:10;}
	.st62{fill:none;stroke:#15B54A;stroke-width:0.5462;stroke-linecap:round;stroke-linejoin:round;stroke-miterlimit:10;}
	.st63{fill:none;stroke:#15B54A;stroke-width:0.5462;stroke-linejoin:round;stroke-miterlimit:10;}
	.st64{fill:none;stroke:#15B54A;stroke-width:0.3641;stroke-linecap:round;stroke-miterlimit:10;}
	.st65{clip-path:url(#SVGID_34_);fill:#D7FFE4;stroke:#15B54A;stroke-miterlimit:10;}
	.st66{fill:#D7FFE4;stroke:#15B54A;stroke-width:1.6;stroke-miterlimit:10;}
	.st67{fill:none;stroke:#15B54A;stroke-linecap:round;stroke-miterlimit:10;}
	.st68{fill:#D7FFE4;stroke:#15B54A;stroke-width:1.6;stroke-linejoin:round;stroke-miterlimit:10;}
	
		.st69{fill-rule:evenodd;clip-rule:evenodd;fill:#D7FFE4;stroke:#15B54A;stroke-width:1.6;stroke-linejoin:round;stroke-miterlimit:10;}
	.st70{fill:none;stroke:#15B54A;stroke-width:1.6;stroke-miterlimit:10;}
	.st71{fill:none;stroke:#15B54A;stroke-width:1.6;stroke-linejoin:round;stroke-miterlimit:10;}
	.st72{fill:none;stroke:#15B54A;stroke-width:1.6;stroke-linecap:round;stroke-linejoin:round;stroke-miterlimit:10;}
	.st73{clip-path:url(#SVGID_36_);}
	.st74{fill:none;stroke:#D7FFE4;stroke-linecap:round;stroke-miterlimit:10;}
	.st75{fill:#F2F2F2;stroke:#BCBEBE;stroke-width:1.6;stroke-linejoin:round;stroke-miterlimit:10;}
	
		.st76{fill-rule:evenodd;clip-rule:evenodd;fill:#F2F2F2;stroke:#BCBEBE;stroke-width:1.8071;stroke-linejoin:round;stroke-miterlimit:10;}
	.st77{fill:none;stroke:#BCBEBE;stroke-width:1.8071;stroke-miterlimit:10;}
	.st78{fill:none;stroke:#BCBEBE;stroke-width:1.8071;stroke-linejoin:round;stroke-miterlimit:10;}
	.st79{fill:none;stroke:#BCBEBE;stroke-width:1.8071;stroke-linecap:round;stroke-linejoin:round;stroke-miterlimit:10;}
	.st80{fill:#F2F2F2;stroke:#BCBEBE;stroke-width:1.6148;stroke-miterlimit:10;}
	.st81{fill:none;stroke:#BCBEBE;stroke-width:1.6148;stroke-miterlimit:10;}
	.st82{fill:#F2F2F2;stroke:#BCBEBE;stroke-width:1.173;stroke-miterlimit:10;}
	.st83{fill:none;stroke:#BCBEBE;stroke-width:1.0674;stroke-miterlimit:10;}
	.st84{fill:#FFFFFF;stroke:#BCBEBE;stroke-width:1.0674;stroke-miterlimit:10;}
	
		.st85{fill-rule:evenodd;clip-rule:evenodd;fill:#D7FFE4;stroke:#15B54A;stroke-width:1.8071;stroke-linejoin:round;stroke-miterlimit:10;}
	.st86{fill:none;stroke:#15B54A;stroke-width:1.8071;stroke-miterlimit:10;}
	.st87{fill:none;stroke:#15B54A;stroke-width:1.8071;stroke-linejoin:round;stroke-miterlimit:10;}
	.st88{fill:none;stroke:#15B54A;stroke-width:1.8071;stroke-linecap:round;stroke-linejoin:round;stroke-miterlimit:10;}
	.st89{fill:#D7FFE4;stroke:#15B54A;stroke-width:1.6148;stroke-miterlimit:10;}
	.st90{fill:none;stroke:#15B54A;stroke-width:1.6148;stroke-miterlimit:10;}
	.st91{fill:#D7FFE4;stroke:#15B54A;stroke-width:1.173;stroke-miterlimit:10;}
	.st92{fill:none;stroke:#15B54A;stroke-width:1.0674;stroke-miterlimit:10;}
	.st93{fill:#FFFFFF;stroke:#15B54A;stroke-width:1.0674;stroke-miterlimit:10;}
</style>
<g id="Layer_1">
	<g>
		<g>
			<defs>
				<circle id="SVGID_3_" cx="125.7" cy="-385.5" r="169.5"/>
			</defs>
			<clipPath id="SVGID_2_">
				<use xlink:href="#SVGID_3_"  style="overflow:visible;"/>
			</clipPath>
			<g class="st0">
				<path class="st1" d="M-80.6,14.3c0,57,46.2,103.2,103.2,103.2S125.7,71.3,125.7,14.3"/>
				<path class="st1" d="M22.6-87.5c0,57,46.2,103.2,103.2,103.2S228.9-30.5,228.9-87.5"/>
				<path class="st1" d="M-80.6-5.6c-45.3,0-81.9-36.7-81.9-81.9s36.7-81.9,81.9-81.9S1.3-132.8,1.3-87.5l3,101.8
					c0,10.1,8.2,18.2,18.2,18.2s18.2-8.2,18.2-18.2V-29"/>
				<path class="st1" d="M-80.6-26.8c-33.5,0-60.7-27.2-60.7-60.7s27.2-60.7,60.7-60.7s60.7,27.2,60.7,60.7l3,101.8
					c0,21.8,17.7,39.5,39.5,39.5S62,36.1,62,14.3V-6.4"/>
				<path class="st1" d="M-80.6-48.1c-21.8,0-39.5-17.7-39.5-39.5s17.7-39.5,39.5-39.5s39.5,17.7,39.5,39.5l3,101.8
					C-38.1,47.8-11,75,22.6,75s60.7-27.2,60.7-60.7V6.5"/>
				<path class="st1" d="M-80.6-69.3c-10.1,0-18.2-8.2-18.2-18.2s8.2-18.2,18.2-18.2s18.2,8.2,18.2,18.2l3,101.8
					c0,45.3,36.7,81.9,81.9,81.9s81.9-36.7,81.9-81.9"/>
				<line class="st1" x1="22.6" y1="-190.7" x2="22.6" y2="15.7"/>
				<path class="st1" d="M-80.6-87.5V15.7c-57,0-103.2-46.2-103.2-103.2s46.2-103.2,103.2-103.2S22.6-144.5,22.6-87.5"/>
			</g>
			<use xlink:href="#SVGID_3_"  style="overflow:visible;fill:none;stroke:#BCBEBE;stroke-width:2;stroke-miterlimit:10;"/>
		</g>
	</g>
	<g>
		<path class="st22" d="M34.4,22.4c8.8,2.9,18,0.4,24.1-5.7c-0.6-1.2-1.4-2.3-2.2-3.4c-5.1,5.6-13.1,7.9-20.7,5.4
			c-7.6-2.5-12.6-9.3-13.2-16.8c-1.3,0.4-2.6,0.9-3.8,1.4C19.8,11.8,25.7,19.4,34.4,22.4z"/>
		<path class="st22" d="M38.2,11.2c4.7,1.6,9.8,0,12.8-3.7c-1-0.8-2.1-1.6-3.2-2.3c-2,2.3-5.2,3.3-8.3,2.3c-3.1-1-5-3.8-5.2-6.8
			c-1.3-0.1-2.6-0.2-3.9-0.1C30.4,5.2,33.5,9.6,38.2,11.2z"/>
		<path class="st22" d="M36.9,14.9c6.3,2.1,12.9,0,16.9-4.7c-0.9-1-1.9-1.8-2.9-2.7c-3,3.7-8,5.3-12.8,3.7
			c-4.7-1.6-7.8-5.9-7.9-10.6c-1.3,0-2.6,0.2-3.9,0.4C26.6,7.1,30.7,12.8,36.9,14.9z"/>
		<path class="st22" d="M60.3,20.5C60.3,20.5,60.3,20.5,60.3,20.5C60.3,20.5,60.3,20.5,60.3,20.5C60.3,20.5,60.3,20.5,60.3,20.5z"/>
		<path class="st22" d="M35.7,18.6c7.6,2.5,15.7,0.2,20.7-5.4c-0.8-1.1-1.6-2.1-2.5-3.1c-4,4.8-10.7,6.8-16.9,4.7
			c-6.3-2.1-10.3-7.8-10.6-14c-1.3,0.2-2.6,0.5-3.9,0.9C23.1,9.3,28.1,16.1,35.7,18.6z"/>
		<path class="st22" d="M39.4,7.4c3.1,1,6.3,0,8.3-2.3c-2-1.2-4.2-2.3-6.5-3.1s-4.7-1.3-7-1.5C34.4,3.7,36.4,6.4,39.4,7.4z"/>
		<path class="st22" d="M47.1,27c-0.9,1.2-1.6,2.6-2.1,4.1l3.7,1.3c1.8-5.4,7.3-8.6,12.8-7.8c-0.3-1.4-0.7-2.7-1.2-4.1c0,0,0,0,0,0
			C56.6,23.8,52,26.1,47.1,27z"/>
		<path class="st22" d="M21.5,18.5c0,1.5-0.3,3-0.8,4.5l3.7,1.3c0.3-0.8,0.5-1.6,0.6-2.4C23.8,20.8,22.6,19.7,21.5,18.5z"/>
		<path class="st22" d="M25.1,21.8c-0.2,0.8-0.4,1.6-0.6,2.4l3.7,1.3c0.2-0.5,0.3-0.9,0.4-1.4C27.4,23.4,26.2,22.6,25.1,21.8z"/>
		<path class="st22" d="M52.5,33.6l9.3,3.1c0.5-2.7,0.6-5.4,0.4-8C58.2,27.4,53.8,29.6,52.5,33.6z"/>
		<path class="st22" d="M42.2,27.5c-0.4,0.7-0.7,1.5-0.9,2.3C41.5,29,41.8,28.3,42.2,27.5c-1.4,0-2.8-0.1-4.2-0.3
			c-0.2,0.4-0.3,0.9-0.5,1.3c0.2-0.5,0.3-0.9,0.5-1.3c-1.3-0.2-2.6-0.5-3.9-0.9c-0.1,0.3-0.2,0.6-0.3,0.9c0.1-0.3,0.2-0.6,0.3-0.9
			c-0.3-0.1-0.6-0.2-1-0.3c-0.3-0.1-0.6-0.2-0.9-0.3c-0.1,0.3-0.2,0.6-0.3,0.9c0.1-0.3,0.2-0.6,0.3-0.9c-1.3-0.5-2.5-1-3.6-1.7
			c-0.1,0.5-0.3,0.9-0.4,1.4L45,31.1c0.5-1.5,1.2-2.8,2.1-4.1C45.5,27.3,43.8,27.5,42.2,27.5z"/>
		<path class="st22" d="M48.7,32.3l3.7,1.3c1.4-4,5.7-6.2,9.7-4.9c-0.1-1.4-0.3-2.8-0.6-4.2C56,23.7,50.6,26.9,48.7,32.3z"/>
		<path class="st22" d="M21.5,40.5c-5.7-1.9-13.3-4.5-20.9-7c0.1,1.5,0.3,3,0.6,4.4c8.2,2.7,16.2,5.4,21.9,7.4L21.5,40.5z"/>
		<path class="st22" d="M23.1,45.2c-5.7-1.9-13.7-4.6-21.9-7.4C1.5,39.4,2,41,2.6,42.5c8.5,2.8,16.7,5.6,22.1,7.4
			c-5.5-1.8-13.6-4.6-22.1-7.4c0.7,1.7,1.5,3.4,2.5,5c8.5,2.8,16.3,5.5,21.2,7.1L23.1,45.2z"/>
		<path class="st22" d="M26.3,54.6c-4.9-1.6-12.8-4.3-21.2-7.1c1.3,2.1,2.8,4,4.5,5.7c7.7,2.6,14.4,4.8,18.3,6.2L26.3,54.6z"/>
		<path class="st22" d="M54.8,34.4l3.9,11.4c0.8-1.5,1.5-3,2-4.7c0.3-0.8,0.5-1.5,0.7-2.3l-0.9-2.6l0.9,2.6c0.2-0.7,0.3-1.4,0.5-2.2
			l-9.3-3.1l0,0l0,0l-3.7-1.3l0,0l0,0L45,31.1l0,0l0,0l-16.8-5.6l0,0l0,0l-3.7-1.3l0,0l0,0l-3.7-1.3l0,0l0,0L17,21.7l0,0l0,0
			l-3.7-1.3l0,0l0,0l-9.3-3.1c-0.7,1.3-1.3,2.7-1.7,4.1c5.1,1.7,10.1,3.4,14.5,4.9c-4.4-1.5-9.4-3.1-14.5-4.9c0,0,0,0.1,0,0.1
			c-0.4,1.2-0.7,2.5-1,3.7c6.1,2,12.1,4.1,17.1,5.8l-3.4-10l3.4,10c0,0,0,0,0,0c0,0,0,0,0,0l3.2,9.5c0,0,0,0,0,0c0,0,0,0,0,0
			l1.6,4.7c0,0,0,0,0,0c0,0,0,0,0,0l3.2,9.5c0,0,0,0,0,0c0,0,0,0,0,0l1.6,4.7c0,0,0,0,0,0c0,0,0,0,0,0l0.9,2.7c1.7,0.1,3.4,0.1,5,0
			L20.6,22.9l13.4,39.2c1.6-0.1,3.2-0.4,4.8-0.8L26.3,24.9l12.4,36.5c1.6-0.4,3.1-0.9,4.5-1.5L32,26.8l11.3,33.1
			c1.5-0.6,2.9-1.3,4.3-2.2l-9.9-29l9.9,29c1.4-0.9,2.8-1.9,4-2.9l-8.2-24.1l8.2,24.1c1.3-1.2,2.6-2.4,3.7-3.8l-6.3-18.4l6.3,18.4
			c1.3-1.5,2.4-3.2,3.3-5L54.8,34.4z"/>
		<path class="st22" d="M9.6,53.2c3.3,3.2,7.3,5.8,11.9,7.4c2.4,0.8,4.9,1.3,7.3,1.5l-0.9-2.7C24.1,58.1,17.3,55.8,9.6,53.2z"/>
		<path class="st22" d="M21.5,18.5c1.1,1.2,2.3,2.3,3.6,3.3c1.1,0.8,2.3,1.6,3.5,2.3c1.2,0.6,2.4,1.2,3.6,1.7
			c0.3,0.1,0.6,0.2,0.9,0.3c0.3,0.1,0.6,0.2,1,0.3c1.3,0.4,2.6,0.7,3.9,0.9c1.4,0.2,2.8,0.3,4.2,0.3c1.6,0,3.3-0.2,4.9-0.5
			c4.9-0.9,9.5-3.2,13.2-6.6c0,0,0,0,0,0c-0.5-1.3-1.1-2.6-1.7-3.8c-6.1,6.1-15.4,8.6-24.1,5.7S19.8,11.8,18.6,3.3
			c-1.3,0.6-2.5,1.2-3.7,2c0,0,0,0,0,0C15.9,10.2,18.2,14.8,21.5,18.5z"/>
		<path class="st22" d="M17,21.7l3.7,1.3c0.5-1.5,0.8-3,0.8-4.5c-3.4-3.7-5.6-8.3-6.6-13.2c0,0,0,0,0,0c-1.2,0.8-2.4,1.6-3.4,2.5
			C16.4,10.4,18.8,16.2,17,21.7z"/>
		<path class="st22" d="M14.9,5.2C14.9,5.2,14.9,5.2,14.9,5.2C14.9,5.3,14.9,5.3,14.9,5.2C14.9,5.3,14.9,5.2,14.9,5.2z"/>
		<path class="st22" d="M13.2,20.4l3.7,1.3c1.8-5.4-0.6-11.3-5.5-13.9c-1.1,0.9-2.1,1.9-3,2.9C12.4,12.1,14.6,16.4,13.2,20.4z"/>
		<path class="st22" d="M18.3,31c-5-1.7-11-3.7-17.1-5.8c-0.3,1.3-0.5,2.7-0.5,4c6.9,2.3,13.8,4.6,19.3,6.5
			c-5.5-1.8-12.3-4.1-19.3-6.5c-0.1,1.4-0.1,2.8,0,4.2c7.7,2.6,15.2,5.1,20.9,7L18.3,31z"/>
		<path class="st22" d="M8.5,10.7c-1.8,2-3.3,4.2-4.6,6.6l9.3,3.1C14.6,16.4,12.4,12.1,8.5,10.7z"/>
	</g>
</g>
<g id="Layer_2">
	<g>
		<circle class="st91" cx="31.4" cy="31.4" r="24.7"/>
		<g>
			<polyline class="st92" points="41.1,54 41.1,49.2 45.9,49.2 45.9,51.3 			"/>
		</g>
		<g>
			<rect x="32.6" y="49.2" class="st92" width="4.8" height="4.8"/>
		</g>
		<g>
			<rect x="24.2" y="49.2" class="st92" width="4.8" height="4.8"/>
		</g>
		<g>
			<polyline class="st92" points="15.8,50.4 15.8,49.2 20.6,49.2 20.6,53.5 			"/>
		</g>
		<g>
			<polyline class="st92" points="51.5,45.6 49.5,45.6 49.5,40.8 54.3,40.8 			"/>
		</g>
		<g>
			<rect x="41.1" y="40.8" class="st92" width="4.8" height="4.8"/>
		</g>
		<g>
			<rect x="32.6" y="40.8" class="st92" width="4.8" height="4.8"/>
		</g>
		<g>
			<rect x="24.2" y="40.8" class="st92" width="4.8" height="4.8"/>
		</g>
		<g>
			<rect x="15.8" y="40.8" class="st92" width="4.8" height="4.8"/>
		</g>
		<g>
			<polyline class="st92" points="8.6,40.8 12.1,40.8 12.1,45.6 11.3,45.6 			"/>
		</g>
		<g>
			<rect x="49.5" y="32.4" class="st92" width="4.8" height="4.8"/>
		</g>
		<g>
			<rect x="15.8" y="32.4" class="st92" width="4.8" height="4.8"/>
		</g>
		<g>
			<polyline class="st92" points="7.3,36.7 7.3,32.4 12.1,32.4 12.1,37.2 7.4,37.2 			"/>
		</g>
		<g>
			<rect x="49.5" y="23.9" class="st92" width="4.8" height="4.8"/>
		</g>
		<g>
			<rect x="15.8" y="23.9" class="st92" width="4.8" height="4.8"/>
		</g>
		<g>
			<polyline class="st92" points="7.9,23.9 12.1,23.9 12.1,28.7 7.3,28.7 7.3,26 			"/>
		</g>
		<g>
			<polyline class="st92" points="53.5,20.3 49.5,20.3 49.5,15.5 50.3,15.5 			"/>
		</g>
		<g>
			<rect x="41.1" y="15.5" class="st92" width="4.8" height="4.8"/>
		</g>
		<g>
			<rect x="32.6" y="15.5" class="st92" width="4.8" height="4.8"/>
		</g>
		<g>
			<rect x="24.2" y="15.5" class="st92" width="4.8" height="4.8"/>
		</g>
		<g>
			<rect x="15.8" y="15.5" class="st92" width="4.8" height="4.8"/>
		</g>
		<g>
			<polyline class="st92" points="12.1,15.8 12.1,20.3 9.3,20.3 			"/>
		</g>
		<g>
			<polyline class="st92" points="45.9,11.4 45.9,11.9 41.1,11.9 41.1,8.6 			"/>
		</g>
		<g>
			<polyline class="st92" points="37.4,7.4 37.4,11.9 32.6,11.9 32.6,7.1 35.7,7.1 			"/>
		</g>
		<g>
			<polyline class="st92" points="27.1,7.1 29,7.1 29,11.9 24.2,11.9 24.2,7.7 			"/>
		</g>
		<g>
			<polyline class="st92" points="20.6,9.2 20.6,11.9 16.3,11.9 			"/>
		</g>
		<rect x="24.2" y="23.9" class="st93" width="21.7" height="13.2"/>
		<g>
			<path class="st7" d="M28,30.7l4.5-2.1v1l-3.4,1.5v0l3.4,1.5v1L28,31.5V30.7z"/>
			<path class="st7" d="M33.2,34l2-6.8h0.9l-2,6.8H33.2z"/>
			<path class="st7" d="M41.2,31.5l-4.5,2.1v-1l3.5-1.5v0l-3.5-1.5v-1l4.5,2.1V31.5z"/>
		</g>
	</g>
</g>
</svg>
