<?xml version="1.0" encoding="utf-8"?>
<!-- Generator: Adobe Illustrator 25.2.1, SVG Export Plug-In . SVG Version: 6.00 Build 0)  -->
<svg version="1.1" xmlns="http://www.w3.org/2000/svg" xmlns:xlink="http://www.w3.org/1999/xlink" x="0px" y="0px"
	 viewBox="0 0 62.7 62.7" style="enable-background:new 0 0 62.7 62.7;" xml:space="preserve">
<style type="text/css">
	.st0{clip-path:url(#SVGID_2_);}
	.st1{fill:none;stroke:#BCBEBE;stroke-miterlimit:10;}
	.st2{fill:#BCBEBE;}
	.st3{fill:#F2F2F2;stroke:#BCBEBE;stroke-width:3;stroke-miterlimit:10;}
	.st4{fill:none;stroke:#BCBEBE;stroke-width:2;stroke-linecap:round;stroke-miterlimit:10;}
	.st5{fill:none;stroke:#BCBEBE;stroke-width:3;stroke-miterlimit:10;}
	.st6{fill:none;stroke:#15B54A;stroke-width:0.1821;stroke-miterlimit:10;}
	.st7{fill:#15B54A;}
	.st8{fill:none;stroke:#15B54A;stroke-width:0.3641;stroke-miterlimit:10;}
	.st9{clip-path:url(#SVGID_4_);}
	.st10{fill:#F2F2F2;stroke:#BCBEBE;stroke-width:3;stroke-linejoin:round;stroke-miterlimit:10;}
	.st11{clip-path:url(#SVGID_6_);}
	.st12{clip-path:url(#SVGID_6_);fill:none;stroke:#BCBEBE;stroke-miterlimit:10;}
	.st13{clip-path:url(#SVGID_8_);}
	.st14{fill:#F2F2F2;stroke:#BCBEBE;stroke-miterlimit:10;}
	.st15{fill:none;stroke:#15B54A;stroke-width:0.3643;stroke-miterlimit:10;}
	.st16{clip-path:url(#SVGID_10_);}
	
		.st17{fill-rule:evenodd;clip-rule:evenodd;fill:#F2F2F2;stroke:#BCBEBE;stroke-width:3;stroke-linejoin:round;stroke-miterlimit:10;}
	.st18{fill:none;stroke:#BCBEBE;stroke-width:2;stroke-linejoin:round;stroke-miterlimit:10;}
	.st19{fill:none;stroke:#BCBEBE;stroke-width:3;stroke-linecap:round;stroke-linejoin:round;stroke-miterlimit:10;}
	.st20{fill:#F2F2F2;}
	.st21{fill:none;stroke:#BCBEBE;stroke-width:3;stroke-linejoin:round;stroke-miterlimit:10;}
	.st22{fill:none;stroke:#15B54A;stroke-miterlimit:10;}
	.st23{clip-path:url(#SVGID_12_);}
	.st24{clip-path:url(#SVGID_14_);}
	.st25{fill:#D7FFE4;stroke:#15B54A;stroke-width:3;stroke-miterlimit:10;}
	.st26{fill:none;stroke:#15B54A;stroke-width:2;stroke-linecap:round;stroke-miterlimit:10;}
	.st27{fill:none;stroke:#15B54A;stroke-width:3;stroke-miterlimit:10;}
	.st28{clip-path:url(#SVGID_16_);}
	.st29{clip-path:url(#SVGID_18_);}
	.st30{fill:#D7FFE4;stroke:#15B54A;stroke-width:3;stroke-linejoin:round;stroke-miterlimit:10;}
	.st31{clip-path:url(#SVGID_20_);}
	.st32{clip-path:url(#SVGID_20_);fill:none;stroke:#BCBEBE;stroke-miterlimit:10;}
	.st33{clip-path:url(#SVGID_22_);}
	.st34{clip-path:url(#SVGID_24_);}
	.st35{clip-path:url(#SVGID_24_);fill:none;stroke:#15B54A;stroke-miterlimit:10;}
	.st36{clip-path:url(#SVGID_26_);}
	.st37{fill:#D7FFE4;}
	.st38{clip-path:url(#SVGID_28_);}
	.st39{clip-path:url(#SVGID_30_);}
	
		.st40{fill-rule:evenodd;clip-rule:evenodd;fill:#D7FFE4;stroke:#15B54A;stroke-width:3;stroke-linejoin:round;stroke-miterlimit:10;}
	.st41{fill:none;stroke:#15B54A;stroke-width:2;stroke-linejoin:round;stroke-miterlimit:10;}
	.st42{fill:none;stroke:#15B54A;stroke-width:3;stroke-linecap:round;stroke-linejoin:round;stroke-miterlimit:10;}
	.st43{fill:none;stroke:#15B54A;stroke-width:3;stroke-linejoin:round;stroke-miterlimit:10;}
	.st44{fill:none;stroke:#15B54A;stroke-width:0.182;stroke-miterlimit:10;}
	.st45{fill:none;stroke:#15B54A;stroke-width:0.5032;stroke-miterlimit:10;}
	
		.st46{fill-rule:evenodd;clip-rule:evenodd;fill:#D7FFE4;stroke:#15B54A;stroke-width:0.7548;stroke-linejoin:round;stroke-miterlimit:10;}
	.st47{fill:none;stroke:#15B54A;stroke-width:0.7548;stroke-miterlimit:10;}
	.st48{fill:none;stroke:#15B54A;stroke-width:0.75;stroke-linecap:round;stroke-linejoin:round;stroke-miterlimit:10;}
	.st49{fill:none;stroke:#15B54A;stroke-width:0.7548;stroke-linejoin:round;stroke-miterlimit:10;}
	.st50{fill:none;stroke:#15B54A;stroke-width:0.5;stroke-miterlimit:10;}
	.st51{fill:#D7FFE4;stroke:#15B54A;stroke-width:0.75;stroke-miterlimit:10;}
	.st52{fill:#D7FFE4;stroke:#15B54A;stroke-width:0.75;stroke-linejoin:round;stroke-miterlimit:10;}
	.st53{fill:#F2F2F2;stroke:#BCBEBE;stroke-width:1.6;stroke-miterlimit:10;}
	.st54{clip-path:url(#SVGID_32_);}
	.st55{fill:#D7FFE4;stroke:#15B54A;stroke-width:0.1821;stroke-miterlimit:10;}
	.st56{fill:#D7FFE4;stroke:#15B54A;stroke-width:0.5464;stroke-miterlimit:10;}
	.st57{fill:#D7FFE4;stroke:#15B54A;stroke-width:0.5462;stroke-miterlimit:10;}
	.st58{fill:#D7FFE4;stroke:#15B54A;stroke-width:0.5462;stroke-linejoin:round;stroke-miterlimit:10;}
	
		.st59{fill-rule:evenodd;clip-rule:evenodd;fill:#D7FFE4;stroke:#15B54A;stroke-width:0.5462;stroke-linejoin:round;stroke-miterlimit:10;}
	.st60{fill:none;stroke:#15B54A;stroke-width:0.5462;stroke-miterlimit:10;}
	.st61{fill:none;stroke:#15B54A;stroke-width:0.3641;stroke-linejoin:round;stroke-miterlimit:10;}
	.st62{fill:none;stroke:#15B54A;stroke-width:0.5462;stroke-linecap:round;stroke-linejoin:round;stroke-miterlimit:10;}
	.st63{fill:none;stroke:#15B54A;stroke-width:0.5462;stroke-linejoin:round;stroke-miterlimit:10;}
	.st64{fill:none;stroke:#15B54A;stroke-width:0.3641;stroke-linecap:round;stroke-miterlimit:10;}
	.st65{clip-path:url(#SVGID_34_);fill:#D7FFE4;stroke:#15B54A;stroke-miterlimit:10;}
	.st66{fill:#D7FFE4;stroke:#15B54A;stroke-width:1.6;stroke-miterlimit:10;}
	.st67{fill:none;stroke:#15B54A;stroke-linecap:round;stroke-miterlimit:10;}
	.st68{fill:#D7FFE4;stroke:#15B54A;stroke-width:1.6;stroke-linejoin:round;stroke-miterlimit:10;}
	
		.st69{fill-rule:evenodd;clip-rule:evenodd;fill:#D7FFE4;stroke:#15B54A;stroke-width:1.6;stroke-linejoin:round;stroke-miterlimit:10;}
	.st70{fill:none;stroke:#15B54A;stroke-width:1.6;stroke-miterlimit:10;}
	.st71{fill:none;stroke:#15B54A;stroke-width:1.6;stroke-linejoin:round;stroke-miterlimit:10;}
	.st72{fill:none;stroke:#15B54A;stroke-width:1.6;stroke-linecap:round;stroke-linejoin:round;stroke-miterlimit:10;}
	.st73{clip-path:url(#SVGID_36_);}
	.st74{fill:none;stroke:#D7FFE4;stroke-linecap:round;stroke-miterlimit:10;}
	.st75{fill:#F2F2F2;stroke:#BCBEBE;stroke-width:1.6;stroke-linejoin:round;stroke-miterlimit:10;}
	
		.st76{fill-rule:evenodd;clip-rule:evenodd;fill:#F2F2F2;stroke:#BCBEBE;stroke-width:1.8071;stroke-linejoin:round;stroke-miterlimit:10;}
	.st77{fill:none;stroke:#BCBEBE;stroke-width:1.8071;stroke-miterlimit:10;}
	.st78{fill:none;stroke:#BCBEBE;stroke-width:1.8071;stroke-linejoin:round;stroke-miterlimit:10;}
	.st79{fill:none;stroke:#BCBEBE;stroke-width:1.8071;stroke-linecap:round;stroke-linejoin:round;stroke-miterlimit:10;}
	.st80{fill:#F2F2F2;stroke:#BCBEBE;stroke-width:1.6148;stroke-miterlimit:10;}
	.st81{fill:none;stroke:#BCBEBE;stroke-width:1.6148;stroke-miterlimit:10;}
	.st82{fill:#F2F2F2;stroke:#BCBEBE;stroke-width:1.173;stroke-miterlimit:10;}
	.st83{fill:none;stroke:#BCBEBE;stroke-width:1.0674;stroke-miterlimit:10;}
	.st84{fill:#FFFFFF;stroke:#BCBEBE;stroke-width:1.0674;stroke-miterlimit:10;}
	
		.st85{fill-rule:evenodd;clip-rule:evenodd;fill:#D7FFE4;stroke:#15B54A;stroke-width:1.8071;stroke-linejoin:round;stroke-miterlimit:10;}
	.st86{fill:none;stroke:#15B54A;stroke-width:1.8071;stroke-miterlimit:10;}
	.st87{fill:none;stroke:#15B54A;stroke-width:1.8071;stroke-linejoin:round;stroke-miterlimit:10;}
	.st88{fill:none;stroke:#15B54A;stroke-width:1.8071;stroke-linecap:round;stroke-linejoin:round;stroke-miterlimit:10;}
	.st89{fill:#D7FFE4;stroke:#15B54A;stroke-width:1.6148;stroke-miterlimit:10;}
	.st90{fill:none;stroke:#15B54A;stroke-width:1.6148;stroke-miterlimit:10;}
	.st91{fill:#D7FFE4;stroke:#15B54A;stroke-width:1.173;stroke-miterlimit:10;}
	.st92{fill:none;stroke:#15B54A;stroke-width:1.0674;stroke-miterlimit:10;}
	.st93{fill:#FFFFFF;stroke:#15B54A;stroke-width:1.0674;stroke-miterlimit:10;}
</style>
<g id="Layer_1">
	<g>
		<g>
			<defs>
				<circle id="SVGID_3_" cx="8.9" cy="-480.5" r="169.5"/>
			</defs>
			<clipPath id="SVGID_2_">
				<use xlink:href="#SVGID_3_"  style="overflow:visible;"/>
			</clipPath>
			<g class="st0">
				<path class="st1" d="M-197.5-80.8c0,57,46.2,103.2,103.2,103.2S8.9-23.8,8.9-80.8"/>
				<path class="st1" d="M8.9-80.8c0,57,46.2,103.2,103.2,103.2S215.3-23.8,215.3-80.8"/>
				<path class="st1" d="M215.3-164.3c10.1,0,18.2-8.2,18.2-18.2c0-10.1-8.2-18.2-18.2-18.2c-10.1,0-18.2,8.2-18.2,18.2l-3,101.8
					c0,45.3-36.7,81.9-81.9,81.9S30.1-35.5,30.1-80.8"/>
			</g>
			<use xlink:href="#SVGID_3_"  style="overflow:visible;fill:none;stroke:#BCBEBE;stroke-width:2;stroke-miterlimit:10;"/>
		</g>
	</g>
	<g>
		<path class="st1" d="M11.7,37.8l-9.3-17c-0.5,1.5-1,3-1.3,4.6l7.2,13.2C9.4,38.3,10.5,38.1,11.7,37.8z"/>
		<path class="st1" d="M49.8,52.6c-0.5,0-0.9,0.2-1.2,0.4c0.5,1,0.9,2.1,1.2,3.2c0.8-0.6,1.6-1.2,2.3-1.9
			C51.8,53.3,50.9,52.5,49.8,52.6z"/>
		<path class="st1" d="M15.2,37.3L4.1,17c-0.7,1.2-1.2,2.5-1.7,3.8l9.3,17C12.8,37.6,14,37.4,15.2,37.3z"/>
		<path class="st1" d="M55.7,46.2c-1.3,0-2.3,1.1-2.3,2.4c0,1.1,0.8,2,1.9,2.2c0.9-1.1,1.7-2.2,2.4-3.4
			C57.3,46.7,56.5,46.2,55.7,46.2z"/>
		<path class="st1" d="M59.4,29.8c0,1.3,1.1,2.3,2.4,2.3c0.2,0,0.3,0,0.5-0.1c0-0.2,0-0.5,0-0.7c0-1.3-0.1-2.6-0.3-3.9
			c-0.1,0-0.2,0-0.3,0C60.3,27.5,59.3,28.5,59.4,29.8z"/>
		<path class="st1" d="M25.4,1.1c-6.8,1.3-12.7,4.8-17.1,9.8l1.4,2.5L25.4,1.1z"/>
		<path class="st1" d="M59.2,23.6c0,1.3,1.1,2.3,2.4,2.3c0,0,0.1,0,0.1,0c-0.3-1.5-0.7-3-1.1-4.4C59.8,21.8,59.2,22.7,59.2,23.6z"/>
		<path class="st1" d="M28.4,36.1c0-1.3-1.1-2.3-2.4-2.3c-1.3,0-2.3,1.1-2.3,2.4c0,0.4,0.1,0.8,0.4,1.2c1.2,0.1,2.3,0.3,3.4,0.6
			C28,37.5,28.4,36.8,28.4,36.1z"/>
		<path class="st1" d="M61.5,33.8c-1.3,0-2.3,1.1-2.3,2.4c0,1.2,1,2.2,2.1,2.3c-1.2-0.1-2.1-1.1-2.1-2.3
			C59.2,34.9,60.2,33.9,61.5,33.8c0.2,0,0.4,0,0.6,0.1c0.1-0.6,0.1-1.2,0.1-1.9c-0.2,0-0.3,0.1-0.5,0.1c-1.3,0-2.4-1-2.4-2.3
			c0-1.3,1-2.4,2.3-2.4c0.1,0,0.2,0,0.3,0c-0.1-0.5-0.1-1-0.2-1.6c0,0-0.1,0-0.1,0c-1.3,0-2.4-1-2.4-2.3c0-1,0.5-1.8,1.4-2.2
			C58.3,14.8,53.8,9.1,48,5.4L18.1,28.6L48,5.4c-1-0.7-2.1-1.3-3.3-1.8l-28.4,22l28.4-22C43.5,3,42.3,2.5,41,2.1L14.7,22.5L41,2.1
			c-1.4-0.5-2.8-0.8-4.2-1.1L13,19.5L36.8,1c-1.6-0.3-3.3-0.5-5-0.5L11.4,16.4L31.8,0.5c-0.1,0-0.3,0-0.4,0c-2,0-4,0.2-5.9,0.6
			L9.6,13.3l13.1,23.9L9.6,13.3l0,0l0,0l-1.4-2.5c-0.8,0.9-1.5,1.8-2.2,2.8l12.9,23.4L6.1,13.7c-0.7,1.1-1.4,2.2-2,3.3l11.2,20.3
			c1.3-0.1,2.7-0.2,4.1-0.2c1.6,0,3.2,0.1,4.8,0.3c-0.2-0.3-0.4-0.8-0.4-1.2c0-1.3,1-2.4,2.3-2.4c1.3,0,2.4,1,2.4,2.3
			c0,0.8-0.3,1.4-0.9,1.9c3.1,0.7,6,1.7,8.7,3c0.4-0.6,1.1-0.9,1.8-0.9c1.3,0,2.4,1,2.4,2.3c0,0.4-0.1,0.7-0.2,1
			c0.1-0.3,0.2-0.7,0.2-1c0-1.3-1.1-2.3-2.4-2.3c-0.7,0-1.4,0.4-1.8,0.9c2.9,1.4,5.4,3.2,7.5,5.3c0,0,0.1,0,0.1,0
			c1.3,0,2.4,1,2.4,2.3c0,0.2,0,0.3,0,0.5c0-0.2,0-0.3,0-0.5c0-1.3-1.1-2.3-2.4-2.3c0,0-0.1,0-0.1,0c2.1,2,3.7,4.3,4.9,6.7
			c0.4-0.2,0.8-0.4,1.2-0.4c1.1,0,2,0.7,2.3,1.7c1.2-1,2.2-2.2,3.2-3.4c-1.1-0.2-1.9-1.1-1.9-2.2c0-1.3,1-2.4,2.3-2.4
			c0.9,0,1.6,0.5,2.1,1.2c0.8-1.2,1.4-2.5,2-3.9c-0.2-0.3-0.3-0.7-0.4-1.2c0-1,0.6-1.9,1.5-2.2c-0.9,0.3-1.6,1.2-1.5,2.2
			c0,0.4,0.1,0.8,0.4,1.2c1.3-3,2.1-6.3,2.4-9.7C61.9,33.8,61.7,33.8,61.5,33.8z M22.4,36.7c0.1-0.2,0.1-0.5,0.1-0.7
			c0-1-0.7-1.9-1.7-2.2c0.9,0.3,1.6,1.1,1.7,2.2C22.5,36.2,22.5,36.4,22.4,36.7z M20.4,32c-0.2,0-0.4,0-0.6-0.1
			C20,31.9,20.2,32,20.4,32c1.3,0,2.3-1.1,2.3-2.4c0-1.3-1.1-2.3-2.4-2.3c-0.1,0-0.3,0-0.4,0c0.1,0,0.3,0,0.4,0c1.3,0,2.4,1,2.4,2.3
			C22.7,30.9,21.7,31.9,20.4,32z M49.6,8.7c1.3,0,2.4,1,2.4,2.3s-1,2.4-2.3,2.4c-1.3,0-2.4-1-2.4-2.3C47.3,9.8,48.4,8.7,49.6,8.7z
			 M49.6,21.3c1.3,0,2.4,1,2.4,2.3c0,1.3-1,2.4-2.3,2.4c-1.3,0-2.4-1-2.4-2.3C47.3,22.4,48.4,21.3,49.6,21.3z M49.6,33.8
			c1.3,0,2.4,1,2.4,2.3c0,1.3-1,2.4-2.3,2.4c-1.3,0-2.4-1-2.4-2.3C47.3,34.9,48.4,33.9,49.6,33.8z M41.6,10.5c0,0.2,0,0.3,0,0.5
			c0,1.3,1.1,2.3,2.4,2.3c1.3,0,2.3-1.1,2.3-2.4c0-1.2-1-2.2-2.2-2.3c1.2,0.1,2.1,1.1,2.2,2.3c0,1.3-1,2.4-2.3,2.4
			c-1.3,0-2.4-1-2.4-2.3C41.5,10.8,41.6,10.6,41.6,10.5z M43.8,21.1c1.3,0,2.4,1,2.4,2.3s-1,2.4-2.3,2.4c-1.3,0-2.4-1-2.4-2.3
			S42.5,21.1,43.8,21.1z M32,21.1c1.3,0,2.4,1,2.4,2.3s-1,2.4-2.3,2.4c-1.3,0-2.4-1-2.4-2.3S30.7,21.1,32,21.1z M26.1,25.9
			c1.3,0,2.3-1.1,2.3-2.4c0-0.8-0.4-1.5-1.1-1.9c0.6,0.4,1.1,1.1,1.1,1.9C28.4,24.8,27.4,25.9,26.1,25.9c-1.1,0-2-0.7-2.3-1.6
			C24.1,25.3,25,25.9,26.1,25.9z M26.2,32.1c-1.3,0-2.4-1-2.4-2.3c0-1.3,1-2.4,2.3-2.4c1.3,0,2.4,1,2.4,2.3
			C28.5,31,27.5,32.1,26.2,32.1z M32.1,38.3c-1.3,0-2.4-1-2.4-2.3c0-1.3,1-2.4,2.3-2.4c1.3,0,2.4,1,2.4,2.3
			C34.4,37.2,33.4,38.3,32.1,38.3z M32.2,32c-1.3,0-2.4-1-2.4-2.3c0-1.3,1-2.4,2.3-2.4c1.3,0,2.4,1,2.4,2.3
			C34.5,30.9,33.5,31.9,32.2,32z M32.2,19.4c-0.6,0-1.1-0.2-1.5-0.5C31.1,19.2,31.7,19.4,32.2,19.4c1.3,0,2.3-1.1,2.3-2.4
			c0-0.3-0.1-0.6-0.2-0.9c0.1,0.3,0.2,0.6,0.2,0.9C34.5,18.3,33.5,19.4,32.2,19.4z M37.9,38.5c-1.3,0-2.4-1-2.4-2.3s1-2.4,2.3-2.4
			s2.4,1,2.4,2.3C40.2,37.4,39.2,38.4,37.9,38.5z M38.1,32.1c-1.3,0-2.4-1-2.4-2.3c0-1.3,1-2.4,2.3-2.4c1.3,0,2.4,1,2.4,2.3
			C40.4,31,39.3,32.1,38.1,32.1z M35.5,23.6c0-1.3,1-2.4,2.3-2.4c1.3,0,2.4,1,2.4,2.3c0,1.3-1,2.4-2.3,2.4
			C36.6,25.9,35.6,24.9,35.5,23.6z M38.1,19.5c-1.3,0-2.4-1-2.4-2.3c0-1.3,1-2.4,2.3-2.4c1.3,0,2.4,1,2.4,2.3
			C40.4,18.4,39.3,19.5,38.1,19.5z M43.8,33.7c1.3,0,2.4,1,2.4,2.3c0,1.3-1,2.4-2.3,2.4c-1.3,0-2.4-1-2.4-2.3
			C41.5,34.8,42.5,33.7,43.8,33.7z M44.1,44.5c-1.3,0-2.4-1-2.4-2.3c0-1.3,1-2.4,2.3-2.4c1.3,0,2.4,1,2.4,2.3S45.4,44.5,44.1,44.5z
			 M44.1,32c-1.3,0-2.4-1-2.4-2.3c0-1.3,1-2.4,2.3-2.4c1.3,0,2.4,1,2.4,2.3S45.4,31.9,44.1,32z M49.8,51c-1.3,0-2.4-1-2.4-2.3
			c0-1.3,1-2.4,2.3-2.4c1.3,0,2.4,1,2.4,2.3C52.1,49.9,51,51,49.8,51z M49.9,44.7c-1.3,0-2.4-1-2.4-2.3c0-1.3,1-2.4,2.3-2.4
			s2.4,1,2.4,2.3S51.2,44.6,49.9,44.7z M49.9,32.1c-1.3,0-2.4-1-2.4-2.3c0-1.3,1-2.4,2.3-2.4s2.4,1,2.4,2.3
			C52.2,31,51.2,32.1,49.9,32.1z M49.9,19.5c-1.3,0-2.4-1-2.4-2.3c0-1.3,1-2.4,2.3-2.4s2.4,1,2.4,2.3S51.2,19.5,49.9,19.5z
			 M53.5,10.1c-0.1,0.3-0.2,0.6-0.1,0.9c0,1.3,1.1,2.3,2.4,2.3c0.1,0,0.3,0,0.4-0.1c-0.1,0-0.3,0-0.4,0.1c-1.3,0-2.4-1-2.4-2.3
			C53.4,10.6,53.4,10.3,53.5,10.1z M55.7,21.1c1.3,0,2.4,1,2.4,2.3c0,1.3-1,2.4-2.3,2.4c-1.3,0-2.4-1-2.4-2.3S54.4,21.1,55.7,21.1z
			 M55.7,33.7c1.3,0,2.4,1,2.4,2.3c0,1.3-1,2.4-2.3,2.4c-1.3,0-2.4-1-2.4-2.3C53.3,34.8,54.4,33.7,55.7,33.7z M55.9,44.5
			c-1.3,0-2.4-1-2.4-2.3c0-1.3,1-2.4,2.3-2.4c1.3,0,2.4,1,2.4,2.3C58.2,43.4,57.2,44.5,55.9,44.5z M55.9,32c-1.3,0-2.4-1-2.4-2.3
			c0-1.3,1-2.4,2.3-2.4c1.3,0,2.4,1,2.4,2.3C58.2,30.9,57.2,31.9,55.9,32z M55.9,19.4c-1.3,0-2.4-1-2.4-2.3c0-1.3,1-2.4,2.3-2.4
			c1.3,0,2.4,1,2.4,2.3C58.2,18.3,57.2,19.4,55.9,19.4z"/>
		<path class="st1" d="M1.1,25.5c-0.4,1.9-0.6,3.9-0.6,5.9c0,0,0,0,0,0l4.6,8.4l-4.6-8.4c0,3.4,0.6,6.7,1.6,9.7c1.9-1,4-1.8,6.2-2.5
			L1.1,25.5z"/>
		<path class="st1" d="M55.8,38.3c1.3,0,2.3-1.1,2.3-2.4c0-1.3-1.1-2.3-2.4-2.3c-1.3,0-2.3,1.1-2.3,2.4
			C53.4,37.3,54.5,38.4,55.8,38.3z"/>
		<path class="st1" d="M43.9,38.3c1.3,0,2.3-1.1,2.3-2.4c0-1.3-1.1-2.3-2.4-2.3c-1.3,0-2.3,1.1-2.3,2.4
			C41.6,37.3,42.6,38.4,43.9,38.3z"/>
		<path class="st1" d="M32,33.7c-1.3,0-2.3,1.1-2.3,2.4c0,1.3,1.1,2.3,2.4,2.3c1.3,0,2.3-1.1,2.3-2.4C34.3,34.7,33.3,33.7,32,33.7z"
			/>
		<path class="st1" d="M55.8,25.8c1.3,0,2.3-1.1,2.3-2.4c0-1.3-1.1-2.3-2.4-2.3c-1.3,0-2.3,1.1-2.3,2.4S54.5,25.8,55.8,25.8z"/>
		<path class="st1" d="M43.9,25.8c1.3,0,2.3-1.1,2.3-2.4s-1.1-2.3-2.4-2.3c-1.3,0-2.3,1.1-2.3,2.4S42.6,25.8,43.9,25.8z"/>
		<path class="st1" d="M32.1,25.8c1.3,0,2.3-1.1,2.3-2.4s-1.1-2.3-2.4-2.3c-1.3,0-2.3,1.1-2.3,2.4S30.8,25.8,32.1,25.8z"/>
		<path class="st1" d="M55.8,39.9c-1.3,0-2.3,1.1-2.3,2.4c0,1.3,1.1,2.3,2.4,2.3s2.3-1.1,2.3-2.4C58.1,40.9,57.1,39.8,55.8,39.9z"/>
		<path class="st1" d="M44,39.9c-1.3,0-2.3,1.1-2.3,2.4c0,1.3,1.1,2.3,2.4,2.3c1.3,0,2.3-1.1,2.3-2.4S45.2,39.8,44,39.9z"/>
		<path class="st1" d="M55.8,27.3c-1.3,0-2.3,1.1-2.3,2.4c0,1.3,1.1,2.3,2.4,2.3c1.3,0,2.3-1.1,2.3-2.4
			C58.1,28.3,57.1,27.3,55.8,27.3z"/>
		<path class="st1" d="M44,27.3c-1.3,0-2.3,1.1-2.3,2.4c0,1.3,1.1,2.3,2.4,2.3c1.3,0,2.3-1.1,2.3-2.4S45.2,27.3,44,27.3z"/>
		<path class="st1" d="M32.1,27.3c-1.3,0-2.3,1.1-2.3,2.4c0,1.3,1.1,2.3,2.4,2.3c1.3,0,2.3-1.1,2.3-2.4
			C34.5,28.3,33.4,27.3,32.1,27.3z"/>
		<path class="st1" d="M55.8,14.7c-1.3,0-2.3,1.1-2.3,2.4c0,1.3,1.1,2.3,2.4,2.3s2.3-1.1,2.3-2.4C58.1,15.7,57.1,14.7,55.8,14.7z"/>
		<path class="st1" d="M49.6,46.4c-1.3,0-2.3,1.1-2.3,2.4c0,1.3,1.1,2.3,2.4,2.3c1.3,0,2.3-1.1,2.3-2.4C52,47.4,50.9,46.4,49.6,46.4
			z"/>
		<path class="st1" d="M49.8,38.5c1.3,0,2.3-1.1,2.3-2.4c0-1.3-1.1-2.3-2.4-2.3c-1.3,0-2.3,1.1-2.3,2.4
			C47.4,37.5,48.5,38.5,49.8,38.5z"/>
		<path class="st1" d="M37.8,33.8c-1.3,0-2.3,1.1-2.3,2.4s1.1,2.3,2.4,2.3s2.3-1.1,2.3-2.4C40.2,34.8,39.1,33.8,37.8,33.8z"/>
		<path class="st1" d="M49.8,25.9c1.3,0,2.3-1.1,2.3-2.4c0-1.3-1.1-2.3-2.4-2.3c-1.3,0-2.3,1.1-2.3,2.4
			C47.4,24.9,48.5,25.9,49.8,25.9z"/>
		<path class="st1" d="M37.9,25.9c1.3,0,2.3-1.1,2.3-2.4c0-1.3-1.1-2.3-2.4-2.3c-1.3,0-2.3,1.1-2.3,2.4
			C35.6,24.9,36.6,25.9,37.9,25.9z"/>
		<path class="st1" d="M49.8,13.3c1.3,0,2.3-1.1,2.3-2.4s-1.1-2.3-2.4-2.3c-1.3,0-2.3,1.1-2.3,2.4C47.4,12.4,48.5,13.4,49.8,13.3z"
			/>
		<path class="st1" d="M49.8,40c-1.3,0-2.3,1.1-2.3,2.4c0,1.3,1.1,2.3,2.4,2.3c1.3,0,2.3-1.1,2.3-2.4S51.1,40,49.8,40z"/>
		<path class="st1" d="M49.8,27.4c-1.3,0-2.3,1.1-2.3,2.4c0,1.3,1.1,2.3,2.4,2.3c1.3,0,2.3-1.1,2.3-2.4
			C52.1,28.4,51.1,27.4,49.8,27.4z"/>
		<path class="st1" d="M38,27.4c-1.3,0-2.3,1.1-2.3,2.4c0,1.3,1.1,2.3,2.4,2.3s2.3-1.1,2.3-2.4C40.3,28.4,39.2,27.4,38,27.4z"/>
		<path class="st1" d="M26.1,27.4c-1.3,0-2.3,1.1-2.3,2.4c0,1.3,1.1,2.3,2.4,2.3c1.3,0,2.3-1.1,2.3-2.4
			C28.5,28.4,27.4,27.4,26.1,27.4z"/>
		<path class="st1" d="M49.8,14.9c-1.3,0-2.3,1.1-2.3,2.4c0,1.3,1.1,2.3,2.4,2.3c1.3,0,2.3-1.1,2.3-2.4S51.1,14.9,49.8,14.9z"/>
		<path class="st1" d="M38,14.9c-1.3,0-2.3,1.1-2.3,2.4c0,1.3,1.1,2.3,2.4,2.3c1.3,0,2.3-1.1,2.3-2.4C40.3,15.9,39.2,14.9,38,14.9z"
			/>
		<path class="st1" d="M19.3,40.5c13.6,0,24.8,7.9,26.5,18.1c1-0.5,1.9-1.1,2.8-1.7c0,0,0,0,0,0c0,0,0,0,0,0
			c0.4-0.2,0.7-0.5,1.1-0.8C49.4,55.1,49,54,48.6,53c0,0,0,0,0,0c0,0,0,0,0,0c-1.2-2.4-2.8-4.7-4.9-6.7c0,0,0,0,0,0c0,0,0,0,0,0
			c-2.1-2.1-4.7-3.9-7.5-5.3c0,0,0,0,0,0c0,0,0,0,0,0c-2.6-1.3-5.5-2.3-8.7-3c0,0,0,0,0,0c0,0,0,0,0,0c-1.1-0.2-2.3-0.4-3.4-0.6
			c0,0,0,0,0,0c0,0,0,0,0,0c-1.6-0.2-3.1-0.3-4.8-0.3c-1.4,0-2.7,0.1-4.1,0.2l0,0l0,0c-1.2,0.1-2.4,0.3-3.5,0.5l0,0l0,0
			c-1.2,0.2-2.3,0.5-3.4,0.8l0,0l0,0c-2.2,0.6-4.3,1.5-6.2,2.5c0.4,1.2,0.9,2.3,1.4,3.5C7.9,42.1,13.4,40.5,19.3,40.5z"/>
		<path class="st1" d="M19.3,40.5c-5.9,0-11.4,1.5-15.9,4.1c0.5,1.1,1.2,2.2,1.8,3.3c3.8-2.4,8.7-3.9,14.1-3.9
			c11.9,0,21.7,7.3,22.3,16.5c1.4-0.5,2.8-1.1,4.2-1.8C44.1,48.4,32.9,40.5,19.3,40.5z"/>
		<path class="st1" d="M19.4,47.4c9.9,0,17.9,6.2,17.9,13.9c0,0.1,0,0.2,0,0.3c1.5-0.3,3-0.7,4.4-1.2C41.1,51.3,31.3,44,19.4,44
			c-5.3,0-10.2,1.5-14.1,3.9C6,49,6.7,50,7.5,51C10.7,48.8,14.9,47.4,19.4,47.4z"/>
		<path class="st1" d="M19.4,47.4c-4.6,0-8.7,1.3-11.9,3.5c0.8,1,1.7,1.9,2.6,2.8c2.4-1.8,5.7-2.9,9.3-2.9c7.4,0,13.4,4.7,13.4,10.4
			c0,0.3,0,0.6-0.1,0.9c1.5-0.1,3-0.3,4.4-0.5c0-0.1,0-0.2,0-0.3C37.3,53.6,29.3,47.4,19.4,47.4z"/>
		<path class="st1" d="M19.5,54.3c5,0,9,3.1,9,7c0,0.3,0,0.5-0.1,0.8c0.9,0.1,1.9,0.1,2.9,0.1c0.5,0,1,0,1.5,0
			c0-0.3,0.1-0.6,0.1-0.9c0-5.8-6-10.4-13.4-10.4c-3.6,0-6.9,1.1-9.3,2.9c1,0.9,2,1.8,3,2.5C14.9,55.1,17.1,54.3,19.5,54.3z"/>
		<path class="st1" d="M19.5,54.3c-2.5,0-4.7,0.8-6.3,2c1.1,0.8,2.3,1.6,3.5,2.2c0.8-0.5,1.8-0.8,2.8-0.8c2.5,0,4.6,1.6,4.6,3.5
			c0,0,0,0,0,0.1c1.4,0.3,2.9,0.6,4.3,0.7c0-0.3,0.1-0.5,0.1-0.8C28.5,57.4,24.5,54.3,19.5,54.3z"/>
		<path class="st1" d="M24.1,61.3c0-2-2-3.5-4.6-3.5c-1.1,0-2.1,0.3-2.8,0.8C19.1,59.8,21.5,60.7,24.1,61.3
			C24.1,61.3,24.1,61.3,24.1,61.3z"/>
	</g>
</g>
<g id="Layer_2">
	<g>
		<g>
			<path class="st80" d="M29,19.6c-9.2,1.8-10.9-2.7-11.8-9.2c4.4,1.4,5.9,0.8,8.4,1.8C29.5,13.8,30.3,19.3,29,19.6z"/>
			<g>
				<path class="st80" d="M28.1,19.6c-0.7-0.6-2.3-2.2-1.6-5C27.1,12,29,12.1,30.2,9c1.4,2,3.1,3.3,2.3,6.9
					C31.8,19.5,28.2,19.7,28.1,19.6z"/>
			</g>
		</g>
		<g>
			<g>
				<path class="st80" d="M37.6,20.9c0.2-0.9-0.1-3.7,2.7-4.7c2.5-0.9,3-0.3,6.2-1.3c-0.9,2.2,0.3,5.6-3.1,6.9
					C40,23.1,37.6,21,37.6,20.9z"/>
			</g>
		</g>
		<circle class="st80" cx="30.3" cy="37.6" r="17.8"/>
		<path class="st81" d="M16.7,26.1c0,0,3.4,2,6.2,0.8c0.9-0.4,2.2-0.9,3.2-0.5c0.9,0.4,1.4,1.3,1.8,2.1c0.3,0.6,0.6,1.2,0.6,1.9
			c0,0.7-0.4,1.2-0.7,1.8c-0.1,0.2-0.2,0.5-0.3,0.7c-0.4,0.8,0.2,1.8,0.4,2.6c0.1,0.4,0.1,0.8,0,1.2c-0.2,1.2-1.3,1.3-2.3,1.4
			c-0.3,0.1-0.7,0.1-1,0.2c-0.5,0.1-1,0-1.3,0.5c-0.3,0.4-0.3,1-0.4,1.4c0,0.3-0.1,0.6-0.3,0.9c-0.2,0.3-0.4,0.5-0.7,0.6
			c-0.3,0.2-0.7,0.2-1,0.4c-0.2,0.2-0.5,0.5-0.6,0.7c-0.5,0.7-0.7,1.5-0.5,2.3c0,0,0.4,2.3-0.8,3.5c-0.3,0.3-0.6,0.5-0.7,0.9
			c-0.2,0.4,0,0.9,0.3,1.2"/>
		<path class="st81" d="M40.8,23.2c0,0-2.3,1-1.3,2.9s1.2,3.8-0.5,4.9s-2.2,2.1-2.4,4.7c-0.2,2.6,2.3,2.3,3.3,4.4c1,2,7,0.9,7.6,1"
			/>
	</g>
</g>
</svg>
